%TF.GenerationSoftware,KiCad,Pcbnew,5.1.9-73d0e3b20d~88~ubuntu20.04.1*%
%TF.CreationDate,2021-06-05T19:46:01+02:00*%
%TF.ProjectId,pooky,706f6f6b-792e-46b6-9963-61645f706362,v1.00*%
%TF.SameCoordinates,Original*%
%TF.FileFunction,Soldermask,Top*%
%TF.FilePolarity,Negative*%
%FSLAX46Y46*%
G04 Gerber Fmt 4.6, Leading zero omitted, Abs format (unit mm)*
G04 Created by KiCad (PCBNEW 5.1.9-73d0e3b20d~88~ubuntu20.04.1) date 2021-06-05 19:46:01*
%MOMM*%
%LPD*%
G01*
G04 APERTURE LIST*
%ADD10R,0.980000X3.400000*%
%ADD11R,0.600000X0.450000*%
%ADD12R,0.450000X0.600000*%
%ADD13R,1.500000X2.400000*%
%ADD14R,1.100000X0.400000*%
%ADD15R,2.400000X6.170000*%
%ADD16R,0.650000X1.060000*%
%ADD17R,0.900000X0.800000*%
%ADD18R,3.500000X3.500000*%
%ADD19C,2.500000*%
%ADD20R,2.500000X2.500000*%
%ADD21R,1.700000X1.700000*%
%ADD22O,1.700000X1.700000*%
G04 APERTURE END LIST*
D10*
%TO.C,L5*%
X180485000Y-120000000D03*
X178115000Y-120000000D03*
%TD*%
%TO.C,C1*%
G36*
G01*
X175325000Y-97450000D02*
X175325000Y-96950000D01*
G75*
G02*
X175550000Y-96725000I225000J0D01*
G01*
X176000000Y-96725000D01*
G75*
G02*
X176225000Y-96950000I0J-225000D01*
G01*
X176225000Y-97450000D01*
G75*
G02*
X176000000Y-97675000I-225000J0D01*
G01*
X175550000Y-97675000D01*
G75*
G02*
X175325000Y-97450000I0J225000D01*
G01*
G37*
G36*
G01*
X173775000Y-97450000D02*
X173775000Y-96950000D01*
G75*
G02*
X174000000Y-96725000I225000J0D01*
G01*
X174450000Y-96725000D01*
G75*
G02*
X174675000Y-96950000I0J-225000D01*
G01*
X174675000Y-97450000D01*
G75*
G02*
X174450000Y-97675000I-225000J0D01*
G01*
X174000000Y-97675000D01*
G75*
G02*
X173775000Y-97450000I0J225000D01*
G01*
G37*
%TD*%
%TO.C,C2*%
G36*
G01*
X175325000Y-103050000D02*
X175325000Y-102550000D01*
G75*
G02*
X175550000Y-102325000I225000J0D01*
G01*
X176000000Y-102325000D01*
G75*
G02*
X176225000Y-102550000I0J-225000D01*
G01*
X176225000Y-103050000D01*
G75*
G02*
X176000000Y-103275000I-225000J0D01*
G01*
X175550000Y-103275000D01*
G75*
G02*
X175325000Y-103050000I0J225000D01*
G01*
G37*
G36*
G01*
X173775000Y-103050000D02*
X173775000Y-102550000D01*
G75*
G02*
X174000000Y-102325000I225000J0D01*
G01*
X174450000Y-102325000D01*
G75*
G02*
X174675000Y-102550000I0J-225000D01*
G01*
X174675000Y-103050000D01*
G75*
G02*
X174450000Y-103275000I-225000J0D01*
G01*
X174000000Y-103275000D01*
G75*
G02*
X173775000Y-103050000I0J225000D01*
G01*
G37*
%TD*%
%TO.C,C3*%
G36*
G01*
X173775000Y-99450000D02*
X173775000Y-98950000D01*
G75*
G02*
X174000000Y-98725000I225000J0D01*
G01*
X174450000Y-98725000D01*
G75*
G02*
X174675000Y-98950000I0J-225000D01*
G01*
X174675000Y-99450000D01*
G75*
G02*
X174450000Y-99675000I-225000J0D01*
G01*
X174000000Y-99675000D01*
G75*
G02*
X173775000Y-99450000I0J225000D01*
G01*
G37*
G36*
G01*
X175325000Y-99450000D02*
X175325000Y-98950000D01*
G75*
G02*
X175550000Y-98725000I225000J0D01*
G01*
X176000000Y-98725000D01*
G75*
G02*
X176225000Y-98950000I0J-225000D01*
G01*
X176225000Y-99450000D01*
G75*
G02*
X176000000Y-99675000I-225000J0D01*
G01*
X175550000Y-99675000D01*
G75*
G02*
X175325000Y-99450000I0J225000D01*
G01*
G37*
%TD*%
%TO.C,C4*%
G36*
G01*
X175325000Y-101050000D02*
X175325000Y-100550000D01*
G75*
G02*
X175550000Y-100325000I225000J0D01*
G01*
X176000000Y-100325000D01*
G75*
G02*
X176225000Y-100550000I0J-225000D01*
G01*
X176225000Y-101050000D01*
G75*
G02*
X176000000Y-101275000I-225000J0D01*
G01*
X175550000Y-101275000D01*
G75*
G02*
X175325000Y-101050000I0J225000D01*
G01*
G37*
G36*
G01*
X173775000Y-101050000D02*
X173775000Y-100550000D01*
G75*
G02*
X174000000Y-100325000I225000J0D01*
G01*
X174450000Y-100325000D01*
G75*
G02*
X174675000Y-100550000I0J-225000D01*
G01*
X174675000Y-101050000D01*
G75*
G02*
X174450000Y-101275000I-225000J0D01*
G01*
X174000000Y-101275000D01*
G75*
G02*
X173775000Y-101050000I0J225000D01*
G01*
G37*
%TD*%
%TO.C,C5*%
G36*
G01*
X186275000Y-90050000D02*
X185325000Y-90050000D01*
G75*
G02*
X185075000Y-89800000I0J250000D01*
G01*
X185075000Y-89300000D01*
G75*
G02*
X185325000Y-89050000I250000J0D01*
G01*
X186275000Y-89050000D01*
G75*
G02*
X186525000Y-89300000I0J-250000D01*
G01*
X186525000Y-89800000D01*
G75*
G02*
X186275000Y-90050000I-250000J0D01*
G01*
G37*
G36*
G01*
X186275000Y-91950000D02*
X185325000Y-91950000D01*
G75*
G02*
X185075000Y-91700000I0J250000D01*
G01*
X185075000Y-91200000D01*
G75*
G02*
X185325000Y-90950000I250000J0D01*
G01*
X186275000Y-90950000D01*
G75*
G02*
X186525000Y-91200000I0J-250000D01*
G01*
X186525000Y-91700000D01*
G75*
G02*
X186275000Y-91950000I-250000J0D01*
G01*
G37*
%TD*%
%TO.C,C6*%
G36*
G01*
X186275000Y-93450000D02*
X185325000Y-93450000D01*
G75*
G02*
X185075000Y-93200000I0J250000D01*
G01*
X185075000Y-92700000D01*
G75*
G02*
X185325000Y-92450000I250000J0D01*
G01*
X186275000Y-92450000D01*
G75*
G02*
X186525000Y-92700000I0J-250000D01*
G01*
X186525000Y-93200000D01*
G75*
G02*
X186275000Y-93450000I-250000J0D01*
G01*
G37*
G36*
G01*
X186275000Y-95350000D02*
X185325000Y-95350000D01*
G75*
G02*
X185075000Y-95100000I0J250000D01*
G01*
X185075000Y-94600000D01*
G75*
G02*
X185325000Y-94350000I250000J0D01*
G01*
X186275000Y-94350000D01*
G75*
G02*
X186525000Y-94600000I0J-250000D01*
G01*
X186525000Y-95100000D01*
G75*
G02*
X186275000Y-95350000I-250000J0D01*
G01*
G37*
%TD*%
%TO.C,C7*%
G36*
G01*
X186275000Y-107550000D02*
X185325000Y-107550000D01*
G75*
G02*
X185075000Y-107300000I0J250000D01*
G01*
X185075000Y-106800000D01*
G75*
G02*
X185325000Y-106550000I250000J0D01*
G01*
X186275000Y-106550000D01*
G75*
G02*
X186525000Y-106800000I0J-250000D01*
G01*
X186525000Y-107300000D01*
G75*
G02*
X186275000Y-107550000I-250000J0D01*
G01*
G37*
G36*
G01*
X186275000Y-105650000D02*
X185325000Y-105650000D01*
G75*
G02*
X185075000Y-105400000I0J250000D01*
G01*
X185075000Y-104900000D01*
G75*
G02*
X185325000Y-104650000I250000J0D01*
G01*
X186275000Y-104650000D01*
G75*
G02*
X186525000Y-104900000I0J-250000D01*
G01*
X186525000Y-105400000D01*
G75*
G02*
X186275000Y-105650000I-250000J0D01*
G01*
G37*
%TD*%
%TO.C,C8*%
G36*
G01*
X186275000Y-110950000D02*
X185325000Y-110950000D01*
G75*
G02*
X185075000Y-110700000I0J250000D01*
G01*
X185075000Y-110200000D01*
G75*
G02*
X185325000Y-109950000I250000J0D01*
G01*
X186275000Y-109950000D01*
G75*
G02*
X186525000Y-110200000I0J-250000D01*
G01*
X186525000Y-110700000D01*
G75*
G02*
X186275000Y-110950000I-250000J0D01*
G01*
G37*
G36*
G01*
X186275000Y-109050000D02*
X185325000Y-109050000D01*
G75*
G02*
X185075000Y-108800000I0J250000D01*
G01*
X185075000Y-108300000D01*
G75*
G02*
X185325000Y-108050000I250000J0D01*
G01*
X186275000Y-108050000D01*
G75*
G02*
X186525000Y-108300000I0J-250000D01*
G01*
X186525000Y-108800000D01*
G75*
G02*
X186275000Y-109050000I-250000J0D01*
G01*
G37*
%TD*%
%TO.C,C9*%
G36*
G01*
X172975000Y-95450000D02*
X172975000Y-94950000D01*
G75*
G02*
X173200000Y-94725000I225000J0D01*
G01*
X173650000Y-94725000D01*
G75*
G02*
X173875000Y-94950000I0J-225000D01*
G01*
X173875000Y-95450000D01*
G75*
G02*
X173650000Y-95675000I-225000J0D01*
G01*
X173200000Y-95675000D01*
G75*
G02*
X172975000Y-95450000I0J225000D01*
G01*
G37*
G36*
G01*
X174525000Y-95450000D02*
X174525000Y-94950000D01*
G75*
G02*
X174750000Y-94725000I225000J0D01*
G01*
X175200000Y-94725000D01*
G75*
G02*
X175425000Y-94950000I0J-225000D01*
G01*
X175425000Y-95450000D01*
G75*
G02*
X175200000Y-95675000I-225000J0D01*
G01*
X174750000Y-95675000D01*
G75*
G02*
X174525000Y-95450000I0J225000D01*
G01*
G37*
%TD*%
%TO.C,C10*%
G36*
G01*
X172975000Y-105050000D02*
X172975000Y-104550000D01*
G75*
G02*
X173200000Y-104325000I225000J0D01*
G01*
X173650000Y-104325000D01*
G75*
G02*
X173875000Y-104550000I0J-225000D01*
G01*
X173875000Y-105050000D01*
G75*
G02*
X173650000Y-105275000I-225000J0D01*
G01*
X173200000Y-105275000D01*
G75*
G02*
X172975000Y-105050000I0J225000D01*
G01*
G37*
G36*
G01*
X174525000Y-105050000D02*
X174525000Y-104550000D01*
G75*
G02*
X174750000Y-104325000I225000J0D01*
G01*
X175200000Y-104325000D01*
G75*
G02*
X175425000Y-104550000I0J-225000D01*
G01*
X175425000Y-105050000D01*
G75*
G02*
X175200000Y-105275000I-225000J0D01*
G01*
X174750000Y-105275000D01*
G75*
G02*
X174525000Y-105050000I0J225000D01*
G01*
G37*
%TD*%
%TO.C,C11*%
G36*
G01*
X172750000Y-93925000D02*
X172750000Y-92975000D01*
G75*
G02*
X173000000Y-92725000I250000J0D01*
G01*
X173500000Y-92725000D01*
G75*
G02*
X173750000Y-92975000I0J-250000D01*
G01*
X173750000Y-93925000D01*
G75*
G02*
X173500000Y-94175000I-250000J0D01*
G01*
X173000000Y-94175000D01*
G75*
G02*
X172750000Y-93925000I0J250000D01*
G01*
G37*
G36*
G01*
X174650000Y-93925000D02*
X174650000Y-92975000D01*
G75*
G02*
X174900000Y-92725000I250000J0D01*
G01*
X175400000Y-92725000D01*
G75*
G02*
X175650000Y-92975000I0J-250000D01*
G01*
X175650000Y-93925000D01*
G75*
G02*
X175400000Y-94175000I-250000J0D01*
G01*
X174900000Y-94175000D01*
G75*
G02*
X174650000Y-93925000I0J250000D01*
G01*
G37*
%TD*%
%TO.C,C12*%
G36*
G01*
X172750000Y-107025000D02*
X172750000Y-106075000D01*
G75*
G02*
X173000000Y-105825000I250000J0D01*
G01*
X173500000Y-105825000D01*
G75*
G02*
X173750000Y-106075000I0J-250000D01*
G01*
X173750000Y-107025000D01*
G75*
G02*
X173500000Y-107275000I-250000J0D01*
G01*
X173000000Y-107275000D01*
G75*
G02*
X172750000Y-107025000I0J250000D01*
G01*
G37*
G36*
G01*
X174650000Y-107025000D02*
X174650000Y-106075000D01*
G75*
G02*
X174900000Y-105825000I250000J0D01*
G01*
X175400000Y-105825000D01*
G75*
G02*
X175650000Y-106075000I0J-250000D01*
G01*
X175650000Y-107025000D01*
G75*
G02*
X175400000Y-107275000I-250000J0D01*
G01*
X174900000Y-107275000D01*
G75*
G02*
X174650000Y-107025000I0J250000D01*
G01*
G37*
%TD*%
%TO.C,C13*%
G36*
G01*
X187525000Y-98550000D02*
X188475000Y-98550000D01*
G75*
G02*
X188725000Y-98800000I0J-250000D01*
G01*
X188725000Y-99300000D01*
G75*
G02*
X188475000Y-99550000I-250000J0D01*
G01*
X187525000Y-99550000D01*
G75*
G02*
X187275000Y-99300000I0J250000D01*
G01*
X187275000Y-98800000D01*
G75*
G02*
X187525000Y-98550000I250000J0D01*
G01*
G37*
G36*
G01*
X187525000Y-100450000D02*
X188475000Y-100450000D01*
G75*
G02*
X188725000Y-100700000I0J-250000D01*
G01*
X188725000Y-101200000D01*
G75*
G02*
X188475000Y-101450000I-250000J0D01*
G01*
X187525000Y-101450000D01*
G75*
G02*
X187275000Y-101200000I0J250000D01*
G01*
X187275000Y-100700000D01*
G75*
G02*
X187525000Y-100450000I250000J0D01*
G01*
G37*
%TD*%
%TO.C,C14*%
G36*
G01*
X188275000Y-119550000D02*
X187325000Y-119550000D01*
G75*
G02*
X187075000Y-119300000I0J250000D01*
G01*
X187075000Y-118800000D01*
G75*
G02*
X187325000Y-118550000I250000J0D01*
G01*
X188275000Y-118550000D01*
G75*
G02*
X188525000Y-118800000I0J-250000D01*
G01*
X188525000Y-119300000D01*
G75*
G02*
X188275000Y-119550000I-250000J0D01*
G01*
G37*
G36*
G01*
X188275000Y-121450000D02*
X187325000Y-121450000D01*
G75*
G02*
X187075000Y-121200000I0J250000D01*
G01*
X187075000Y-120700000D01*
G75*
G02*
X187325000Y-120450000I250000J0D01*
G01*
X188275000Y-120450000D01*
G75*
G02*
X188525000Y-120700000I0J-250000D01*
G01*
X188525000Y-121200000D01*
G75*
G02*
X188275000Y-121450000I-250000J0D01*
G01*
G37*
%TD*%
%TO.C,C16*%
G36*
G01*
X155775000Y-118550000D02*
X154825000Y-118550000D01*
G75*
G02*
X154575000Y-118300000I0J250000D01*
G01*
X154575000Y-117800000D01*
G75*
G02*
X154825000Y-117550000I250000J0D01*
G01*
X155775000Y-117550000D01*
G75*
G02*
X156025000Y-117800000I0J-250000D01*
G01*
X156025000Y-118300000D01*
G75*
G02*
X155775000Y-118550000I-250000J0D01*
G01*
G37*
G36*
G01*
X155775000Y-120450000D02*
X154825000Y-120450000D01*
G75*
G02*
X154575000Y-120200000I0J250000D01*
G01*
X154575000Y-119700000D01*
G75*
G02*
X154825000Y-119450000I250000J0D01*
G01*
X155775000Y-119450000D01*
G75*
G02*
X156025000Y-119700000I0J-250000D01*
G01*
X156025000Y-120200000D01*
G75*
G02*
X155775000Y-120450000I-250000J0D01*
G01*
G37*
%TD*%
%TO.C,C17*%
G36*
G01*
X182150000Y-120325000D02*
X182650000Y-120325000D01*
G75*
G02*
X182875000Y-120550000I0J-225000D01*
G01*
X182875000Y-121000000D01*
G75*
G02*
X182650000Y-121225000I-225000J0D01*
G01*
X182150000Y-121225000D01*
G75*
G02*
X181925000Y-121000000I0J225000D01*
G01*
X181925000Y-120550000D01*
G75*
G02*
X182150000Y-120325000I225000J0D01*
G01*
G37*
G36*
G01*
X182150000Y-118775000D02*
X182650000Y-118775000D01*
G75*
G02*
X182875000Y-119000000I0J-225000D01*
G01*
X182875000Y-119450000D01*
G75*
G02*
X182650000Y-119675000I-225000J0D01*
G01*
X182150000Y-119675000D01*
G75*
G02*
X181925000Y-119450000I0J225000D01*
G01*
X181925000Y-119000000D01*
G75*
G02*
X182150000Y-118775000I225000J0D01*
G01*
G37*
%TD*%
%TO.C,C18*%
G36*
G01*
X173525000Y-120450000D02*
X174475000Y-120450000D01*
G75*
G02*
X174725000Y-120700000I0J-250000D01*
G01*
X174725000Y-121200000D01*
G75*
G02*
X174475000Y-121450000I-250000J0D01*
G01*
X173525000Y-121450000D01*
G75*
G02*
X173275000Y-121200000I0J250000D01*
G01*
X173275000Y-120700000D01*
G75*
G02*
X173525000Y-120450000I250000J0D01*
G01*
G37*
G36*
G01*
X173525000Y-118550000D02*
X174475000Y-118550000D01*
G75*
G02*
X174725000Y-118800000I0J-250000D01*
G01*
X174725000Y-119300000D01*
G75*
G02*
X174475000Y-119550000I-250000J0D01*
G01*
X173525000Y-119550000D01*
G75*
G02*
X173275000Y-119300000I0J250000D01*
G01*
X173275000Y-118800000D01*
G75*
G02*
X173525000Y-118550000I250000J0D01*
G01*
G37*
%TD*%
%TO.C,C19*%
G36*
G01*
X175525000Y-118550000D02*
X176475000Y-118550000D01*
G75*
G02*
X176725000Y-118800000I0J-250000D01*
G01*
X176725000Y-119300000D01*
G75*
G02*
X176475000Y-119550000I-250000J0D01*
G01*
X175525000Y-119550000D01*
G75*
G02*
X175275000Y-119300000I0J250000D01*
G01*
X175275000Y-118800000D01*
G75*
G02*
X175525000Y-118550000I250000J0D01*
G01*
G37*
G36*
G01*
X175525000Y-120450000D02*
X176475000Y-120450000D01*
G75*
G02*
X176725000Y-120700000I0J-250000D01*
G01*
X176725000Y-121200000D01*
G75*
G02*
X176475000Y-121450000I-250000J0D01*
G01*
X175525000Y-121450000D01*
G75*
G02*
X175275000Y-121200000I0J250000D01*
G01*
X175275000Y-120700000D01*
G75*
G02*
X175525000Y-120450000I250000J0D01*
G01*
G37*
%TD*%
%TO.C,C20*%
G36*
G01*
X164330000Y-95825000D02*
X164830000Y-95825000D01*
G75*
G02*
X165055000Y-96050000I0J-225000D01*
G01*
X165055000Y-96500000D01*
G75*
G02*
X164830000Y-96725000I-225000J0D01*
G01*
X164330000Y-96725000D01*
G75*
G02*
X164105000Y-96500000I0J225000D01*
G01*
X164105000Y-96050000D01*
G75*
G02*
X164330000Y-95825000I225000J0D01*
G01*
G37*
G36*
G01*
X164330000Y-94275000D02*
X164830000Y-94275000D01*
G75*
G02*
X165055000Y-94500000I0J-225000D01*
G01*
X165055000Y-94950000D01*
G75*
G02*
X164830000Y-95175000I-225000J0D01*
G01*
X164330000Y-95175000D01*
G75*
G02*
X164105000Y-94950000I0J225000D01*
G01*
X164105000Y-94500000D01*
G75*
G02*
X164330000Y-94275000I225000J0D01*
G01*
G37*
%TD*%
%TO.C,C21*%
G36*
G01*
X162595000Y-98140000D02*
X162595000Y-97640000D01*
G75*
G02*
X162820000Y-97415000I225000J0D01*
G01*
X163270000Y-97415000D01*
G75*
G02*
X163495000Y-97640000I0J-225000D01*
G01*
X163495000Y-98140000D01*
G75*
G02*
X163270000Y-98365000I-225000J0D01*
G01*
X162820000Y-98365000D01*
G75*
G02*
X162595000Y-98140000I0J225000D01*
G01*
G37*
G36*
G01*
X164145000Y-98140000D02*
X164145000Y-97640000D01*
G75*
G02*
X164370000Y-97415000I225000J0D01*
G01*
X164820000Y-97415000D01*
G75*
G02*
X165045000Y-97640000I0J-225000D01*
G01*
X165045000Y-98140000D01*
G75*
G02*
X164820000Y-98365000I-225000J0D01*
G01*
X164370000Y-98365000D01*
G75*
G02*
X164145000Y-98140000I0J225000D01*
G01*
G37*
%TD*%
%TO.C,C22*%
G36*
G01*
X164830000Y-105725000D02*
X164330000Y-105725000D01*
G75*
G02*
X164105000Y-105500000I0J225000D01*
G01*
X164105000Y-105050000D01*
G75*
G02*
X164330000Y-104825000I225000J0D01*
G01*
X164830000Y-104825000D01*
G75*
G02*
X165055000Y-105050000I0J-225000D01*
G01*
X165055000Y-105500000D01*
G75*
G02*
X164830000Y-105725000I-225000J0D01*
G01*
G37*
G36*
G01*
X164830000Y-104175000D02*
X164330000Y-104175000D01*
G75*
G02*
X164105000Y-103950000I0J225000D01*
G01*
X164105000Y-103500000D01*
G75*
G02*
X164330000Y-103275000I225000J0D01*
G01*
X164830000Y-103275000D01*
G75*
G02*
X165055000Y-103500000I0J-225000D01*
G01*
X165055000Y-103950000D01*
G75*
G02*
X164830000Y-104175000I-225000J0D01*
G01*
G37*
%TD*%
%TO.C,C24*%
G36*
G01*
X174550000Y-86500000D02*
X174550000Y-87900000D01*
G75*
G02*
X174300000Y-88150000I-250000J0D01*
G01*
X170650000Y-88150000D01*
G75*
G02*
X170400000Y-87900000I0J250000D01*
G01*
X170400000Y-86500000D01*
G75*
G02*
X170650000Y-86250000I250000J0D01*
G01*
X174300000Y-86250000D01*
G75*
G02*
X174550000Y-86500000I0J-250000D01*
G01*
G37*
G36*
G01*
X167600000Y-86500000D02*
X167600000Y-87900000D01*
G75*
G02*
X167350000Y-88150000I-250000J0D01*
G01*
X163700000Y-88150000D01*
G75*
G02*
X163450000Y-87900000I0J250000D01*
G01*
X163450000Y-86500000D01*
G75*
G02*
X163700000Y-86250000I250000J0D01*
G01*
X167350000Y-86250000D01*
G75*
G02*
X167600000Y-86500000I0J-250000D01*
G01*
G37*
%TD*%
%TO.C,C36*%
G36*
G01*
X167600000Y-112100000D02*
X167600000Y-113500000D01*
G75*
G02*
X167350000Y-113750000I-250000J0D01*
G01*
X163700000Y-113750000D01*
G75*
G02*
X163450000Y-113500000I0J250000D01*
G01*
X163450000Y-112100000D01*
G75*
G02*
X163700000Y-111850000I250000J0D01*
G01*
X167350000Y-111850000D01*
G75*
G02*
X167600000Y-112100000I0J-250000D01*
G01*
G37*
G36*
G01*
X174550000Y-112100000D02*
X174550000Y-113500000D01*
G75*
G02*
X174300000Y-113750000I-250000J0D01*
G01*
X170650000Y-113750000D01*
G75*
G02*
X170400000Y-113500000I0J250000D01*
G01*
X170400000Y-112100000D01*
G75*
G02*
X170650000Y-111850000I250000J0D01*
G01*
X174300000Y-111850000D01*
G75*
G02*
X174550000Y-112100000I0J-250000D01*
G01*
G37*
%TD*%
D11*
%TO.C,D1*%
X178250000Y-123250000D03*
X180350000Y-123250000D03*
%TD*%
D12*
%TO.C,D2*%
X172000000Y-121050000D03*
X172000000Y-118950000D03*
%TD*%
D13*
%TO.C,L1*%
X183750000Y-89600000D03*
X178250000Y-89600000D03*
%TD*%
%TO.C,L2*%
X178250000Y-110400000D03*
X183750000Y-110400000D03*
%TD*%
%TO.C,L3*%
X183750000Y-96500000D03*
X178250000Y-96500000D03*
%TD*%
%TO.C,L4*%
X178250000Y-103500000D03*
X183750000Y-103500000D03*
%TD*%
%TO.C,R1*%
G36*
G01*
X186925000Y-117575000D02*
X186925000Y-117025000D01*
G75*
G02*
X187125000Y-116825000I200000J0D01*
G01*
X187525000Y-116825000D01*
G75*
G02*
X187725000Y-117025000I0J-200000D01*
G01*
X187725000Y-117575000D01*
G75*
G02*
X187525000Y-117775000I-200000J0D01*
G01*
X187125000Y-117775000D01*
G75*
G02*
X186925000Y-117575000I0J200000D01*
G01*
G37*
G36*
G01*
X185275000Y-117575000D02*
X185275000Y-117025000D01*
G75*
G02*
X185475000Y-116825000I200000J0D01*
G01*
X185875000Y-116825000D01*
G75*
G02*
X186075000Y-117025000I0J-200000D01*
G01*
X186075000Y-117575000D01*
G75*
G02*
X185875000Y-117775000I-200000J0D01*
G01*
X185475000Y-117775000D01*
G75*
G02*
X185275000Y-117575000I0J200000D01*
G01*
G37*
%TD*%
%TO.C,R2*%
G36*
G01*
X182275000Y-117575000D02*
X182275000Y-117025000D01*
G75*
G02*
X182475000Y-116825000I200000J0D01*
G01*
X182875000Y-116825000D01*
G75*
G02*
X183075000Y-117025000I0J-200000D01*
G01*
X183075000Y-117575000D01*
G75*
G02*
X182875000Y-117775000I-200000J0D01*
G01*
X182475000Y-117775000D01*
G75*
G02*
X182275000Y-117575000I0J200000D01*
G01*
G37*
G36*
G01*
X183925000Y-117575000D02*
X183925000Y-117025000D01*
G75*
G02*
X184125000Y-116825000I200000J0D01*
G01*
X184525000Y-116825000D01*
G75*
G02*
X184725000Y-117025000I0J-200000D01*
G01*
X184725000Y-117575000D01*
G75*
G02*
X184525000Y-117775000I-200000J0D01*
G01*
X184125000Y-117775000D01*
G75*
G02*
X183925000Y-117575000I0J200000D01*
G01*
G37*
%TD*%
%TO.C,R15*%
G36*
G01*
X163355000Y-96725000D02*
X162805000Y-96725000D01*
G75*
G02*
X162605000Y-96525000I0J200000D01*
G01*
X162605000Y-96125000D01*
G75*
G02*
X162805000Y-95925000I200000J0D01*
G01*
X163355000Y-95925000D01*
G75*
G02*
X163555000Y-96125000I0J-200000D01*
G01*
X163555000Y-96525000D01*
G75*
G02*
X163355000Y-96725000I-200000J0D01*
G01*
G37*
G36*
G01*
X163355000Y-95075000D02*
X162805000Y-95075000D01*
G75*
G02*
X162605000Y-94875000I0J200000D01*
G01*
X162605000Y-94475000D01*
G75*
G02*
X162805000Y-94275000I200000J0D01*
G01*
X163355000Y-94275000D01*
G75*
G02*
X163555000Y-94475000I0J-200000D01*
G01*
X163555000Y-94875000D01*
G75*
G02*
X163355000Y-95075000I-200000J0D01*
G01*
G37*
%TD*%
%TO.C,R23*%
G36*
G01*
X163375000Y-104075000D02*
X162825000Y-104075000D01*
G75*
G02*
X162625000Y-103875000I0J200000D01*
G01*
X162625000Y-103475000D01*
G75*
G02*
X162825000Y-103275000I200000J0D01*
G01*
X163375000Y-103275000D01*
G75*
G02*
X163575000Y-103475000I0J-200000D01*
G01*
X163575000Y-103875000D01*
G75*
G02*
X163375000Y-104075000I-200000J0D01*
G01*
G37*
G36*
G01*
X163375000Y-105725000D02*
X162825000Y-105725000D01*
G75*
G02*
X162625000Y-105525000I0J200000D01*
G01*
X162625000Y-105125000D01*
G75*
G02*
X162825000Y-104925000I200000J0D01*
G01*
X163375000Y-104925000D01*
G75*
G02*
X163575000Y-105125000I0J-200000D01*
G01*
X163575000Y-105525000D01*
G75*
G02*
X163375000Y-105725000I-200000J0D01*
G01*
G37*
%TD*%
D14*
%TO.C,U1*%
X166150000Y-95775000D03*
X166150000Y-96425000D03*
X166150000Y-97075000D03*
X166150000Y-97725000D03*
X166150000Y-98375000D03*
X166150000Y-99025000D03*
X166150000Y-99675000D03*
X166150000Y-100325000D03*
X166150000Y-100975000D03*
X166150000Y-101625000D03*
X166150000Y-102275000D03*
X166150000Y-102925000D03*
X166150000Y-103575000D03*
X166150000Y-104225000D03*
X171850000Y-104225000D03*
X171850000Y-103575000D03*
X171850000Y-102925000D03*
X171850000Y-102275000D03*
X171850000Y-101625000D03*
X171850000Y-100975000D03*
X171850000Y-100325000D03*
X171850000Y-99675000D03*
X171850000Y-99025000D03*
X171850000Y-98375000D03*
X171850000Y-97725000D03*
X171850000Y-97075000D03*
X171850000Y-96425000D03*
X171850000Y-95775000D03*
D15*
X169000000Y-100000000D03*
%TD*%
D16*
%TO.C,U2*%
X184050000Y-121100000D03*
X185000000Y-121100000D03*
X185950000Y-121100000D03*
X185950000Y-118900000D03*
X184050000Y-118900000D03*
X185000000Y-118900000D03*
%TD*%
D17*
%TO.C,U3*%
X157000000Y-118050000D03*
X157000000Y-119950000D03*
X159000000Y-119000000D03*
%TD*%
D18*
%TO.C,J5*%
X191500000Y-101000000D03*
G36*
G01*
X199000000Y-100000000D02*
X199000000Y-102000000D01*
G75*
G02*
X198250000Y-102750000I-750000J0D01*
G01*
X196750000Y-102750000D01*
G75*
G02*
X196000000Y-102000000I0J750000D01*
G01*
X196000000Y-100000000D01*
G75*
G02*
X196750000Y-99250000I750000J0D01*
G01*
X198250000Y-99250000D01*
G75*
G02*
X199000000Y-100000000I0J-750000D01*
G01*
G37*
G36*
G01*
X196250000Y-95425000D02*
X196250000Y-97175000D01*
G75*
G02*
X195375000Y-98050000I-875000J0D01*
G01*
X193625000Y-98050000D01*
G75*
G02*
X192750000Y-97175000I0J875000D01*
G01*
X192750000Y-95425000D01*
G75*
G02*
X193625000Y-94550000I875000J0D01*
G01*
X195375000Y-94550000D01*
G75*
G02*
X196250000Y-95425000I0J-875000D01*
G01*
G37*
%TD*%
D19*
%TO.C,LS2*%
X196000000Y-85000000D03*
D20*
X196000000Y-90000000D03*
%TD*%
%TO.C,LS1*%
X195500000Y-115000000D03*
D19*
X195500000Y-110000000D03*
%TD*%
D21*
%TO.C,J1*%
X154100000Y-111430000D03*
D22*
X154100000Y-108890000D03*
X154100000Y-106350000D03*
X154100000Y-103810000D03*
X154100000Y-101270000D03*
X154100000Y-98730000D03*
X154100000Y-96190000D03*
X154100000Y-93650000D03*
X154100000Y-91110000D03*
X154100000Y-88570000D03*
%TD*%
%TO.C,R3*%
G36*
G01*
X163725000Y-89225000D02*
X163725000Y-89775000D01*
G75*
G02*
X163525000Y-89975000I-200000J0D01*
G01*
X163125000Y-89975000D01*
G75*
G02*
X162925000Y-89775000I0J200000D01*
G01*
X162925000Y-89225000D01*
G75*
G02*
X163125000Y-89025000I200000J0D01*
G01*
X163525000Y-89025000D01*
G75*
G02*
X163725000Y-89225000I0J-200000D01*
G01*
G37*
G36*
G01*
X162075000Y-89225000D02*
X162075000Y-89775000D01*
G75*
G02*
X161875000Y-89975000I-200000J0D01*
G01*
X161475000Y-89975000D01*
G75*
G02*
X161275000Y-89775000I0J200000D01*
G01*
X161275000Y-89225000D01*
G75*
G02*
X161475000Y-89025000I200000J0D01*
G01*
X161875000Y-89025000D01*
G75*
G02*
X162075000Y-89225000I0J-200000D01*
G01*
G37*
%TD*%
%TO.C,R4*%
G36*
G01*
X162925000Y-91275000D02*
X162925000Y-90725000D01*
G75*
G02*
X163125000Y-90525000I200000J0D01*
G01*
X163525000Y-90525000D01*
G75*
G02*
X163725000Y-90725000I0J-200000D01*
G01*
X163725000Y-91275000D01*
G75*
G02*
X163525000Y-91475000I-200000J0D01*
G01*
X163125000Y-91475000D01*
G75*
G02*
X162925000Y-91275000I0J200000D01*
G01*
G37*
G36*
G01*
X161275000Y-91275000D02*
X161275000Y-90725000D01*
G75*
G02*
X161475000Y-90525000I200000J0D01*
G01*
X161875000Y-90525000D01*
G75*
G02*
X162075000Y-90725000I0J-200000D01*
G01*
X162075000Y-91275000D01*
G75*
G02*
X161875000Y-91475000I-200000J0D01*
G01*
X161475000Y-91475000D01*
G75*
G02*
X161275000Y-91275000I0J200000D01*
G01*
G37*
%TD*%
%TO.C,C15*%
G36*
G01*
X160225000Y-117550000D02*
X161175000Y-117550000D01*
G75*
G02*
X161425000Y-117800000I0J-250000D01*
G01*
X161425000Y-118300000D01*
G75*
G02*
X161175000Y-118550000I-250000J0D01*
G01*
X160225000Y-118550000D01*
G75*
G02*
X159975000Y-118300000I0J250000D01*
G01*
X159975000Y-117800000D01*
G75*
G02*
X160225000Y-117550000I250000J0D01*
G01*
G37*
G36*
G01*
X160225000Y-119450000D02*
X161175000Y-119450000D01*
G75*
G02*
X161425000Y-119700000I0J-250000D01*
G01*
X161425000Y-120200000D01*
G75*
G02*
X161175000Y-120450000I-250000J0D01*
G01*
X160225000Y-120450000D01*
G75*
G02*
X159975000Y-120200000I0J250000D01*
G01*
X159975000Y-119700000D01*
G75*
G02*
X160225000Y-119450000I250000J0D01*
G01*
G37*
%TD*%
M02*
