%TF.GenerationSoftware,KiCad,Pcbnew,5.1.9-73d0e3b20d~88~ubuntu20.04.1*%
%TF.CreationDate,2021-06-05T19:46:01+02:00*%
%TF.ProjectId,pooky,706f6f6b-792e-46b6-9963-61645f706362,v1.00*%
%TF.SameCoordinates,Original*%
%TF.FileFunction,Copper,L2,Inr*%
%TF.FilePolarity,Positive*%
%FSLAX46Y46*%
G04 Gerber Fmt 4.6, Leading zero omitted, Abs format (unit mm)*
G04 Created by KiCad (PCBNEW 5.1.9-73d0e3b20d~88~ubuntu20.04.1) date 2021-06-05 19:46:01*
%MOMM*%
%LPD*%
G01*
G04 APERTURE LIST*
%TA.AperFunction,ComponentPad*%
%ADD10C,0.600000*%
%TD*%
%TA.AperFunction,ComponentPad*%
%ADD11R,3.500000X3.500000*%
%TD*%
%TA.AperFunction,ComponentPad*%
%ADD12C,2.500000*%
%TD*%
%TA.AperFunction,ComponentPad*%
%ADD13R,2.500000X2.500000*%
%TD*%
%TA.AperFunction,ComponentPad*%
%ADD14R,1.700000X1.700000*%
%TD*%
%TA.AperFunction,ComponentPad*%
%ADD15O,1.700000X1.700000*%
%TD*%
%TA.AperFunction,ViaPad*%
%ADD16C,0.800000*%
%TD*%
%TA.AperFunction,Conductor*%
%ADD17C,0.254000*%
%TD*%
%TA.AperFunction,Conductor*%
%ADD18C,0.100000*%
%TD*%
G04 APERTURE END LIST*
D10*
%TO.N,GND*%
%TO.C,U1*%
X167700000Y-95550000D03*
X169000000Y-95550000D03*
X170300000Y-95550000D03*
X170300000Y-97330000D03*
X169000000Y-97330000D03*
X167700000Y-97330000D03*
X170300000Y-99110000D03*
X169000000Y-99110000D03*
X167700000Y-99110000D03*
X170300000Y-100890000D03*
X169000000Y-100890000D03*
X167700000Y-100890000D03*
X170300000Y-102670000D03*
X169000000Y-102670000D03*
X167700000Y-102670000D03*
X170300000Y-104450000D03*
X169000000Y-104450000D03*
X167700000Y-104450000D03*
%TD*%
D11*
%TO.N,GND*%
%TO.C,J5*%
X191500000Y-101000000D03*
%TO.N,vin*%
%TA.AperFunction,ComponentPad*%
G36*
G01*
X199000000Y-100000000D02*
X199000000Y-102000000D01*
G75*
G02*
X198250000Y-102750000I-750000J0D01*
G01*
X196750000Y-102750000D01*
G75*
G02*
X196000000Y-102000000I0J750000D01*
G01*
X196000000Y-100000000D01*
G75*
G02*
X196750000Y-99250000I750000J0D01*
G01*
X198250000Y-99250000D01*
G75*
G02*
X199000000Y-100000000I0J-750000D01*
G01*
G37*
%TD.AperFunction*%
%TO.N,N/C*%
%TA.AperFunction,ComponentPad*%
G36*
G01*
X196250000Y-95425000D02*
X196250000Y-97175000D01*
G75*
G02*
X195375000Y-98050000I-875000J0D01*
G01*
X193625000Y-98050000D01*
G75*
G02*
X192750000Y-97175000I0J875000D01*
G01*
X192750000Y-95425000D01*
G75*
G02*
X193625000Y-94550000I875000J0D01*
G01*
X195375000Y-94550000D01*
G75*
G02*
X196250000Y-95425000I0J-875000D01*
G01*
G37*
%TD.AperFunction*%
%TD*%
D12*
%TO.N,Net-(C5-Pad2)*%
%TO.C,LS2*%
X196000000Y-85000000D03*
D13*
%TO.N,Net-(C6-Pad1)*%
X196000000Y-90000000D03*
%TD*%
%TO.N,Net-(C8-Pad1)*%
%TO.C,LS1*%
X195500000Y-115000000D03*
D12*
%TO.N,Net-(C7-Pad2)*%
X195500000Y-110000000D03*
%TD*%
D14*
%TO.N,GND*%
%TO.C,J1*%
X154100000Y-111430000D03*
D15*
%TO.N,+5V*%
X154100000Y-108890000D03*
%TO.N,i2c_scl*%
X154100000Y-106350000D03*
%TO.N,i2c_sda*%
X154100000Y-103810000D03*
%TO.N,i2s1_sd*%
X154100000Y-101270000D03*
%TO.N,i2s1_ws*%
X154100000Y-98730000D03*
%TO.N,i2s1_ck*%
X154100000Y-96190000D03*
%TO.N,adc_vin*%
X154100000Y-93650000D03*
%TO.N,tas_pdn*%
X154100000Y-91110000D03*
%TO.N,tas_fault*%
X154100000Y-88570000D03*
%TD*%
D16*
%TO.N,GND*%
X164580000Y-93660000D03*
X164580000Y-106320000D03*
X189000000Y-119050000D03*
X177500000Y-123250000D03*
X174000000Y-121900000D03*
X155300000Y-117100000D03*
X163100000Y-106320000D03*
X162000000Y-97890000D03*
X168199982Y-87200000D03*
X176249992Y-93440000D03*
X176000000Y-95200000D03*
X176250000Y-106550000D03*
X176030000Y-104800000D03*
X186960000Y-107790001D03*
X186960000Y-92200000D03*
X160700000Y-120900000D03*
X164200000Y-91000000D03*
X185000000Y-119969998D03*
X188200000Y-117300000D03*
X176000000Y-121900000D03*
X168000012Y-112800000D03*
X163000000Y-87200000D03*
X163000000Y-112800000D03*
%TO.N,vin*%
X169800000Y-87200000D03*
X172150000Y-93450000D03*
X172390000Y-95200000D03*
X172370000Y-104800000D03*
X172160000Y-106550000D03*
X171600000Y-95200000D03*
X171570000Y-104800000D03*
X166200000Y-89500000D03*
X189000000Y-120950000D03*
X185000000Y-122100000D03*
X170000000Y-112800000D03*
X175000000Y-112800000D03*
X175000000Y-87200000D03*
%TO.N,+3V3*%
X163080000Y-93670000D03*
X155300000Y-120900000D03*
%TD*%
D17*
%TO.N,GND*%
X198259659Y-75688625D02*
X198509429Y-75764035D01*
X198739792Y-75886522D01*
X198941980Y-76051422D01*
X199108286Y-76252450D01*
X199232378Y-76481954D01*
X199309531Y-76731195D01*
X199340000Y-77021088D01*
X199340000Y-99150675D01*
X199231515Y-99018485D01*
X199021171Y-98845860D01*
X198781192Y-98717589D01*
X198520799Y-98638599D01*
X198250000Y-98611928D01*
X196750000Y-98611928D01*
X196479201Y-98638599D01*
X196218808Y-98717589D01*
X195978829Y-98845860D01*
X195768485Y-99018485D01*
X195595860Y-99228829D01*
X195467589Y-99468808D01*
X195388599Y-99729201D01*
X195361928Y-100000000D01*
X195361928Y-102000000D01*
X195388599Y-102270799D01*
X195467589Y-102531192D01*
X195595860Y-102771171D01*
X195768485Y-102981515D01*
X195978829Y-103154140D01*
X196218808Y-103282411D01*
X196479201Y-103361401D01*
X196750000Y-103388072D01*
X198250000Y-103388072D01*
X198520799Y-103361401D01*
X198781192Y-103282411D01*
X199021171Y-103154140D01*
X199231515Y-102981515D01*
X199340001Y-102849325D01*
X199340001Y-122967711D01*
X199311375Y-123259660D01*
X199235965Y-123509429D01*
X199113477Y-123739794D01*
X198948579Y-123941979D01*
X198747546Y-124108288D01*
X198518046Y-124232378D01*
X198268805Y-124309531D01*
X197978911Y-124340000D01*
X152032279Y-124340000D01*
X151740340Y-124311375D01*
X151490571Y-124235965D01*
X151260206Y-124113477D01*
X151058021Y-123948579D01*
X150891712Y-123747546D01*
X150767622Y-123518046D01*
X150690469Y-123268805D01*
X150660000Y-122978911D01*
X150660000Y-121998061D01*
X183965000Y-121998061D01*
X183965000Y-122201939D01*
X184004774Y-122401898D01*
X184082795Y-122590256D01*
X184196063Y-122759774D01*
X184340226Y-122903937D01*
X184509744Y-123017205D01*
X184698102Y-123095226D01*
X184898061Y-123135000D01*
X185101939Y-123135000D01*
X185301898Y-123095226D01*
X185490256Y-123017205D01*
X185659774Y-122903937D01*
X185803937Y-122759774D01*
X185917205Y-122590256D01*
X185995226Y-122401898D01*
X186035000Y-122201939D01*
X186035000Y-121998061D01*
X185995226Y-121798102D01*
X185917205Y-121609744D01*
X185803937Y-121440226D01*
X185659774Y-121296063D01*
X185490256Y-121182795D01*
X185301898Y-121104774D01*
X185101939Y-121065000D01*
X184898061Y-121065000D01*
X184698102Y-121104774D01*
X184509744Y-121182795D01*
X184340226Y-121296063D01*
X184196063Y-121440226D01*
X184082795Y-121609744D01*
X184004774Y-121798102D01*
X183965000Y-121998061D01*
X150660000Y-121998061D01*
X150660000Y-120798061D01*
X154265000Y-120798061D01*
X154265000Y-121001939D01*
X154304774Y-121201898D01*
X154382795Y-121390256D01*
X154496063Y-121559774D01*
X154640226Y-121703937D01*
X154809744Y-121817205D01*
X154998102Y-121895226D01*
X155198061Y-121935000D01*
X155401939Y-121935000D01*
X155601898Y-121895226D01*
X155790256Y-121817205D01*
X155959774Y-121703937D01*
X156103937Y-121559774D01*
X156217205Y-121390256D01*
X156295226Y-121201898D01*
X156335000Y-121001939D01*
X156335000Y-120848061D01*
X187965000Y-120848061D01*
X187965000Y-121051939D01*
X188004774Y-121251898D01*
X188082795Y-121440256D01*
X188196063Y-121609774D01*
X188340226Y-121753937D01*
X188509744Y-121867205D01*
X188698102Y-121945226D01*
X188898061Y-121985000D01*
X189101939Y-121985000D01*
X189301898Y-121945226D01*
X189490256Y-121867205D01*
X189659774Y-121753937D01*
X189803937Y-121609774D01*
X189917205Y-121440256D01*
X189995226Y-121251898D01*
X190035000Y-121051939D01*
X190035000Y-120848061D01*
X189995226Y-120648102D01*
X189917205Y-120459744D01*
X189803937Y-120290226D01*
X189659774Y-120146063D01*
X189490256Y-120032795D01*
X189301898Y-119954774D01*
X189101939Y-119915000D01*
X188898061Y-119915000D01*
X188698102Y-119954774D01*
X188509744Y-120032795D01*
X188340226Y-120146063D01*
X188196063Y-120290226D01*
X188082795Y-120459744D01*
X188004774Y-120648102D01*
X187965000Y-120848061D01*
X156335000Y-120848061D01*
X156335000Y-120798061D01*
X156295226Y-120598102D01*
X156217205Y-120409744D01*
X156103937Y-120240226D01*
X155959774Y-120096063D01*
X155790256Y-119982795D01*
X155601898Y-119904774D01*
X155401939Y-119865000D01*
X155198061Y-119865000D01*
X154998102Y-119904774D01*
X154809744Y-119982795D01*
X154640226Y-120096063D01*
X154496063Y-120240226D01*
X154382795Y-120409744D01*
X154304774Y-120598102D01*
X154265000Y-120798061D01*
X150660000Y-120798061D01*
X150660000Y-112280000D01*
X152611928Y-112280000D01*
X152624188Y-112404482D01*
X152660498Y-112524180D01*
X152719463Y-112634494D01*
X152798815Y-112731185D01*
X152895506Y-112810537D01*
X153005820Y-112869502D01*
X153125518Y-112905812D01*
X153250000Y-112918072D01*
X153814250Y-112915000D01*
X153973000Y-112756250D01*
X153973000Y-111557000D01*
X154227000Y-111557000D01*
X154227000Y-112756250D01*
X154385750Y-112915000D01*
X154950000Y-112918072D01*
X155074482Y-112905812D01*
X155194180Y-112869502D01*
X155304494Y-112810537D01*
X155401185Y-112731185D01*
X155428369Y-112698061D01*
X168965000Y-112698061D01*
X168965000Y-112901939D01*
X169004774Y-113101898D01*
X169082795Y-113290256D01*
X169196063Y-113459774D01*
X169340226Y-113603937D01*
X169509744Y-113717205D01*
X169698102Y-113795226D01*
X169898061Y-113835000D01*
X170101939Y-113835000D01*
X170301898Y-113795226D01*
X170490256Y-113717205D01*
X170659774Y-113603937D01*
X170803937Y-113459774D01*
X170917205Y-113290256D01*
X170995226Y-113101898D01*
X171035000Y-112901939D01*
X171035000Y-112698061D01*
X173965000Y-112698061D01*
X173965000Y-112901939D01*
X174004774Y-113101898D01*
X174082795Y-113290256D01*
X174196063Y-113459774D01*
X174340226Y-113603937D01*
X174509744Y-113717205D01*
X174698102Y-113795226D01*
X174898061Y-113835000D01*
X175101939Y-113835000D01*
X175301898Y-113795226D01*
X175411082Y-113750000D01*
X193611928Y-113750000D01*
X193611928Y-116250000D01*
X193624188Y-116374482D01*
X193660498Y-116494180D01*
X193719463Y-116604494D01*
X193798815Y-116701185D01*
X193895506Y-116780537D01*
X194005820Y-116839502D01*
X194125518Y-116875812D01*
X194250000Y-116888072D01*
X196750000Y-116888072D01*
X196874482Y-116875812D01*
X196994180Y-116839502D01*
X197104494Y-116780537D01*
X197201185Y-116701185D01*
X197280537Y-116604494D01*
X197339502Y-116494180D01*
X197375812Y-116374482D01*
X197388072Y-116250000D01*
X197388072Y-113750000D01*
X197375812Y-113625518D01*
X197339502Y-113505820D01*
X197280537Y-113395506D01*
X197201185Y-113298815D01*
X197104494Y-113219463D01*
X196994180Y-113160498D01*
X196874482Y-113124188D01*
X196750000Y-113111928D01*
X194250000Y-113111928D01*
X194125518Y-113124188D01*
X194005820Y-113160498D01*
X193895506Y-113219463D01*
X193798815Y-113298815D01*
X193719463Y-113395506D01*
X193660498Y-113505820D01*
X193624188Y-113625518D01*
X193611928Y-113750000D01*
X175411082Y-113750000D01*
X175490256Y-113717205D01*
X175659774Y-113603937D01*
X175803937Y-113459774D01*
X175917205Y-113290256D01*
X175995226Y-113101898D01*
X176035000Y-112901939D01*
X176035000Y-112698061D01*
X175995226Y-112498102D01*
X175917205Y-112309744D01*
X175803937Y-112140226D01*
X175659774Y-111996063D01*
X175490256Y-111882795D01*
X175301898Y-111804774D01*
X175101939Y-111765000D01*
X174898061Y-111765000D01*
X174698102Y-111804774D01*
X174509744Y-111882795D01*
X174340226Y-111996063D01*
X174196063Y-112140226D01*
X174082795Y-112309744D01*
X174004774Y-112498102D01*
X173965000Y-112698061D01*
X171035000Y-112698061D01*
X170995226Y-112498102D01*
X170917205Y-112309744D01*
X170803937Y-112140226D01*
X170659774Y-111996063D01*
X170490256Y-111882795D01*
X170301898Y-111804774D01*
X170101939Y-111765000D01*
X169898061Y-111765000D01*
X169698102Y-111804774D01*
X169509744Y-111882795D01*
X169340226Y-111996063D01*
X169196063Y-112140226D01*
X169082795Y-112309744D01*
X169004774Y-112498102D01*
X168965000Y-112698061D01*
X155428369Y-112698061D01*
X155480537Y-112634494D01*
X155539502Y-112524180D01*
X155575812Y-112404482D01*
X155588072Y-112280000D01*
X155585000Y-111715750D01*
X155426250Y-111557000D01*
X154227000Y-111557000D01*
X153973000Y-111557000D01*
X152773750Y-111557000D01*
X152615000Y-111715750D01*
X152611928Y-112280000D01*
X150660000Y-112280000D01*
X150660000Y-110580000D01*
X152611928Y-110580000D01*
X152615000Y-111144250D01*
X152773750Y-111303000D01*
X153973000Y-111303000D01*
X153973000Y-111283000D01*
X154227000Y-111283000D01*
X154227000Y-111303000D01*
X155426250Y-111303000D01*
X155585000Y-111144250D01*
X155588072Y-110580000D01*
X155575812Y-110455518D01*
X155539502Y-110335820D01*
X155480537Y-110225506D01*
X155401185Y-110128815D01*
X155304494Y-110049463D01*
X155194180Y-109990498D01*
X155121620Y-109968487D01*
X155253475Y-109836632D01*
X155268367Y-109814344D01*
X193615000Y-109814344D01*
X193615000Y-110185656D01*
X193687439Y-110549834D01*
X193829534Y-110892882D01*
X194035825Y-111201618D01*
X194298382Y-111464175D01*
X194607118Y-111670466D01*
X194950166Y-111812561D01*
X195314344Y-111885000D01*
X195685656Y-111885000D01*
X196049834Y-111812561D01*
X196392882Y-111670466D01*
X196701618Y-111464175D01*
X196964175Y-111201618D01*
X197170466Y-110892882D01*
X197312561Y-110549834D01*
X197385000Y-110185656D01*
X197385000Y-109814344D01*
X197312561Y-109450166D01*
X197170466Y-109107118D01*
X196964175Y-108798382D01*
X196701618Y-108535825D01*
X196392882Y-108329534D01*
X196049834Y-108187439D01*
X195685656Y-108115000D01*
X195314344Y-108115000D01*
X194950166Y-108187439D01*
X194607118Y-108329534D01*
X194298382Y-108535825D01*
X194035825Y-108798382D01*
X193829534Y-109107118D01*
X193687439Y-109450166D01*
X193615000Y-109814344D01*
X155268367Y-109814344D01*
X155415990Y-109593411D01*
X155527932Y-109323158D01*
X155585000Y-109036260D01*
X155585000Y-108743740D01*
X155527932Y-108456842D01*
X155415990Y-108186589D01*
X155253475Y-107943368D01*
X155046632Y-107736525D01*
X154872240Y-107620000D01*
X155046632Y-107503475D01*
X155253475Y-107296632D01*
X155415990Y-107053411D01*
X155527932Y-106783158D01*
X155585000Y-106496260D01*
X155585000Y-106203740D01*
X155527932Y-105916842D01*
X155415990Y-105646589D01*
X155253475Y-105403368D01*
X155046632Y-105196525D01*
X154872240Y-105080000D01*
X155046632Y-104963475D01*
X155253475Y-104756632D01*
X155292610Y-104698061D01*
X170535000Y-104698061D01*
X170535000Y-104901939D01*
X170574774Y-105101898D01*
X170652795Y-105290256D01*
X170766063Y-105459774D01*
X170910226Y-105603937D01*
X171079744Y-105717205D01*
X171268102Y-105795226D01*
X171420708Y-105825581D01*
X171356063Y-105890226D01*
X171242795Y-106059744D01*
X171164774Y-106248102D01*
X171125000Y-106448061D01*
X171125000Y-106651939D01*
X171164774Y-106851898D01*
X171242795Y-107040256D01*
X171356063Y-107209774D01*
X171500226Y-107353937D01*
X171669744Y-107467205D01*
X171858102Y-107545226D01*
X172058061Y-107585000D01*
X172261939Y-107585000D01*
X172461898Y-107545226D01*
X172650256Y-107467205D01*
X172819774Y-107353937D01*
X172963937Y-107209774D01*
X173077205Y-107040256D01*
X173155226Y-106851898D01*
X173195000Y-106651939D01*
X173195000Y-106448061D01*
X173155226Y-106248102D01*
X173077205Y-106059744D01*
X172963937Y-105890226D01*
X172819774Y-105746063D01*
X172808605Y-105738600D01*
X172860256Y-105717205D01*
X173029774Y-105603937D01*
X173173937Y-105459774D01*
X173287205Y-105290256D01*
X173365226Y-105101898D01*
X173405000Y-104901939D01*
X173405000Y-104698061D01*
X173365226Y-104498102D01*
X173287205Y-104309744D01*
X173173937Y-104140226D01*
X173029774Y-103996063D01*
X172860256Y-103882795D01*
X172671898Y-103804774D01*
X172471939Y-103765000D01*
X172268061Y-103765000D01*
X172068102Y-103804774D01*
X171970000Y-103845409D01*
X171871898Y-103804774D01*
X171671939Y-103765000D01*
X171468061Y-103765000D01*
X171268102Y-103804774D01*
X171079744Y-103882795D01*
X170910226Y-103996063D01*
X170766063Y-104140226D01*
X170652795Y-104309744D01*
X170574774Y-104498102D01*
X170535000Y-104698061D01*
X155292610Y-104698061D01*
X155415990Y-104513411D01*
X155527932Y-104243158D01*
X155585000Y-103956260D01*
X155585000Y-103663740D01*
X155527932Y-103376842D01*
X155415990Y-103106589D01*
X155253475Y-102863368D01*
X155140107Y-102750000D01*
X189111928Y-102750000D01*
X189124188Y-102874482D01*
X189160498Y-102994180D01*
X189219463Y-103104494D01*
X189298815Y-103201185D01*
X189395506Y-103280537D01*
X189505820Y-103339502D01*
X189625518Y-103375812D01*
X189750000Y-103388072D01*
X191214250Y-103385000D01*
X191373000Y-103226250D01*
X191373000Y-101127000D01*
X191627000Y-101127000D01*
X191627000Y-103226250D01*
X191785750Y-103385000D01*
X193250000Y-103388072D01*
X193374482Y-103375812D01*
X193494180Y-103339502D01*
X193604494Y-103280537D01*
X193701185Y-103201185D01*
X193780537Y-103104494D01*
X193839502Y-102994180D01*
X193875812Y-102874482D01*
X193888072Y-102750000D01*
X193885000Y-101285750D01*
X193726250Y-101127000D01*
X191627000Y-101127000D01*
X191373000Y-101127000D01*
X189273750Y-101127000D01*
X189115000Y-101285750D01*
X189111928Y-102750000D01*
X155140107Y-102750000D01*
X155046632Y-102656525D01*
X154872240Y-102540000D01*
X155046632Y-102423475D01*
X155253475Y-102216632D01*
X155415990Y-101973411D01*
X155527932Y-101703158D01*
X155585000Y-101416260D01*
X155585000Y-101123740D01*
X155527932Y-100836842D01*
X155415990Y-100566589D01*
X155253475Y-100323368D01*
X155046632Y-100116525D01*
X154872240Y-100000000D01*
X155046632Y-99883475D01*
X155253475Y-99676632D01*
X155415990Y-99433411D01*
X155491961Y-99250000D01*
X189111928Y-99250000D01*
X189115000Y-100714250D01*
X189273750Y-100873000D01*
X191373000Y-100873000D01*
X191373000Y-98773750D01*
X191627000Y-98773750D01*
X191627000Y-100873000D01*
X193726250Y-100873000D01*
X193885000Y-100714250D01*
X193888072Y-99250000D01*
X193875812Y-99125518D01*
X193839502Y-99005820D01*
X193780537Y-98895506D01*
X193701185Y-98798815D01*
X193604494Y-98719463D01*
X193527869Y-98678506D01*
X193625000Y-98688072D01*
X195375000Y-98688072D01*
X195670186Y-98658999D01*
X195954028Y-98572896D01*
X196215618Y-98433073D01*
X196444903Y-98244903D01*
X196633073Y-98015618D01*
X196772896Y-97754028D01*
X196858999Y-97470186D01*
X196888072Y-97175000D01*
X196888072Y-95425000D01*
X196858999Y-95129814D01*
X196772896Y-94845972D01*
X196633073Y-94584382D01*
X196444903Y-94355097D01*
X196215618Y-94166927D01*
X195954028Y-94027104D01*
X195670186Y-93941001D01*
X195375000Y-93911928D01*
X193625000Y-93911928D01*
X193329814Y-93941001D01*
X193045972Y-94027104D01*
X192784382Y-94166927D01*
X192555097Y-94355097D01*
X192366927Y-94584382D01*
X192227104Y-94845972D01*
X192141001Y-95129814D01*
X192111928Y-95425000D01*
X192111928Y-97175000D01*
X192141001Y-97470186D01*
X192227104Y-97754028D01*
X192366927Y-98015618D01*
X192555097Y-98244903D01*
X192784382Y-98433073D01*
X193045972Y-98572896D01*
X193175160Y-98612085D01*
X191785750Y-98615000D01*
X191627000Y-98773750D01*
X191373000Y-98773750D01*
X191214250Y-98615000D01*
X189750000Y-98611928D01*
X189625518Y-98624188D01*
X189505820Y-98660498D01*
X189395506Y-98719463D01*
X189298815Y-98798815D01*
X189219463Y-98895506D01*
X189160498Y-99005820D01*
X189124188Y-99125518D01*
X189111928Y-99250000D01*
X155491961Y-99250000D01*
X155527932Y-99163158D01*
X155585000Y-98876260D01*
X155585000Y-98583740D01*
X155527932Y-98296842D01*
X155415990Y-98026589D01*
X155253475Y-97783368D01*
X155046632Y-97576525D01*
X154872240Y-97460000D01*
X155046632Y-97343475D01*
X155253475Y-97136632D01*
X155415990Y-96893411D01*
X155527932Y-96623158D01*
X155585000Y-96336260D01*
X155585000Y-96043740D01*
X155527932Y-95756842D01*
X155415990Y-95486589D01*
X155253475Y-95243368D01*
X155108168Y-95098061D01*
X170565000Y-95098061D01*
X170565000Y-95301939D01*
X170604774Y-95501898D01*
X170682795Y-95690256D01*
X170796063Y-95859774D01*
X170940226Y-96003937D01*
X171109744Y-96117205D01*
X171298102Y-96195226D01*
X171498061Y-96235000D01*
X171701939Y-96235000D01*
X171901898Y-96195226D01*
X171995000Y-96156662D01*
X172088102Y-96195226D01*
X172288061Y-96235000D01*
X172491939Y-96235000D01*
X172691898Y-96195226D01*
X172880256Y-96117205D01*
X173049774Y-96003937D01*
X173193937Y-95859774D01*
X173307205Y-95690256D01*
X173385226Y-95501898D01*
X173425000Y-95301939D01*
X173425000Y-95098061D01*
X173385226Y-94898102D01*
X173307205Y-94709744D01*
X173193937Y-94540226D01*
X173049774Y-94396063D01*
X172880256Y-94282795D01*
X172810012Y-94253699D01*
X172953937Y-94109774D01*
X173067205Y-93940256D01*
X173145226Y-93751898D01*
X173185000Y-93551939D01*
X173185000Y-93348061D01*
X173145226Y-93148102D01*
X173067205Y-92959744D01*
X172953937Y-92790226D01*
X172809774Y-92646063D01*
X172640256Y-92532795D01*
X172451898Y-92454774D01*
X172251939Y-92415000D01*
X172048061Y-92415000D01*
X171848102Y-92454774D01*
X171659744Y-92532795D01*
X171490226Y-92646063D01*
X171346063Y-92790226D01*
X171232795Y-92959744D01*
X171154774Y-93148102D01*
X171115000Y-93348061D01*
X171115000Y-93551939D01*
X171154774Y-93751898D01*
X171232795Y-93940256D01*
X171346063Y-94109774D01*
X171417344Y-94181055D01*
X171298102Y-94204774D01*
X171109744Y-94282795D01*
X170940226Y-94396063D01*
X170796063Y-94540226D01*
X170682795Y-94709744D01*
X170604774Y-94898102D01*
X170565000Y-95098061D01*
X155108168Y-95098061D01*
X155046632Y-95036525D01*
X154872240Y-94920000D01*
X155046632Y-94803475D01*
X155253475Y-94596632D01*
X155415990Y-94353411D01*
X155527932Y-94083158D01*
X155585000Y-93796260D01*
X155585000Y-93568061D01*
X162045000Y-93568061D01*
X162045000Y-93771939D01*
X162084774Y-93971898D01*
X162162795Y-94160256D01*
X162276063Y-94329774D01*
X162420226Y-94473937D01*
X162589744Y-94587205D01*
X162778102Y-94665226D01*
X162978061Y-94705000D01*
X163181939Y-94705000D01*
X163381898Y-94665226D01*
X163570256Y-94587205D01*
X163739774Y-94473937D01*
X163883937Y-94329774D01*
X163997205Y-94160256D01*
X164075226Y-93971898D01*
X164115000Y-93771939D01*
X164115000Y-93568061D01*
X164075226Y-93368102D01*
X163997205Y-93179744D01*
X163883937Y-93010226D01*
X163739774Y-92866063D01*
X163570256Y-92752795D01*
X163381898Y-92674774D01*
X163181939Y-92635000D01*
X162978061Y-92635000D01*
X162778102Y-92674774D01*
X162589744Y-92752795D01*
X162420226Y-92866063D01*
X162276063Y-93010226D01*
X162162795Y-93179744D01*
X162084774Y-93368102D01*
X162045000Y-93568061D01*
X155585000Y-93568061D01*
X155585000Y-93503740D01*
X155527932Y-93216842D01*
X155415990Y-92946589D01*
X155253475Y-92703368D01*
X155046632Y-92496525D01*
X154872240Y-92380000D01*
X155046632Y-92263475D01*
X155253475Y-92056632D01*
X155415990Y-91813411D01*
X155527932Y-91543158D01*
X155585000Y-91256260D01*
X155585000Y-90963740D01*
X155527932Y-90676842D01*
X155415990Y-90406589D01*
X155253475Y-90163368D01*
X155046632Y-89956525D01*
X154872240Y-89840000D01*
X155046632Y-89723475D01*
X155253475Y-89516632D01*
X155332701Y-89398061D01*
X165165000Y-89398061D01*
X165165000Y-89601939D01*
X165204774Y-89801898D01*
X165282795Y-89990256D01*
X165396063Y-90159774D01*
X165540226Y-90303937D01*
X165709744Y-90417205D01*
X165898102Y-90495226D01*
X166098061Y-90535000D01*
X166301939Y-90535000D01*
X166501898Y-90495226D01*
X166690256Y-90417205D01*
X166859774Y-90303937D01*
X167003937Y-90159774D01*
X167117205Y-89990256D01*
X167195226Y-89801898D01*
X167235000Y-89601939D01*
X167235000Y-89398061D01*
X167195226Y-89198102D01*
X167117205Y-89009744D01*
X167003937Y-88840226D01*
X166913711Y-88750000D01*
X194111928Y-88750000D01*
X194111928Y-91250000D01*
X194124188Y-91374482D01*
X194160498Y-91494180D01*
X194219463Y-91604494D01*
X194298815Y-91701185D01*
X194395506Y-91780537D01*
X194505820Y-91839502D01*
X194625518Y-91875812D01*
X194750000Y-91888072D01*
X197250000Y-91888072D01*
X197374482Y-91875812D01*
X197494180Y-91839502D01*
X197604494Y-91780537D01*
X197701185Y-91701185D01*
X197780537Y-91604494D01*
X197839502Y-91494180D01*
X197875812Y-91374482D01*
X197888072Y-91250000D01*
X197888072Y-88750000D01*
X197875812Y-88625518D01*
X197839502Y-88505820D01*
X197780537Y-88395506D01*
X197701185Y-88298815D01*
X197604494Y-88219463D01*
X197494180Y-88160498D01*
X197374482Y-88124188D01*
X197250000Y-88111928D01*
X194750000Y-88111928D01*
X194625518Y-88124188D01*
X194505820Y-88160498D01*
X194395506Y-88219463D01*
X194298815Y-88298815D01*
X194219463Y-88395506D01*
X194160498Y-88505820D01*
X194124188Y-88625518D01*
X194111928Y-88750000D01*
X166913711Y-88750000D01*
X166859774Y-88696063D01*
X166690256Y-88582795D01*
X166501898Y-88504774D01*
X166301939Y-88465000D01*
X166098061Y-88465000D01*
X165898102Y-88504774D01*
X165709744Y-88582795D01*
X165540226Y-88696063D01*
X165396063Y-88840226D01*
X165282795Y-89009744D01*
X165204774Y-89198102D01*
X165165000Y-89398061D01*
X155332701Y-89398061D01*
X155415990Y-89273411D01*
X155527932Y-89003158D01*
X155585000Y-88716260D01*
X155585000Y-88423740D01*
X155527932Y-88136842D01*
X155415990Y-87866589D01*
X155253475Y-87623368D01*
X155046632Y-87416525D01*
X154803411Y-87254010D01*
X154533158Y-87142068D01*
X154311922Y-87098061D01*
X168765000Y-87098061D01*
X168765000Y-87301939D01*
X168804774Y-87501898D01*
X168882795Y-87690256D01*
X168996063Y-87859774D01*
X169140226Y-88003937D01*
X169309744Y-88117205D01*
X169498102Y-88195226D01*
X169698061Y-88235000D01*
X169901939Y-88235000D01*
X170101898Y-88195226D01*
X170290256Y-88117205D01*
X170459774Y-88003937D01*
X170603937Y-87859774D01*
X170717205Y-87690256D01*
X170795226Y-87501898D01*
X170835000Y-87301939D01*
X170835000Y-87098061D01*
X173965000Y-87098061D01*
X173965000Y-87301939D01*
X174004774Y-87501898D01*
X174082795Y-87690256D01*
X174196063Y-87859774D01*
X174340226Y-88003937D01*
X174509744Y-88117205D01*
X174698102Y-88195226D01*
X174898061Y-88235000D01*
X175101939Y-88235000D01*
X175301898Y-88195226D01*
X175490256Y-88117205D01*
X175659774Y-88003937D01*
X175803937Y-87859774D01*
X175917205Y-87690256D01*
X175995226Y-87501898D01*
X176035000Y-87301939D01*
X176035000Y-87098061D01*
X175995226Y-86898102D01*
X175917205Y-86709744D01*
X175803937Y-86540226D01*
X175659774Y-86396063D01*
X175490256Y-86282795D01*
X175301898Y-86204774D01*
X175101939Y-86165000D01*
X174898061Y-86165000D01*
X174698102Y-86204774D01*
X174509744Y-86282795D01*
X174340226Y-86396063D01*
X174196063Y-86540226D01*
X174082795Y-86709744D01*
X174004774Y-86898102D01*
X173965000Y-87098061D01*
X170835000Y-87098061D01*
X170795226Y-86898102D01*
X170717205Y-86709744D01*
X170603937Y-86540226D01*
X170459774Y-86396063D01*
X170290256Y-86282795D01*
X170101898Y-86204774D01*
X169901939Y-86165000D01*
X169698061Y-86165000D01*
X169498102Y-86204774D01*
X169309744Y-86282795D01*
X169140226Y-86396063D01*
X168996063Y-86540226D01*
X168882795Y-86709744D01*
X168804774Y-86898102D01*
X168765000Y-87098061D01*
X154311922Y-87098061D01*
X154246260Y-87085000D01*
X153953740Y-87085000D01*
X153666842Y-87142068D01*
X153396589Y-87254010D01*
X153153368Y-87416525D01*
X152946525Y-87623368D01*
X152784010Y-87866589D01*
X152672068Y-88136842D01*
X152615000Y-88423740D01*
X152615000Y-88716260D01*
X152672068Y-89003158D01*
X152784010Y-89273411D01*
X152946525Y-89516632D01*
X153153368Y-89723475D01*
X153327760Y-89840000D01*
X153153368Y-89956525D01*
X152946525Y-90163368D01*
X152784010Y-90406589D01*
X152672068Y-90676842D01*
X152615000Y-90963740D01*
X152615000Y-91256260D01*
X152672068Y-91543158D01*
X152784010Y-91813411D01*
X152946525Y-92056632D01*
X153153368Y-92263475D01*
X153327760Y-92380000D01*
X153153368Y-92496525D01*
X152946525Y-92703368D01*
X152784010Y-92946589D01*
X152672068Y-93216842D01*
X152615000Y-93503740D01*
X152615000Y-93796260D01*
X152672068Y-94083158D01*
X152784010Y-94353411D01*
X152946525Y-94596632D01*
X153153368Y-94803475D01*
X153327760Y-94920000D01*
X153153368Y-95036525D01*
X152946525Y-95243368D01*
X152784010Y-95486589D01*
X152672068Y-95756842D01*
X152615000Y-96043740D01*
X152615000Y-96336260D01*
X152672068Y-96623158D01*
X152784010Y-96893411D01*
X152946525Y-97136632D01*
X153153368Y-97343475D01*
X153327760Y-97460000D01*
X153153368Y-97576525D01*
X152946525Y-97783368D01*
X152784010Y-98026589D01*
X152672068Y-98296842D01*
X152615000Y-98583740D01*
X152615000Y-98876260D01*
X152672068Y-99163158D01*
X152784010Y-99433411D01*
X152946525Y-99676632D01*
X153153368Y-99883475D01*
X153327760Y-100000000D01*
X153153368Y-100116525D01*
X152946525Y-100323368D01*
X152784010Y-100566589D01*
X152672068Y-100836842D01*
X152615000Y-101123740D01*
X152615000Y-101416260D01*
X152672068Y-101703158D01*
X152784010Y-101973411D01*
X152946525Y-102216632D01*
X153153368Y-102423475D01*
X153327760Y-102540000D01*
X153153368Y-102656525D01*
X152946525Y-102863368D01*
X152784010Y-103106589D01*
X152672068Y-103376842D01*
X152615000Y-103663740D01*
X152615000Y-103956260D01*
X152672068Y-104243158D01*
X152784010Y-104513411D01*
X152946525Y-104756632D01*
X153153368Y-104963475D01*
X153327760Y-105080000D01*
X153153368Y-105196525D01*
X152946525Y-105403368D01*
X152784010Y-105646589D01*
X152672068Y-105916842D01*
X152615000Y-106203740D01*
X152615000Y-106496260D01*
X152672068Y-106783158D01*
X152784010Y-107053411D01*
X152946525Y-107296632D01*
X153153368Y-107503475D01*
X153327760Y-107620000D01*
X153153368Y-107736525D01*
X152946525Y-107943368D01*
X152784010Y-108186589D01*
X152672068Y-108456842D01*
X152615000Y-108743740D01*
X152615000Y-109036260D01*
X152672068Y-109323158D01*
X152784010Y-109593411D01*
X152946525Y-109836632D01*
X153078380Y-109968487D01*
X153005820Y-109990498D01*
X152895506Y-110049463D01*
X152798815Y-110128815D01*
X152719463Y-110225506D01*
X152660498Y-110335820D01*
X152624188Y-110455518D01*
X152611928Y-110580000D01*
X150660000Y-110580000D01*
X150660000Y-84814344D01*
X194115000Y-84814344D01*
X194115000Y-85185656D01*
X194187439Y-85549834D01*
X194329534Y-85892882D01*
X194535825Y-86201618D01*
X194798382Y-86464175D01*
X195107118Y-86670466D01*
X195450166Y-86812561D01*
X195814344Y-86885000D01*
X196185656Y-86885000D01*
X196549834Y-86812561D01*
X196892882Y-86670466D01*
X197201618Y-86464175D01*
X197464175Y-86201618D01*
X197670466Y-85892882D01*
X197812561Y-85549834D01*
X197885000Y-85185656D01*
X197885000Y-84814344D01*
X197812561Y-84450166D01*
X197670466Y-84107118D01*
X197464175Y-83798382D01*
X197201618Y-83535825D01*
X196892882Y-83329534D01*
X196549834Y-83187439D01*
X196185656Y-83115000D01*
X195814344Y-83115000D01*
X195450166Y-83187439D01*
X195107118Y-83329534D01*
X194798382Y-83535825D01*
X194535825Y-83798382D01*
X194329534Y-84107118D01*
X194187439Y-84450166D01*
X194115000Y-84814344D01*
X150660000Y-84814344D01*
X150660000Y-77032279D01*
X150688625Y-76740341D01*
X150764035Y-76490571D01*
X150886522Y-76260208D01*
X151051422Y-76058020D01*
X151252450Y-75891714D01*
X151481954Y-75767622D01*
X151731195Y-75690469D01*
X152021088Y-75660000D01*
X197967721Y-75660000D01*
X198259659Y-75688625D01*
%TA.AperFunction,Conductor*%
D18*
G36*
X198259659Y-75688625D02*
G01*
X198509429Y-75764035D01*
X198739792Y-75886522D01*
X198941980Y-76051422D01*
X199108286Y-76252450D01*
X199232378Y-76481954D01*
X199309531Y-76731195D01*
X199340000Y-77021088D01*
X199340000Y-99150675D01*
X199231515Y-99018485D01*
X199021171Y-98845860D01*
X198781192Y-98717589D01*
X198520799Y-98638599D01*
X198250000Y-98611928D01*
X196750000Y-98611928D01*
X196479201Y-98638599D01*
X196218808Y-98717589D01*
X195978829Y-98845860D01*
X195768485Y-99018485D01*
X195595860Y-99228829D01*
X195467589Y-99468808D01*
X195388599Y-99729201D01*
X195361928Y-100000000D01*
X195361928Y-102000000D01*
X195388599Y-102270799D01*
X195467589Y-102531192D01*
X195595860Y-102771171D01*
X195768485Y-102981515D01*
X195978829Y-103154140D01*
X196218808Y-103282411D01*
X196479201Y-103361401D01*
X196750000Y-103388072D01*
X198250000Y-103388072D01*
X198520799Y-103361401D01*
X198781192Y-103282411D01*
X199021171Y-103154140D01*
X199231515Y-102981515D01*
X199340001Y-102849325D01*
X199340001Y-122967711D01*
X199311375Y-123259660D01*
X199235965Y-123509429D01*
X199113477Y-123739794D01*
X198948579Y-123941979D01*
X198747546Y-124108288D01*
X198518046Y-124232378D01*
X198268805Y-124309531D01*
X197978911Y-124340000D01*
X152032279Y-124340000D01*
X151740340Y-124311375D01*
X151490571Y-124235965D01*
X151260206Y-124113477D01*
X151058021Y-123948579D01*
X150891712Y-123747546D01*
X150767622Y-123518046D01*
X150690469Y-123268805D01*
X150660000Y-122978911D01*
X150660000Y-121998061D01*
X183965000Y-121998061D01*
X183965000Y-122201939D01*
X184004774Y-122401898D01*
X184082795Y-122590256D01*
X184196063Y-122759774D01*
X184340226Y-122903937D01*
X184509744Y-123017205D01*
X184698102Y-123095226D01*
X184898061Y-123135000D01*
X185101939Y-123135000D01*
X185301898Y-123095226D01*
X185490256Y-123017205D01*
X185659774Y-122903937D01*
X185803937Y-122759774D01*
X185917205Y-122590256D01*
X185995226Y-122401898D01*
X186035000Y-122201939D01*
X186035000Y-121998061D01*
X185995226Y-121798102D01*
X185917205Y-121609744D01*
X185803937Y-121440226D01*
X185659774Y-121296063D01*
X185490256Y-121182795D01*
X185301898Y-121104774D01*
X185101939Y-121065000D01*
X184898061Y-121065000D01*
X184698102Y-121104774D01*
X184509744Y-121182795D01*
X184340226Y-121296063D01*
X184196063Y-121440226D01*
X184082795Y-121609744D01*
X184004774Y-121798102D01*
X183965000Y-121998061D01*
X150660000Y-121998061D01*
X150660000Y-120798061D01*
X154265000Y-120798061D01*
X154265000Y-121001939D01*
X154304774Y-121201898D01*
X154382795Y-121390256D01*
X154496063Y-121559774D01*
X154640226Y-121703937D01*
X154809744Y-121817205D01*
X154998102Y-121895226D01*
X155198061Y-121935000D01*
X155401939Y-121935000D01*
X155601898Y-121895226D01*
X155790256Y-121817205D01*
X155959774Y-121703937D01*
X156103937Y-121559774D01*
X156217205Y-121390256D01*
X156295226Y-121201898D01*
X156335000Y-121001939D01*
X156335000Y-120848061D01*
X187965000Y-120848061D01*
X187965000Y-121051939D01*
X188004774Y-121251898D01*
X188082795Y-121440256D01*
X188196063Y-121609774D01*
X188340226Y-121753937D01*
X188509744Y-121867205D01*
X188698102Y-121945226D01*
X188898061Y-121985000D01*
X189101939Y-121985000D01*
X189301898Y-121945226D01*
X189490256Y-121867205D01*
X189659774Y-121753937D01*
X189803937Y-121609774D01*
X189917205Y-121440256D01*
X189995226Y-121251898D01*
X190035000Y-121051939D01*
X190035000Y-120848061D01*
X189995226Y-120648102D01*
X189917205Y-120459744D01*
X189803937Y-120290226D01*
X189659774Y-120146063D01*
X189490256Y-120032795D01*
X189301898Y-119954774D01*
X189101939Y-119915000D01*
X188898061Y-119915000D01*
X188698102Y-119954774D01*
X188509744Y-120032795D01*
X188340226Y-120146063D01*
X188196063Y-120290226D01*
X188082795Y-120459744D01*
X188004774Y-120648102D01*
X187965000Y-120848061D01*
X156335000Y-120848061D01*
X156335000Y-120798061D01*
X156295226Y-120598102D01*
X156217205Y-120409744D01*
X156103937Y-120240226D01*
X155959774Y-120096063D01*
X155790256Y-119982795D01*
X155601898Y-119904774D01*
X155401939Y-119865000D01*
X155198061Y-119865000D01*
X154998102Y-119904774D01*
X154809744Y-119982795D01*
X154640226Y-120096063D01*
X154496063Y-120240226D01*
X154382795Y-120409744D01*
X154304774Y-120598102D01*
X154265000Y-120798061D01*
X150660000Y-120798061D01*
X150660000Y-112280000D01*
X152611928Y-112280000D01*
X152624188Y-112404482D01*
X152660498Y-112524180D01*
X152719463Y-112634494D01*
X152798815Y-112731185D01*
X152895506Y-112810537D01*
X153005820Y-112869502D01*
X153125518Y-112905812D01*
X153250000Y-112918072D01*
X153814250Y-112915000D01*
X153973000Y-112756250D01*
X153973000Y-111557000D01*
X154227000Y-111557000D01*
X154227000Y-112756250D01*
X154385750Y-112915000D01*
X154950000Y-112918072D01*
X155074482Y-112905812D01*
X155194180Y-112869502D01*
X155304494Y-112810537D01*
X155401185Y-112731185D01*
X155428369Y-112698061D01*
X168965000Y-112698061D01*
X168965000Y-112901939D01*
X169004774Y-113101898D01*
X169082795Y-113290256D01*
X169196063Y-113459774D01*
X169340226Y-113603937D01*
X169509744Y-113717205D01*
X169698102Y-113795226D01*
X169898061Y-113835000D01*
X170101939Y-113835000D01*
X170301898Y-113795226D01*
X170490256Y-113717205D01*
X170659774Y-113603937D01*
X170803937Y-113459774D01*
X170917205Y-113290256D01*
X170995226Y-113101898D01*
X171035000Y-112901939D01*
X171035000Y-112698061D01*
X173965000Y-112698061D01*
X173965000Y-112901939D01*
X174004774Y-113101898D01*
X174082795Y-113290256D01*
X174196063Y-113459774D01*
X174340226Y-113603937D01*
X174509744Y-113717205D01*
X174698102Y-113795226D01*
X174898061Y-113835000D01*
X175101939Y-113835000D01*
X175301898Y-113795226D01*
X175411082Y-113750000D01*
X193611928Y-113750000D01*
X193611928Y-116250000D01*
X193624188Y-116374482D01*
X193660498Y-116494180D01*
X193719463Y-116604494D01*
X193798815Y-116701185D01*
X193895506Y-116780537D01*
X194005820Y-116839502D01*
X194125518Y-116875812D01*
X194250000Y-116888072D01*
X196750000Y-116888072D01*
X196874482Y-116875812D01*
X196994180Y-116839502D01*
X197104494Y-116780537D01*
X197201185Y-116701185D01*
X197280537Y-116604494D01*
X197339502Y-116494180D01*
X197375812Y-116374482D01*
X197388072Y-116250000D01*
X197388072Y-113750000D01*
X197375812Y-113625518D01*
X197339502Y-113505820D01*
X197280537Y-113395506D01*
X197201185Y-113298815D01*
X197104494Y-113219463D01*
X196994180Y-113160498D01*
X196874482Y-113124188D01*
X196750000Y-113111928D01*
X194250000Y-113111928D01*
X194125518Y-113124188D01*
X194005820Y-113160498D01*
X193895506Y-113219463D01*
X193798815Y-113298815D01*
X193719463Y-113395506D01*
X193660498Y-113505820D01*
X193624188Y-113625518D01*
X193611928Y-113750000D01*
X175411082Y-113750000D01*
X175490256Y-113717205D01*
X175659774Y-113603937D01*
X175803937Y-113459774D01*
X175917205Y-113290256D01*
X175995226Y-113101898D01*
X176035000Y-112901939D01*
X176035000Y-112698061D01*
X175995226Y-112498102D01*
X175917205Y-112309744D01*
X175803937Y-112140226D01*
X175659774Y-111996063D01*
X175490256Y-111882795D01*
X175301898Y-111804774D01*
X175101939Y-111765000D01*
X174898061Y-111765000D01*
X174698102Y-111804774D01*
X174509744Y-111882795D01*
X174340226Y-111996063D01*
X174196063Y-112140226D01*
X174082795Y-112309744D01*
X174004774Y-112498102D01*
X173965000Y-112698061D01*
X171035000Y-112698061D01*
X170995226Y-112498102D01*
X170917205Y-112309744D01*
X170803937Y-112140226D01*
X170659774Y-111996063D01*
X170490256Y-111882795D01*
X170301898Y-111804774D01*
X170101939Y-111765000D01*
X169898061Y-111765000D01*
X169698102Y-111804774D01*
X169509744Y-111882795D01*
X169340226Y-111996063D01*
X169196063Y-112140226D01*
X169082795Y-112309744D01*
X169004774Y-112498102D01*
X168965000Y-112698061D01*
X155428369Y-112698061D01*
X155480537Y-112634494D01*
X155539502Y-112524180D01*
X155575812Y-112404482D01*
X155588072Y-112280000D01*
X155585000Y-111715750D01*
X155426250Y-111557000D01*
X154227000Y-111557000D01*
X153973000Y-111557000D01*
X152773750Y-111557000D01*
X152615000Y-111715750D01*
X152611928Y-112280000D01*
X150660000Y-112280000D01*
X150660000Y-110580000D01*
X152611928Y-110580000D01*
X152615000Y-111144250D01*
X152773750Y-111303000D01*
X153973000Y-111303000D01*
X153973000Y-111283000D01*
X154227000Y-111283000D01*
X154227000Y-111303000D01*
X155426250Y-111303000D01*
X155585000Y-111144250D01*
X155588072Y-110580000D01*
X155575812Y-110455518D01*
X155539502Y-110335820D01*
X155480537Y-110225506D01*
X155401185Y-110128815D01*
X155304494Y-110049463D01*
X155194180Y-109990498D01*
X155121620Y-109968487D01*
X155253475Y-109836632D01*
X155268367Y-109814344D01*
X193615000Y-109814344D01*
X193615000Y-110185656D01*
X193687439Y-110549834D01*
X193829534Y-110892882D01*
X194035825Y-111201618D01*
X194298382Y-111464175D01*
X194607118Y-111670466D01*
X194950166Y-111812561D01*
X195314344Y-111885000D01*
X195685656Y-111885000D01*
X196049834Y-111812561D01*
X196392882Y-111670466D01*
X196701618Y-111464175D01*
X196964175Y-111201618D01*
X197170466Y-110892882D01*
X197312561Y-110549834D01*
X197385000Y-110185656D01*
X197385000Y-109814344D01*
X197312561Y-109450166D01*
X197170466Y-109107118D01*
X196964175Y-108798382D01*
X196701618Y-108535825D01*
X196392882Y-108329534D01*
X196049834Y-108187439D01*
X195685656Y-108115000D01*
X195314344Y-108115000D01*
X194950166Y-108187439D01*
X194607118Y-108329534D01*
X194298382Y-108535825D01*
X194035825Y-108798382D01*
X193829534Y-109107118D01*
X193687439Y-109450166D01*
X193615000Y-109814344D01*
X155268367Y-109814344D01*
X155415990Y-109593411D01*
X155527932Y-109323158D01*
X155585000Y-109036260D01*
X155585000Y-108743740D01*
X155527932Y-108456842D01*
X155415990Y-108186589D01*
X155253475Y-107943368D01*
X155046632Y-107736525D01*
X154872240Y-107620000D01*
X155046632Y-107503475D01*
X155253475Y-107296632D01*
X155415990Y-107053411D01*
X155527932Y-106783158D01*
X155585000Y-106496260D01*
X155585000Y-106203740D01*
X155527932Y-105916842D01*
X155415990Y-105646589D01*
X155253475Y-105403368D01*
X155046632Y-105196525D01*
X154872240Y-105080000D01*
X155046632Y-104963475D01*
X155253475Y-104756632D01*
X155292610Y-104698061D01*
X170535000Y-104698061D01*
X170535000Y-104901939D01*
X170574774Y-105101898D01*
X170652795Y-105290256D01*
X170766063Y-105459774D01*
X170910226Y-105603937D01*
X171079744Y-105717205D01*
X171268102Y-105795226D01*
X171420708Y-105825581D01*
X171356063Y-105890226D01*
X171242795Y-106059744D01*
X171164774Y-106248102D01*
X171125000Y-106448061D01*
X171125000Y-106651939D01*
X171164774Y-106851898D01*
X171242795Y-107040256D01*
X171356063Y-107209774D01*
X171500226Y-107353937D01*
X171669744Y-107467205D01*
X171858102Y-107545226D01*
X172058061Y-107585000D01*
X172261939Y-107585000D01*
X172461898Y-107545226D01*
X172650256Y-107467205D01*
X172819774Y-107353937D01*
X172963937Y-107209774D01*
X173077205Y-107040256D01*
X173155226Y-106851898D01*
X173195000Y-106651939D01*
X173195000Y-106448061D01*
X173155226Y-106248102D01*
X173077205Y-106059744D01*
X172963937Y-105890226D01*
X172819774Y-105746063D01*
X172808605Y-105738600D01*
X172860256Y-105717205D01*
X173029774Y-105603937D01*
X173173937Y-105459774D01*
X173287205Y-105290256D01*
X173365226Y-105101898D01*
X173405000Y-104901939D01*
X173405000Y-104698061D01*
X173365226Y-104498102D01*
X173287205Y-104309744D01*
X173173937Y-104140226D01*
X173029774Y-103996063D01*
X172860256Y-103882795D01*
X172671898Y-103804774D01*
X172471939Y-103765000D01*
X172268061Y-103765000D01*
X172068102Y-103804774D01*
X171970000Y-103845409D01*
X171871898Y-103804774D01*
X171671939Y-103765000D01*
X171468061Y-103765000D01*
X171268102Y-103804774D01*
X171079744Y-103882795D01*
X170910226Y-103996063D01*
X170766063Y-104140226D01*
X170652795Y-104309744D01*
X170574774Y-104498102D01*
X170535000Y-104698061D01*
X155292610Y-104698061D01*
X155415990Y-104513411D01*
X155527932Y-104243158D01*
X155585000Y-103956260D01*
X155585000Y-103663740D01*
X155527932Y-103376842D01*
X155415990Y-103106589D01*
X155253475Y-102863368D01*
X155140107Y-102750000D01*
X189111928Y-102750000D01*
X189124188Y-102874482D01*
X189160498Y-102994180D01*
X189219463Y-103104494D01*
X189298815Y-103201185D01*
X189395506Y-103280537D01*
X189505820Y-103339502D01*
X189625518Y-103375812D01*
X189750000Y-103388072D01*
X191214250Y-103385000D01*
X191373000Y-103226250D01*
X191373000Y-101127000D01*
X191627000Y-101127000D01*
X191627000Y-103226250D01*
X191785750Y-103385000D01*
X193250000Y-103388072D01*
X193374482Y-103375812D01*
X193494180Y-103339502D01*
X193604494Y-103280537D01*
X193701185Y-103201185D01*
X193780537Y-103104494D01*
X193839502Y-102994180D01*
X193875812Y-102874482D01*
X193888072Y-102750000D01*
X193885000Y-101285750D01*
X193726250Y-101127000D01*
X191627000Y-101127000D01*
X191373000Y-101127000D01*
X189273750Y-101127000D01*
X189115000Y-101285750D01*
X189111928Y-102750000D01*
X155140107Y-102750000D01*
X155046632Y-102656525D01*
X154872240Y-102540000D01*
X155046632Y-102423475D01*
X155253475Y-102216632D01*
X155415990Y-101973411D01*
X155527932Y-101703158D01*
X155585000Y-101416260D01*
X155585000Y-101123740D01*
X155527932Y-100836842D01*
X155415990Y-100566589D01*
X155253475Y-100323368D01*
X155046632Y-100116525D01*
X154872240Y-100000000D01*
X155046632Y-99883475D01*
X155253475Y-99676632D01*
X155415990Y-99433411D01*
X155491961Y-99250000D01*
X189111928Y-99250000D01*
X189115000Y-100714250D01*
X189273750Y-100873000D01*
X191373000Y-100873000D01*
X191373000Y-98773750D01*
X191627000Y-98773750D01*
X191627000Y-100873000D01*
X193726250Y-100873000D01*
X193885000Y-100714250D01*
X193888072Y-99250000D01*
X193875812Y-99125518D01*
X193839502Y-99005820D01*
X193780537Y-98895506D01*
X193701185Y-98798815D01*
X193604494Y-98719463D01*
X193527869Y-98678506D01*
X193625000Y-98688072D01*
X195375000Y-98688072D01*
X195670186Y-98658999D01*
X195954028Y-98572896D01*
X196215618Y-98433073D01*
X196444903Y-98244903D01*
X196633073Y-98015618D01*
X196772896Y-97754028D01*
X196858999Y-97470186D01*
X196888072Y-97175000D01*
X196888072Y-95425000D01*
X196858999Y-95129814D01*
X196772896Y-94845972D01*
X196633073Y-94584382D01*
X196444903Y-94355097D01*
X196215618Y-94166927D01*
X195954028Y-94027104D01*
X195670186Y-93941001D01*
X195375000Y-93911928D01*
X193625000Y-93911928D01*
X193329814Y-93941001D01*
X193045972Y-94027104D01*
X192784382Y-94166927D01*
X192555097Y-94355097D01*
X192366927Y-94584382D01*
X192227104Y-94845972D01*
X192141001Y-95129814D01*
X192111928Y-95425000D01*
X192111928Y-97175000D01*
X192141001Y-97470186D01*
X192227104Y-97754028D01*
X192366927Y-98015618D01*
X192555097Y-98244903D01*
X192784382Y-98433073D01*
X193045972Y-98572896D01*
X193175160Y-98612085D01*
X191785750Y-98615000D01*
X191627000Y-98773750D01*
X191373000Y-98773750D01*
X191214250Y-98615000D01*
X189750000Y-98611928D01*
X189625518Y-98624188D01*
X189505820Y-98660498D01*
X189395506Y-98719463D01*
X189298815Y-98798815D01*
X189219463Y-98895506D01*
X189160498Y-99005820D01*
X189124188Y-99125518D01*
X189111928Y-99250000D01*
X155491961Y-99250000D01*
X155527932Y-99163158D01*
X155585000Y-98876260D01*
X155585000Y-98583740D01*
X155527932Y-98296842D01*
X155415990Y-98026589D01*
X155253475Y-97783368D01*
X155046632Y-97576525D01*
X154872240Y-97460000D01*
X155046632Y-97343475D01*
X155253475Y-97136632D01*
X155415990Y-96893411D01*
X155527932Y-96623158D01*
X155585000Y-96336260D01*
X155585000Y-96043740D01*
X155527932Y-95756842D01*
X155415990Y-95486589D01*
X155253475Y-95243368D01*
X155108168Y-95098061D01*
X170565000Y-95098061D01*
X170565000Y-95301939D01*
X170604774Y-95501898D01*
X170682795Y-95690256D01*
X170796063Y-95859774D01*
X170940226Y-96003937D01*
X171109744Y-96117205D01*
X171298102Y-96195226D01*
X171498061Y-96235000D01*
X171701939Y-96235000D01*
X171901898Y-96195226D01*
X171995000Y-96156662D01*
X172088102Y-96195226D01*
X172288061Y-96235000D01*
X172491939Y-96235000D01*
X172691898Y-96195226D01*
X172880256Y-96117205D01*
X173049774Y-96003937D01*
X173193937Y-95859774D01*
X173307205Y-95690256D01*
X173385226Y-95501898D01*
X173425000Y-95301939D01*
X173425000Y-95098061D01*
X173385226Y-94898102D01*
X173307205Y-94709744D01*
X173193937Y-94540226D01*
X173049774Y-94396063D01*
X172880256Y-94282795D01*
X172810012Y-94253699D01*
X172953937Y-94109774D01*
X173067205Y-93940256D01*
X173145226Y-93751898D01*
X173185000Y-93551939D01*
X173185000Y-93348061D01*
X173145226Y-93148102D01*
X173067205Y-92959744D01*
X172953937Y-92790226D01*
X172809774Y-92646063D01*
X172640256Y-92532795D01*
X172451898Y-92454774D01*
X172251939Y-92415000D01*
X172048061Y-92415000D01*
X171848102Y-92454774D01*
X171659744Y-92532795D01*
X171490226Y-92646063D01*
X171346063Y-92790226D01*
X171232795Y-92959744D01*
X171154774Y-93148102D01*
X171115000Y-93348061D01*
X171115000Y-93551939D01*
X171154774Y-93751898D01*
X171232795Y-93940256D01*
X171346063Y-94109774D01*
X171417344Y-94181055D01*
X171298102Y-94204774D01*
X171109744Y-94282795D01*
X170940226Y-94396063D01*
X170796063Y-94540226D01*
X170682795Y-94709744D01*
X170604774Y-94898102D01*
X170565000Y-95098061D01*
X155108168Y-95098061D01*
X155046632Y-95036525D01*
X154872240Y-94920000D01*
X155046632Y-94803475D01*
X155253475Y-94596632D01*
X155415990Y-94353411D01*
X155527932Y-94083158D01*
X155585000Y-93796260D01*
X155585000Y-93568061D01*
X162045000Y-93568061D01*
X162045000Y-93771939D01*
X162084774Y-93971898D01*
X162162795Y-94160256D01*
X162276063Y-94329774D01*
X162420226Y-94473937D01*
X162589744Y-94587205D01*
X162778102Y-94665226D01*
X162978061Y-94705000D01*
X163181939Y-94705000D01*
X163381898Y-94665226D01*
X163570256Y-94587205D01*
X163739774Y-94473937D01*
X163883937Y-94329774D01*
X163997205Y-94160256D01*
X164075226Y-93971898D01*
X164115000Y-93771939D01*
X164115000Y-93568061D01*
X164075226Y-93368102D01*
X163997205Y-93179744D01*
X163883937Y-93010226D01*
X163739774Y-92866063D01*
X163570256Y-92752795D01*
X163381898Y-92674774D01*
X163181939Y-92635000D01*
X162978061Y-92635000D01*
X162778102Y-92674774D01*
X162589744Y-92752795D01*
X162420226Y-92866063D01*
X162276063Y-93010226D01*
X162162795Y-93179744D01*
X162084774Y-93368102D01*
X162045000Y-93568061D01*
X155585000Y-93568061D01*
X155585000Y-93503740D01*
X155527932Y-93216842D01*
X155415990Y-92946589D01*
X155253475Y-92703368D01*
X155046632Y-92496525D01*
X154872240Y-92380000D01*
X155046632Y-92263475D01*
X155253475Y-92056632D01*
X155415990Y-91813411D01*
X155527932Y-91543158D01*
X155585000Y-91256260D01*
X155585000Y-90963740D01*
X155527932Y-90676842D01*
X155415990Y-90406589D01*
X155253475Y-90163368D01*
X155046632Y-89956525D01*
X154872240Y-89840000D01*
X155046632Y-89723475D01*
X155253475Y-89516632D01*
X155332701Y-89398061D01*
X165165000Y-89398061D01*
X165165000Y-89601939D01*
X165204774Y-89801898D01*
X165282795Y-89990256D01*
X165396063Y-90159774D01*
X165540226Y-90303937D01*
X165709744Y-90417205D01*
X165898102Y-90495226D01*
X166098061Y-90535000D01*
X166301939Y-90535000D01*
X166501898Y-90495226D01*
X166690256Y-90417205D01*
X166859774Y-90303937D01*
X167003937Y-90159774D01*
X167117205Y-89990256D01*
X167195226Y-89801898D01*
X167235000Y-89601939D01*
X167235000Y-89398061D01*
X167195226Y-89198102D01*
X167117205Y-89009744D01*
X167003937Y-88840226D01*
X166913711Y-88750000D01*
X194111928Y-88750000D01*
X194111928Y-91250000D01*
X194124188Y-91374482D01*
X194160498Y-91494180D01*
X194219463Y-91604494D01*
X194298815Y-91701185D01*
X194395506Y-91780537D01*
X194505820Y-91839502D01*
X194625518Y-91875812D01*
X194750000Y-91888072D01*
X197250000Y-91888072D01*
X197374482Y-91875812D01*
X197494180Y-91839502D01*
X197604494Y-91780537D01*
X197701185Y-91701185D01*
X197780537Y-91604494D01*
X197839502Y-91494180D01*
X197875812Y-91374482D01*
X197888072Y-91250000D01*
X197888072Y-88750000D01*
X197875812Y-88625518D01*
X197839502Y-88505820D01*
X197780537Y-88395506D01*
X197701185Y-88298815D01*
X197604494Y-88219463D01*
X197494180Y-88160498D01*
X197374482Y-88124188D01*
X197250000Y-88111928D01*
X194750000Y-88111928D01*
X194625518Y-88124188D01*
X194505820Y-88160498D01*
X194395506Y-88219463D01*
X194298815Y-88298815D01*
X194219463Y-88395506D01*
X194160498Y-88505820D01*
X194124188Y-88625518D01*
X194111928Y-88750000D01*
X166913711Y-88750000D01*
X166859774Y-88696063D01*
X166690256Y-88582795D01*
X166501898Y-88504774D01*
X166301939Y-88465000D01*
X166098061Y-88465000D01*
X165898102Y-88504774D01*
X165709744Y-88582795D01*
X165540226Y-88696063D01*
X165396063Y-88840226D01*
X165282795Y-89009744D01*
X165204774Y-89198102D01*
X165165000Y-89398061D01*
X155332701Y-89398061D01*
X155415990Y-89273411D01*
X155527932Y-89003158D01*
X155585000Y-88716260D01*
X155585000Y-88423740D01*
X155527932Y-88136842D01*
X155415990Y-87866589D01*
X155253475Y-87623368D01*
X155046632Y-87416525D01*
X154803411Y-87254010D01*
X154533158Y-87142068D01*
X154311922Y-87098061D01*
X168765000Y-87098061D01*
X168765000Y-87301939D01*
X168804774Y-87501898D01*
X168882795Y-87690256D01*
X168996063Y-87859774D01*
X169140226Y-88003937D01*
X169309744Y-88117205D01*
X169498102Y-88195226D01*
X169698061Y-88235000D01*
X169901939Y-88235000D01*
X170101898Y-88195226D01*
X170290256Y-88117205D01*
X170459774Y-88003937D01*
X170603937Y-87859774D01*
X170717205Y-87690256D01*
X170795226Y-87501898D01*
X170835000Y-87301939D01*
X170835000Y-87098061D01*
X173965000Y-87098061D01*
X173965000Y-87301939D01*
X174004774Y-87501898D01*
X174082795Y-87690256D01*
X174196063Y-87859774D01*
X174340226Y-88003937D01*
X174509744Y-88117205D01*
X174698102Y-88195226D01*
X174898061Y-88235000D01*
X175101939Y-88235000D01*
X175301898Y-88195226D01*
X175490256Y-88117205D01*
X175659774Y-88003937D01*
X175803937Y-87859774D01*
X175917205Y-87690256D01*
X175995226Y-87501898D01*
X176035000Y-87301939D01*
X176035000Y-87098061D01*
X175995226Y-86898102D01*
X175917205Y-86709744D01*
X175803937Y-86540226D01*
X175659774Y-86396063D01*
X175490256Y-86282795D01*
X175301898Y-86204774D01*
X175101939Y-86165000D01*
X174898061Y-86165000D01*
X174698102Y-86204774D01*
X174509744Y-86282795D01*
X174340226Y-86396063D01*
X174196063Y-86540226D01*
X174082795Y-86709744D01*
X174004774Y-86898102D01*
X173965000Y-87098061D01*
X170835000Y-87098061D01*
X170795226Y-86898102D01*
X170717205Y-86709744D01*
X170603937Y-86540226D01*
X170459774Y-86396063D01*
X170290256Y-86282795D01*
X170101898Y-86204774D01*
X169901939Y-86165000D01*
X169698061Y-86165000D01*
X169498102Y-86204774D01*
X169309744Y-86282795D01*
X169140226Y-86396063D01*
X168996063Y-86540226D01*
X168882795Y-86709744D01*
X168804774Y-86898102D01*
X168765000Y-87098061D01*
X154311922Y-87098061D01*
X154246260Y-87085000D01*
X153953740Y-87085000D01*
X153666842Y-87142068D01*
X153396589Y-87254010D01*
X153153368Y-87416525D01*
X152946525Y-87623368D01*
X152784010Y-87866589D01*
X152672068Y-88136842D01*
X152615000Y-88423740D01*
X152615000Y-88716260D01*
X152672068Y-89003158D01*
X152784010Y-89273411D01*
X152946525Y-89516632D01*
X153153368Y-89723475D01*
X153327760Y-89840000D01*
X153153368Y-89956525D01*
X152946525Y-90163368D01*
X152784010Y-90406589D01*
X152672068Y-90676842D01*
X152615000Y-90963740D01*
X152615000Y-91256260D01*
X152672068Y-91543158D01*
X152784010Y-91813411D01*
X152946525Y-92056632D01*
X153153368Y-92263475D01*
X153327760Y-92380000D01*
X153153368Y-92496525D01*
X152946525Y-92703368D01*
X152784010Y-92946589D01*
X152672068Y-93216842D01*
X152615000Y-93503740D01*
X152615000Y-93796260D01*
X152672068Y-94083158D01*
X152784010Y-94353411D01*
X152946525Y-94596632D01*
X153153368Y-94803475D01*
X153327760Y-94920000D01*
X153153368Y-95036525D01*
X152946525Y-95243368D01*
X152784010Y-95486589D01*
X152672068Y-95756842D01*
X152615000Y-96043740D01*
X152615000Y-96336260D01*
X152672068Y-96623158D01*
X152784010Y-96893411D01*
X152946525Y-97136632D01*
X153153368Y-97343475D01*
X153327760Y-97460000D01*
X153153368Y-97576525D01*
X152946525Y-97783368D01*
X152784010Y-98026589D01*
X152672068Y-98296842D01*
X152615000Y-98583740D01*
X152615000Y-98876260D01*
X152672068Y-99163158D01*
X152784010Y-99433411D01*
X152946525Y-99676632D01*
X153153368Y-99883475D01*
X153327760Y-100000000D01*
X153153368Y-100116525D01*
X152946525Y-100323368D01*
X152784010Y-100566589D01*
X152672068Y-100836842D01*
X152615000Y-101123740D01*
X152615000Y-101416260D01*
X152672068Y-101703158D01*
X152784010Y-101973411D01*
X152946525Y-102216632D01*
X153153368Y-102423475D01*
X153327760Y-102540000D01*
X153153368Y-102656525D01*
X152946525Y-102863368D01*
X152784010Y-103106589D01*
X152672068Y-103376842D01*
X152615000Y-103663740D01*
X152615000Y-103956260D01*
X152672068Y-104243158D01*
X152784010Y-104513411D01*
X152946525Y-104756632D01*
X153153368Y-104963475D01*
X153327760Y-105080000D01*
X153153368Y-105196525D01*
X152946525Y-105403368D01*
X152784010Y-105646589D01*
X152672068Y-105916842D01*
X152615000Y-106203740D01*
X152615000Y-106496260D01*
X152672068Y-106783158D01*
X152784010Y-107053411D01*
X152946525Y-107296632D01*
X153153368Y-107503475D01*
X153327760Y-107620000D01*
X153153368Y-107736525D01*
X152946525Y-107943368D01*
X152784010Y-108186589D01*
X152672068Y-108456842D01*
X152615000Y-108743740D01*
X152615000Y-109036260D01*
X152672068Y-109323158D01*
X152784010Y-109593411D01*
X152946525Y-109836632D01*
X153078380Y-109968487D01*
X153005820Y-109990498D01*
X152895506Y-110049463D01*
X152798815Y-110128815D01*
X152719463Y-110225506D01*
X152660498Y-110335820D01*
X152624188Y-110455518D01*
X152611928Y-110580000D01*
X150660000Y-110580000D01*
X150660000Y-84814344D01*
X194115000Y-84814344D01*
X194115000Y-85185656D01*
X194187439Y-85549834D01*
X194329534Y-85892882D01*
X194535825Y-86201618D01*
X194798382Y-86464175D01*
X195107118Y-86670466D01*
X195450166Y-86812561D01*
X195814344Y-86885000D01*
X196185656Y-86885000D01*
X196549834Y-86812561D01*
X196892882Y-86670466D01*
X197201618Y-86464175D01*
X197464175Y-86201618D01*
X197670466Y-85892882D01*
X197812561Y-85549834D01*
X197885000Y-85185656D01*
X197885000Y-84814344D01*
X197812561Y-84450166D01*
X197670466Y-84107118D01*
X197464175Y-83798382D01*
X197201618Y-83535825D01*
X196892882Y-83329534D01*
X196549834Y-83187439D01*
X196185656Y-83115000D01*
X195814344Y-83115000D01*
X195450166Y-83187439D01*
X195107118Y-83329534D01*
X194798382Y-83535825D01*
X194535825Y-83798382D01*
X194329534Y-84107118D01*
X194187439Y-84450166D01*
X194115000Y-84814344D01*
X150660000Y-84814344D01*
X150660000Y-77032279D01*
X150688625Y-76740341D01*
X150764035Y-76490571D01*
X150886522Y-76260208D01*
X151051422Y-76058020D01*
X151252450Y-75891714D01*
X151481954Y-75767622D01*
X151731195Y-75690469D01*
X152021088Y-75660000D01*
X197967721Y-75660000D01*
X198259659Y-75688625D01*
G37*
%TD.AperFunction*%
%TD*%
M02*
