M48
; DRILL file {KiCad 5.1.9-73d0e3b20d~88~ubuntu20.04.1} date Sat Jun  5 19:45:57 2021
; FORMAT={-:-/ absolute / inch / decimal}
; #@! TF.CreationDate,2021-06-05T19:45:57+02:00
; #@! TF.GenerationSoftware,Kicad,Pcbnew,5.1.9-73d0e3b20d~88~ubuntu20.04.1
; #@! TF.FileFunction,Plated,1,4,PTH
FMAT,2
INCH
T1C0.0118
T2C0.0157
T3C0.0394
T4C0.0512
%
G90
G05
T1
X6.6024Y-3.7618
X6.6024Y-3.8319
X6.6024Y-3.902
X6.6024Y-3.972
X6.6024Y-4.0421
X6.6024Y-4.1122
X6.6535Y-3.7618
X6.6535Y-3.8319
X6.6535Y-3.902
X6.6535Y-3.972
X6.6535Y-4.0421
X6.6535Y-4.1122
X6.7047Y-3.7618
X6.7047Y-3.8319
X6.7047Y-3.902
X6.7047Y-3.972
X6.7047Y-4.0421
X6.7047Y-4.1122
T2
X6.1142Y-4.6102
X6.1142Y-4.7598
X6.3268Y-4.7598
X6.378Y-3.8539
X6.4173Y-3.4331
X6.4173Y-4.4409
X6.4205Y-3.6878
X6.4213Y-4.1858
X6.4646Y-3.5827
X6.4795Y-3.6874
X6.4795Y-4.1858
X6.5433Y-3.5236
X6.6142Y-4.4409
X6.622Y-3.4331
X6.685Y-3.4331
X6.6929Y-4.4409
X6.7547Y-4.126
X6.7559Y-3.748
X6.7776Y-3.6791
X6.778Y-4.1949
X6.7862Y-4.126
X6.787Y-3.748
X6.8504Y-4.7992
X6.8898Y-3.4331
X6.8898Y-4.4409
X6.9291Y-3.748
X6.9291Y-4.7992
X6.9303Y-4.126
X6.939Y-3.6787
X6.939Y-4.1949
X6.9882Y-4.8524
X7.2835Y-4.7232
X7.2835Y-4.8071
X7.3606Y-3.6299
X7.3606Y-4.2437
X7.4094Y-4.6181
X7.4409Y-4.687
X7.4409Y-4.7618
T3
X6.0669Y-3.487
X6.0669Y-3.587
X6.0669Y-3.687
X6.0669Y-3.787
X6.0669Y-3.887
X6.0669Y-3.987
X6.0669Y-4.087
X6.0669Y-4.187
X6.0669Y-4.287
X6.0669Y-4.387
T4
X7.6969Y-4.3307
X7.6969Y-4.5276
X7.7165Y-3.3465
X7.7165Y-3.5433
T3
G00X7.5394Y-4.0157
M15
G01X7.5394Y-3.937
M16
G05
G00X7.6969Y-3.7913
M15
G01X7.6181Y-3.7913
M16
G05
G00X7.7756Y-4.0157
M15
G01X7.7756Y-3.937
M16
G05
T0
M30
