%TF.GenerationSoftware,KiCad,Pcbnew,5.1.9-73d0e3b20d~88~ubuntu20.04.1*%
%TF.CreationDate,2021-06-05T19:46:01+02:00*%
%TF.ProjectId,pooky,706f6f6b-792e-46b6-9963-61645f706362,v1.00*%
%TF.SameCoordinates,Original*%
%TF.FileFunction,Copper,L1,Top*%
%TF.FilePolarity,Positive*%
%FSLAX46Y46*%
G04 Gerber Fmt 4.6, Leading zero omitted, Abs format (unit mm)*
G04 Created by KiCad (PCBNEW 5.1.9-73d0e3b20d~88~ubuntu20.04.1) date 2021-06-05 19:46:01*
%MOMM*%
%LPD*%
G01*
G04 APERTURE LIST*
%TA.AperFunction,SMDPad,CuDef*%
%ADD10R,0.980000X3.400000*%
%TD*%
%TA.AperFunction,SMDPad,CuDef*%
%ADD11R,0.600000X0.450000*%
%TD*%
%TA.AperFunction,SMDPad,CuDef*%
%ADD12R,0.450000X0.600000*%
%TD*%
%TA.AperFunction,SMDPad,CuDef*%
%ADD13R,1.500000X2.400000*%
%TD*%
%TA.AperFunction,SMDPad,CuDef*%
%ADD14R,1.100000X0.400000*%
%TD*%
%TA.AperFunction,SMDPad,CuDef*%
%ADD15R,3.400000X9.700000*%
%TD*%
%TA.AperFunction,ComponentPad*%
%ADD16C,0.600000*%
%TD*%
%TA.AperFunction,SMDPad,CuDef*%
%ADD17R,0.650000X1.060000*%
%TD*%
%TA.AperFunction,SMDPad,CuDef*%
%ADD18R,0.900000X0.800000*%
%TD*%
%TA.AperFunction,ComponentPad*%
%ADD19R,3.500000X3.500000*%
%TD*%
%TA.AperFunction,ComponentPad*%
%ADD20C,2.500000*%
%TD*%
%TA.AperFunction,ComponentPad*%
%ADD21R,2.500000X2.500000*%
%TD*%
%TA.AperFunction,ComponentPad*%
%ADD22R,1.700000X1.700000*%
%TD*%
%TA.AperFunction,ComponentPad*%
%ADD23O,1.700000X1.700000*%
%TD*%
%TA.AperFunction,ViaPad*%
%ADD24C,0.800000*%
%TD*%
%TA.AperFunction,Conductor*%
%ADD25C,0.400000*%
%TD*%
%TA.AperFunction,Conductor*%
%ADD26C,0.500000*%
%TD*%
%TA.AperFunction,Conductor*%
%ADD27C,0.250000*%
%TD*%
G04 APERTURE END LIST*
D10*
%TO.P,L5,1*%
%TO.N,Net-(C17-Pad2)*%
X180485000Y-120000000D03*
%TO.P,L5,2*%
%TO.N,Net-(C18-Pad1)*%
X178115000Y-120000000D03*
%TD*%
%TO.P,C1,2*%
%TO.N,Net-(C1-Pad2)*%
%TA.AperFunction,SMDPad,CuDef*%
G36*
G01*
X175325000Y-97450000D02*
X175325000Y-96950000D01*
G75*
G02*
X175550000Y-96725000I225000J0D01*
G01*
X176000000Y-96725000D01*
G75*
G02*
X176225000Y-96950000I0J-225000D01*
G01*
X176225000Y-97450000D01*
G75*
G02*
X176000000Y-97675000I-225000J0D01*
G01*
X175550000Y-97675000D01*
G75*
G02*
X175325000Y-97450000I0J225000D01*
G01*
G37*
%TD.AperFunction*%
%TO.P,C1,1*%
%TO.N,Net-(C1-Pad1)*%
%TA.AperFunction,SMDPad,CuDef*%
G36*
G01*
X173775000Y-97450000D02*
X173775000Y-96950000D01*
G75*
G02*
X174000000Y-96725000I225000J0D01*
G01*
X174450000Y-96725000D01*
G75*
G02*
X174675000Y-96950000I0J-225000D01*
G01*
X174675000Y-97450000D01*
G75*
G02*
X174450000Y-97675000I-225000J0D01*
G01*
X174000000Y-97675000D01*
G75*
G02*
X173775000Y-97450000I0J225000D01*
G01*
G37*
%TD.AperFunction*%
%TD*%
%TO.P,C2,2*%
%TO.N,Net-(C2-Pad2)*%
%TA.AperFunction,SMDPad,CuDef*%
G36*
G01*
X175325000Y-103050000D02*
X175325000Y-102550000D01*
G75*
G02*
X175550000Y-102325000I225000J0D01*
G01*
X176000000Y-102325000D01*
G75*
G02*
X176225000Y-102550000I0J-225000D01*
G01*
X176225000Y-103050000D01*
G75*
G02*
X176000000Y-103275000I-225000J0D01*
G01*
X175550000Y-103275000D01*
G75*
G02*
X175325000Y-103050000I0J225000D01*
G01*
G37*
%TD.AperFunction*%
%TO.P,C2,1*%
%TO.N,Net-(C2-Pad1)*%
%TA.AperFunction,SMDPad,CuDef*%
G36*
G01*
X173775000Y-103050000D02*
X173775000Y-102550000D01*
G75*
G02*
X174000000Y-102325000I225000J0D01*
G01*
X174450000Y-102325000D01*
G75*
G02*
X174675000Y-102550000I0J-225000D01*
G01*
X174675000Y-103050000D01*
G75*
G02*
X174450000Y-103275000I-225000J0D01*
G01*
X174000000Y-103275000D01*
G75*
G02*
X173775000Y-103050000I0J225000D01*
G01*
G37*
%TD.AperFunction*%
%TD*%
%TO.P,C3,1*%
%TO.N,Net-(C3-Pad1)*%
%TA.AperFunction,SMDPad,CuDef*%
G36*
G01*
X173775000Y-99450000D02*
X173775000Y-98950000D01*
G75*
G02*
X174000000Y-98725000I225000J0D01*
G01*
X174450000Y-98725000D01*
G75*
G02*
X174675000Y-98950000I0J-225000D01*
G01*
X174675000Y-99450000D01*
G75*
G02*
X174450000Y-99675000I-225000J0D01*
G01*
X174000000Y-99675000D01*
G75*
G02*
X173775000Y-99450000I0J225000D01*
G01*
G37*
%TD.AperFunction*%
%TO.P,C3,2*%
%TO.N,Net-(C3-Pad2)*%
%TA.AperFunction,SMDPad,CuDef*%
G36*
G01*
X175325000Y-99450000D02*
X175325000Y-98950000D01*
G75*
G02*
X175550000Y-98725000I225000J0D01*
G01*
X176000000Y-98725000D01*
G75*
G02*
X176225000Y-98950000I0J-225000D01*
G01*
X176225000Y-99450000D01*
G75*
G02*
X176000000Y-99675000I-225000J0D01*
G01*
X175550000Y-99675000D01*
G75*
G02*
X175325000Y-99450000I0J225000D01*
G01*
G37*
%TD.AperFunction*%
%TD*%
%TO.P,C4,2*%
%TO.N,Net-(C4-Pad2)*%
%TA.AperFunction,SMDPad,CuDef*%
G36*
G01*
X175325000Y-101050000D02*
X175325000Y-100550000D01*
G75*
G02*
X175550000Y-100325000I225000J0D01*
G01*
X176000000Y-100325000D01*
G75*
G02*
X176225000Y-100550000I0J-225000D01*
G01*
X176225000Y-101050000D01*
G75*
G02*
X176000000Y-101275000I-225000J0D01*
G01*
X175550000Y-101275000D01*
G75*
G02*
X175325000Y-101050000I0J225000D01*
G01*
G37*
%TD.AperFunction*%
%TO.P,C4,1*%
%TO.N,Net-(C4-Pad1)*%
%TA.AperFunction,SMDPad,CuDef*%
G36*
G01*
X173775000Y-101050000D02*
X173775000Y-100550000D01*
G75*
G02*
X174000000Y-100325000I225000J0D01*
G01*
X174450000Y-100325000D01*
G75*
G02*
X174675000Y-100550000I0J-225000D01*
G01*
X174675000Y-101050000D01*
G75*
G02*
X174450000Y-101275000I-225000J0D01*
G01*
X174000000Y-101275000D01*
G75*
G02*
X173775000Y-101050000I0J225000D01*
G01*
G37*
%TD.AperFunction*%
%TD*%
%TO.P,C5,2*%
%TO.N,Net-(C5-Pad2)*%
%TA.AperFunction,SMDPad,CuDef*%
G36*
G01*
X186275000Y-90050000D02*
X185325000Y-90050000D01*
G75*
G02*
X185075000Y-89800000I0J250000D01*
G01*
X185075000Y-89300000D01*
G75*
G02*
X185325000Y-89050000I250000J0D01*
G01*
X186275000Y-89050000D01*
G75*
G02*
X186525000Y-89300000I0J-250000D01*
G01*
X186525000Y-89800000D01*
G75*
G02*
X186275000Y-90050000I-250000J0D01*
G01*
G37*
%TD.AperFunction*%
%TO.P,C5,1*%
%TO.N,GND*%
%TA.AperFunction,SMDPad,CuDef*%
G36*
G01*
X186275000Y-91950000D02*
X185325000Y-91950000D01*
G75*
G02*
X185075000Y-91700000I0J250000D01*
G01*
X185075000Y-91200000D01*
G75*
G02*
X185325000Y-90950000I250000J0D01*
G01*
X186275000Y-90950000D01*
G75*
G02*
X186525000Y-91200000I0J-250000D01*
G01*
X186525000Y-91700000D01*
G75*
G02*
X186275000Y-91950000I-250000J0D01*
G01*
G37*
%TD.AperFunction*%
%TD*%
%TO.P,C6,2*%
%TO.N,GND*%
%TA.AperFunction,SMDPad,CuDef*%
G36*
G01*
X186275000Y-93450000D02*
X185325000Y-93450000D01*
G75*
G02*
X185075000Y-93200000I0J250000D01*
G01*
X185075000Y-92700000D01*
G75*
G02*
X185325000Y-92450000I250000J0D01*
G01*
X186275000Y-92450000D01*
G75*
G02*
X186525000Y-92700000I0J-250000D01*
G01*
X186525000Y-93200000D01*
G75*
G02*
X186275000Y-93450000I-250000J0D01*
G01*
G37*
%TD.AperFunction*%
%TO.P,C6,1*%
%TO.N,Net-(C6-Pad1)*%
%TA.AperFunction,SMDPad,CuDef*%
G36*
G01*
X186275000Y-95350000D02*
X185325000Y-95350000D01*
G75*
G02*
X185075000Y-95100000I0J250000D01*
G01*
X185075000Y-94600000D01*
G75*
G02*
X185325000Y-94350000I250000J0D01*
G01*
X186275000Y-94350000D01*
G75*
G02*
X186525000Y-94600000I0J-250000D01*
G01*
X186525000Y-95100000D01*
G75*
G02*
X186275000Y-95350000I-250000J0D01*
G01*
G37*
%TD.AperFunction*%
%TD*%
%TO.P,C7,1*%
%TO.N,GND*%
%TA.AperFunction,SMDPad,CuDef*%
G36*
G01*
X186275000Y-107550000D02*
X185325000Y-107550000D01*
G75*
G02*
X185075000Y-107300000I0J250000D01*
G01*
X185075000Y-106800000D01*
G75*
G02*
X185325000Y-106550000I250000J0D01*
G01*
X186275000Y-106550000D01*
G75*
G02*
X186525000Y-106800000I0J-250000D01*
G01*
X186525000Y-107300000D01*
G75*
G02*
X186275000Y-107550000I-250000J0D01*
G01*
G37*
%TD.AperFunction*%
%TO.P,C7,2*%
%TO.N,Net-(C7-Pad2)*%
%TA.AperFunction,SMDPad,CuDef*%
G36*
G01*
X186275000Y-105650000D02*
X185325000Y-105650000D01*
G75*
G02*
X185075000Y-105400000I0J250000D01*
G01*
X185075000Y-104900000D01*
G75*
G02*
X185325000Y-104650000I250000J0D01*
G01*
X186275000Y-104650000D01*
G75*
G02*
X186525000Y-104900000I0J-250000D01*
G01*
X186525000Y-105400000D01*
G75*
G02*
X186275000Y-105650000I-250000J0D01*
G01*
G37*
%TD.AperFunction*%
%TD*%
%TO.P,C8,1*%
%TO.N,Net-(C8-Pad1)*%
%TA.AperFunction,SMDPad,CuDef*%
G36*
G01*
X186275000Y-110950000D02*
X185325000Y-110950000D01*
G75*
G02*
X185075000Y-110700000I0J250000D01*
G01*
X185075000Y-110200000D01*
G75*
G02*
X185325000Y-109950000I250000J0D01*
G01*
X186275000Y-109950000D01*
G75*
G02*
X186525000Y-110200000I0J-250000D01*
G01*
X186525000Y-110700000D01*
G75*
G02*
X186275000Y-110950000I-250000J0D01*
G01*
G37*
%TD.AperFunction*%
%TO.P,C8,2*%
%TO.N,GND*%
%TA.AperFunction,SMDPad,CuDef*%
G36*
G01*
X186275000Y-109050000D02*
X185325000Y-109050000D01*
G75*
G02*
X185075000Y-108800000I0J250000D01*
G01*
X185075000Y-108300000D01*
G75*
G02*
X185325000Y-108050000I250000J0D01*
G01*
X186275000Y-108050000D01*
G75*
G02*
X186525000Y-108300000I0J-250000D01*
G01*
X186525000Y-108800000D01*
G75*
G02*
X186275000Y-109050000I-250000J0D01*
G01*
G37*
%TD.AperFunction*%
%TD*%
%TO.P,C9,1*%
%TO.N,vin*%
%TA.AperFunction,SMDPad,CuDef*%
G36*
G01*
X172975000Y-95450000D02*
X172975000Y-94950000D01*
G75*
G02*
X173200000Y-94725000I225000J0D01*
G01*
X173650000Y-94725000D01*
G75*
G02*
X173875000Y-94950000I0J-225000D01*
G01*
X173875000Y-95450000D01*
G75*
G02*
X173650000Y-95675000I-225000J0D01*
G01*
X173200000Y-95675000D01*
G75*
G02*
X172975000Y-95450000I0J225000D01*
G01*
G37*
%TD.AperFunction*%
%TO.P,C9,2*%
%TO.N,GND*%
%TA.AperFunction,SMDPad,CuDef*%
G36*
G01*
X174525000Y-95450000D02*
X174525000Y-94950000D01*
G75*
G02*
X174750000Y-94725000I225000J0D01*
G01*
X175200000Y-94725000D01*
G75*
G02*
X175425000Y-94950000I0J-225000D01*
G01*
X175425000Y-95450000D01*
G75*
G02*
X175200000Y-95675000I-225000J0D01*
G01*
X174750000Y-95675000D01*
G75*
G02*
X174525000Y-95450000I0J225000D01*
G01*
G37*
%TD.AperFunction*%
%TD*%
%TO.P,C10,1*%
%TO.N,vin*%
%TA.AperFunction,SMDPad,CuDef*%
G36*
G01*
X172975000Y-105050000D02*
X172975000Y-104550000D01*
G75*
G02*
X173200000Y-104325000I225000J0D01*
G01*
X173650000Y-104325000D01*
G75*
G02*
X173875000Y-104550000I0J-225000D01*
G01*
X173875000Y-105050000D01*
G75*
G02*
X173650000Y-105275000I-225000J0D01*
G01*
X173200000Y-105275000D01*
G75*
G02*
X172975000Y-105050000I0J225000D01*
G01*
G37*
%TD.AperFunction*%
%TO.P,C10,2*%
%TO.N,GND*%
%TA.AperFunction,SMDPad,CuDef*%
G36*
G01*
X174525000Y-105050000D02*
X174525000Y-104550000D01*
G75*
G02*
X174750000Y-104325000I225000J0D01*
G01*
X175200000Y-104325000D01*
G75*
G02*
X175425000Y-104550000I0J-225000D01*
G01*
X175425000Y-105050000D01*
G75*
G02*
X175200000Y-105275000I-225000J0D01*
G01*
X174750000Y-105275000D01*
G75*
G02*
X174525000Y-105050000I0J225000D01*
G01*
G37*
%TD.AperFunction*%
%TD*%
%TO.P,C11,1*%
%TO.N,vin*%
%TA.AperFunction,SMDPad,CuDef*%
G36*
G01*
X172750000Y-93925000D02*
X172750000Y-92975000D01*
G75*
G02*
X173000000Y-92725000I250000J0D01*
G01*
X173500000Y-92725000D01*
G75*
G02*
X173750000Y-92975000I0J-250000D01*
G01*
X173750000Y-93925000D01*
G75*
G02*
X173500000Y-94175000I-250000J0D01*
G01*
X173000000Y-94175000D01*
G75*
G02*
X172750000Y-93925000I0J250000D01*
G01*
G37*
%TD.AperFunction*%
%TO.P,C11,2*%
%TO.N,GND*%
%TA.AperFunction,SMDPad,CuDef*%
G36*
G01*
X174650000Y-93925000D02*
X174650000Y-92975000D01*
G75*
G02*
X174900000Y-92725000I250000J0D01*
G01*
X175400000Y-92725000D01*
G75*
G02*
X175650000Y-92975000I0J-250000D01*
G01*
X175650000Y-93925000D01*
G75*
G02*
X175400000Y-94175000I-250000J0D01*
G01*
X174900000Y-94175000D01*
G75*
G02*
X174650000Y-93925000I0J250000D01*
G01*
G37*
%TD.AperFunction*%
%TD*%
%TO.P,C12,1*%
%TO.N,vin*%
%TA.AperFunction,SMDPad,CuDef*%
G36*
G01*
X172750000Y-107025000D02*
X172750000Y-106075000D01*
G75*
G02*
X173000000Y-105825000I250000J0D01*
G01*
X173500000Y-105825000D01*
G75*
G02*
X173750000Y-106075000I0J-250000D01*
G01*
X173750000Y-107025000D01*
G75*
G02*
X173500000Y-107275000I-250000J0D01*
G01*
X173000000Y-107275000D01*
G75*
G02*
X172750000Y-107025000I0J250000D01*
G01*
G37*
%TD.AperFunction*%
%TO.P,C12,2*%
%TO.N,GND*%
%TA.AperFunction,SMDPad,CuDef*%
G36*
G01*
X174650000Y-107025000D02*
X174650000Y-106075000D01*
G75*
G02*
X174900000Y-105825000I250000J0D01*
G01*
X175400000Y-105825000D01*
G75*
G02*
X175650000Y-106075000I0J-250000D01*
G01*
X175650000Y-107025000D01*
G75*
G02*
X175400000Y-107275000I-250000J0D01*
G01*
X174900000Y-107275000D01*
G75*
G02*
X174650000Y-107025000I0J250000D01*
G01*
G37*
%TD.AperFunction*%
%TD*%
%TO.P,C13,1*%
%TO.N,vin*%
%TA.AperFunction,SMDPad,CuDef*%
G36*
G01*
X187525000Y-98550000D02*
X188475000Y-98550000D01*
G75*
G02*
X188725000Y-98800000I0J-250000D01*
G01*
X188725000Y-99300000D01*
G75*
G02*
X188475000Y-99550000I-250000J0D01*
G01*
X187525000Y-99550000D01*
G75*
G02*
X187275000Y-99300000I0J250000D01*
G01*
X187275000Y-98800000D01*
G75*
G02*
X187525000Y-98550000I250000J0D01*
G01*
G37*
%TD.AperFunction*%
%TO.P,C13,2*%
%TO.N,GND*%
%TA.AperFunction,SMDPad,CuDef*%
G36*
G01*
X187525000Y-100450000D02*
X188475000Y-100450000D01*
G75*
G02*
X188725000Y-100700000I0J-250000D01*
G01*
X188725000Y-101200000D01*
G75*
G02*
X188475000Y-101450000I-250000J0D01*
G01*
X187525000Y-101450000D01*
G75*
G02*
X187275000Y-101200000I0J250000D01*
G01*
X187275000Y-100700000D01*
G75*
G02*
X187525000Y-100450000I250000J0D01*
G01*
G37*
%TD.AperFunction*%
%TD*%
%TO.P,C14,2*%
%TO.N,GND*%
%TA.AperFunction,SMDPad,CuDef*%
G36*
G01*
X188275000Y-119550000D02*
X187325000Y-119550000D01*
G75*
G02*
X187075000Y-119300000I0J250000D01*
G01*
X187075000Y-118800000D01*
G75*
G02*
X187325000Y-118550000I250000J0D01*
G01*
X188275000Y-118550000D01*
G75*
G02*
X188525000Y-118800000I0J-250000D01*
G01*
X188525000Y-119300000D01*
G75*
G02*
X188275000Y-119550000I-250000J0D01*
G01*
G37*
%TD.AperFunction*%
%TO.P,C14,1*%
%TO.N,vin*%
%TA.AperFunction,SMDPad,CuDef*%
G36*
G01*
X188275000Y-121450000D02*
X187325000Y-121450000D01*
G75*
G02*
X187075000Y-121200000I0J250000D01*
G01*
X187075000Y-120700000D01*
G75*
G02*
X187325000Y-120450000I250000J0D01*
G01*
X188275000Y-120450000D01*
G75*
G02*
X188525000Y-120700000I0J-250000D01*
G01*
X188525000Y-121200000D01*
G75*
G02*
X188275000Y-121450000I-250000J0D01*
G01*
G37*
%TD.AperFunction*%
%TD*%
%TO.P,C16,2*%
%TO.N,GND*%
%TA.AperFunction,SMDPad,CuDef*%
G36*
G01*
X155775000Y-118550000D02*
X154825000Y-118550000D01*
G75*
G02*
X154575000Y-118300000I0J250000D01*
G01*
X154575000Y-117800000D01*
G75*
G02*
X154825000Y-117550000I250000J0D01*
G01*
X155775000Y-117550000D01*
G75*
G02*
X156025000Y-117800000I0J-250000D01*
G01*
X156025000Y-118300000D01*
G75*
G02*
X155775000Y-118550000I-250000J0D01*
G01*
G37*
%TD.AperFunction*%
%TO.P,C16,1*%
%TO.N,+3V3*%
%TA.AperFunction,SMDPad,CuDef*%
G36*
G01*
X155775000Y-120450000D02*
X154825000Y-120450000D01*
G75*
G02*
X154575000Y-120200000I0J250000D01*
G01*
X154575000Y-119700000D01*
G75*
G02*
X154825000Y-119450000I250000J0D01*
G01*
X155775000Y-119450000D01*
G75*
G02*
X156025000Y-119700000I0J-250000D01*
G01*
X156025000Y-120200000D01*
G75*
G02*
X155775000Y-120450000I-250000J0D01*
G01*
G37*
%TD.AperFunction*%
%TD*%
%TO.P,C17,2*%
%TO.N,Net-(C17-Pad2)*%
%TA.AperFunction,SMDPad,CuDef*%
G36*
G01*
X182150000Y-120325000D02*
X182650000Y-120325000D01*
G75*
G02*
X182875000Y-120550000I0J-225000D01*
G01*
X182875000Y-121000000D01*
G75*
G02*
X182650000Y-121225000I-225000J0D01*
G01*
X182150000Y-121225000D01*
G75*
G02*
X181925000Y-121000000I0J225000D01*
G01*
X181925000Y-120550000D01*
G75*
G02*
X182150000Y-120325000I225000J0D01*
G01*
G37*
%TD.AperFunction*%
%TO.P,C17,1*%
%TO.N,Net-(C17-Pad1)*%
%TA.AperFunction,SMDPad,CuDef*%
G36*
G01*
X182150000Y-118775000D02*
X182650000Y-118775000D01*
G75*
G02*
X182875000Y-119000000I0J-225000D01*
G01*
X182875000Y-119450000D01*
G75*
G02*
X182650000Y-119675000I-225000J0D01*
G01*
X182150000Y-119675000D01*
G75*
G02*
X181925000Y-119450000I0J225000D01*
G01*
X181925000Y-119000000D01*
G75*
G02*
X182150000Y-118775000I225000J0D01*
G01*
G37*
%TD.AperFunction*%
%TD*%
%TO.P,C18,2*%
%TO.N,GND*%
%TA.AperFunction,SMDPad,CuDef*%
G36*
G01*
X173525000Y-120450000D02*
X174475000Y-120450000D01*
G75*
G02*
X174725000Y-120700000I0J-250000D01*
G01*
X174725000Y-121200000D01*
G75*
G02*
X174475000Y-121450000I-250000J0D01*
G01*
X173525000Y-121450000D01*
G75*
G02*
X173275000Y-121200000I0J250000D01*
G01*
X173275000Y-120700000D01*
G75*
G02*
X173525000Y-120450000I250000J0D01*
G01*
G37*
%TD.AperFunction*%
%TO.P,C18,1*%
%TO.N,Net-(C18-Pad1)*%
%TA.AperFunction,SMDPad,CuDef*%
G36*
G01*
X173525000Y-118550000D02*
X174475000Y-118550000D01*
G75*
G02*
X174725000Y-118800000I0J-250000D01*
G01*
X174725000Y-119300000D01*
G75*
G02*
X174475000Y-119550000I-250000J0D01*
G01*
X173525000Y-119550000D01*
G75*
G02*
X173275000Y-119300000I0J250000D01*
G01*
X173275000Y-118800000D01*
G75*
G02*
X173525000Y-118550000I250000J0D01*
G01*
G37*
%TD.AperFunction*%
%TD*%
%TO.P,C19,1*%
%TO.N,Net-(C18-Pad1)*%
%TA.AperFunction,SMDPad,CuDef*%
G36*
G01*
X175525000Y-118550000D02*
X176475000Y-118550000D01*
G75*
G02*
X176725000Y-118800000I0J-250000D01*
G01*
X176725000Y-119300000D01*
G75*
G02*
X176475000Y-119550000I-250000J0D01*
G01*
X175525000Y-119550000D01*
G75*
G02*
X175275000Y-119300000I0J250000D01*
G01*
X175275000Y-118800000D01*
G75*
G02*
X175525000Y-118550000I250000J0D01*
G01*
G37*
%TD.AperFunction*%
%TO.P,C19,2*%
%TO.N,GND*%
%TA.AperFunction,SMDPad,CuDef*%
G36*
G01*
X175525000Y-120450000D02*
X176475000Y-120450000D01*
G75*
G02*
X176725000Y-120700000I0J-250000D01*
G01*
X176725000Y-121200000D01*
G75*
G02*
X176475000Y-121450000I-250000J0D01*
G01*
X175525000Y-121450000D01*
G75*
G02*
X175275000Y-121200000I0J250000D01*
G01*
X175275000Y-120700000D01*
G75*
G02*
X175525000Y-120450000I250000J0D01*
G01*
G37*
%TD.AperFunction*%
%TD*%
%TO.P,C20,2*%
%TO.N,+3V3*%
%TA.AperFunction,SMDPad,CuDef*%
G36*
G01*
X164330000Y-95825000D02*
X164830000Y-95825000D01*
G75*
G02*
X165055000Y-96050000I0J-225000D01*
G01*
X165055000Y-96500000D01*
G75*
G02*
X164830000Y-96725000I-225000J0D01*
G01*
X164330000Y-96725000D01*
G75*
G02*
X164105000Y-96500000I0J225000D01*
G01*
X164105000Y-96050000D01*
G75*
G02*
X164330000Y-95825000I225000J0D01*
G01*
G37*
%TD.AperFunction*%
%TO.P,C20,1*%
%TO.N,GND*%
%TA.AperFunction,SMDPad,CuDef*%
G36*
G01*
X164330000Y-94275000D02*
X164830000Y-94275000D01*
G75*
G02*
X165055000Y-94500000I0J-225000D01*
G01*
X165055000Y-94950000D01*
G75*
G02*
X164830000Y-95175000I-225000J0D01*
G01*
X164330000Y-95175000D01*
G75*
G02*
X164105000Y-94950000I0J225000D01*
G01*
X164105000Y-94500000D01*
G75*
G02*
X164330000Y-94275000I225000J0D01*
G01*
G37*
%TD.AperFunction*%
%TD*%
%TO.P,C21,1*%
%TO.N,GND*%
%TA.AperFunction,SMDPad,CuDef*%
G36*
G01*
X162595000Y-98140000D02*
X162595000Y-97640000D01*
G75*
G02*
X162820000Y-97415000I225000J0D01*
G01*
X163270000Y-97415000D01*
G75*
G02*
X163495000Y-97640000I0J-225000D01*
G01*
X163495000Y-98140000D01*
G75*
G02*
X163270000Y-98365000I-225000J0D01*
G01*
X162820000Y-98365000D01*
G75*
G02*
X162595000Y-98140000I0J225000D01*
G01*
G37*
%TD.AperFunction*%
%TO.P,C21,2*%
%TO.N,Net-(C21-Pad2)*%
%TA.AperFunction,SMDPad,CuDef*%
G36*
G01*
X164145000Y-98140000D02*
X164145000Y-97640000D01*
G75*
G02*
X164370000Y-97415000I225000J0D01*
G01*
X164820000Y-97415000D01*
G75*
G02*
X165045000Y-97640000I0J-225000D01*
G01*
X165045000Y-98140000D01*
G75*
G02*
X164820000Y-98365000I-225000J0D01*
G01*
X164370000Y-98365000D01*
G75*
G02*
X164145000Y-98140000I0J225000D01*
G01*
G37*
%TD.AperFunction*%
%TD*%
%TO.P,C22,1*%
%TO.N,GND*%
%TA.AperFunction,SMDPad,CuDef*%
G36*
G01*
X164830000Y-105725000D02*
X164330000Y-105725000D01*
G75*
G02*
X164105000Y-105500000I0J225000D01*
G01*
X164105000Y-105050000D01*
G75*
G02*
X164330000Y-104825000I225000J0D01*
G01*
X164830000Y-104825000D01*
G75*
G02*
X165055000Y-105050000I0J-225000D01*
G01*
X165055000Y-105500000D01*
G75*
G02*
X164830000Y-105725000I-225000J0D01*
G01*
G37*
%TD.AperFunction*%
%TO.P,C22,2*%
%TO.N,Net-(C22-Pad2)*%
%TA.AperFunction,SMDPad,CuDef*%
G36*
G01*
X164830000Y-104175000D02*
X164330000Y-104175000D01*
G75*
G02*
X164105000Y-103950000I0J225000D01*
G01*
X164105000Y-103500000D01*
G75*
G02*
X164330000Y-103275000I225000J0D01*
G01*
X164830000Y-103275000D01*
G75*
G02*
X165055000Y-103500000I0J-225000D01*
G01*
X165055000Y-103950000D01*
G75*
G02*
X164830000Y-104175000I-225000J0D01*
G01*
G37*
%TD.AperFunction*%
%TD*%
%TO.P,C24,1*%
%TO.N,vin*%
%TA.AperFunction,SMDPad,CuDef*%
G36*
G01*
X174550000Y-86500000D02*
X174550000Y-87900000D01*
G75*
G02*
X174300000Y-88150000I-250000J0D01*
G01*
X170650000Y-88150000D01*
G75*
G02*
X170400000Y-87900000I0J250000D01*
G01*
X170400000Y-86500000D01*
G75*
G02*
X170650000Y-86250000I250000J0D01*
G01*
X174300000Y-86250000D01*
G75*
G02*
X174550000Y-86500000I0J-250000D01*
G01*
G37*
%TD.AperFunction*%
%TO.P,C24,2*%
%TO.N,GND*%
%TA.AperFunction,SMDPad,CuDef*%
G36*
G01*
X167600000Y-86500000D02*
X167600000Y-87900000D01*
G75*
G02*
X167350000Y-88150000I-250000J0D01*
G01*
X163700000Y-88150000D01*
G75*
G02*
X163450000Y-87900000I0J250000D01*
G01*
X163450000Y-86500000D01*
G75*
G02*
X163700000Y-86250000I250000J0D01*
G01*
X167350000Y-86250000D01*
G75*
G02*
X167600000Y-86500000I0J-250000D01*
G01*
G37*
%TD.AperFunction*%
%TD*%
%TO.P,C36,2*%
%TO.N,GND*%
%TA.AperFunction,SMDPad,CuDef*%
G36*
G01*
X167600000Y-112100000D02*
X167600000Y-113500000D01*
G75*
G02*
X167350000Y-113750000I-250000J0D01*
G01*
X163700000Y-113750000D01*
G75*
G02*
X163450000Y-113500000I0J250000D01*
G01*
X163450000Y-112100000D01*
G75*
G02*
X163700000Y-111850000I250000J0D01*
G01*
X167350000Y-111850000D01*
G75*
G02*
X167600000Y-112100000I0J-250000D01*
G01*
G37*
%TD.AperFunction*%
%TO.P,C36,1*%
%TO.N,vin*%
%TA.AperFunction,SMDPad,CuDef*%
G36*
G01*
X174550000Y-112100000D02*
X174550000Y-113500000D01*
G75*
G02*
X174300000Y-113750000I-250000J0D01*
G01*
X170650000Y-113750000D01*
G75*
G02*
X170400000Y-113500000I0J250000D01*
G01*
X170400000Y-112100000D01*
G75*
G02*
X170650000Y-111850000I250000J0D01*
G01*
X174300000Y-111850000D01*
G75*
G02*
X174550000Y-112100000I0J-250000D01*
G01*
G37*
%TD.AperFunction*%
%TD*%
D11*
%TO.P,D1,2*%
%TO.N,GND*%
X178250000Y-123250000D03*
%TO.P,D1,1*%
%TO.N,Net-(C17-Pad2)*%
X180350000Y-123250000D03*
%TD*%
D12*
%TO.P,D2,1*%
%TO.N,+5V*%
X172000000Y-121050000D03*
%TO.P,D2,2*%
%TO.N,Net-(C18-Pad1)*%
X172000000Y-118950000D03*
%TD*%
D13*
%TO.P,L1,2*%
%TO.N,Net-(C5-Pad2)*%
X183750000Y-89600000D03*
%TO.P,L1,1*%
%TO.N,Net-(C1-Pad2)*%
X178250000Y-89600000D03*
%TD*%
%TO.P,L2,1*%
%TO.N,Net-(C2-Pad2)*%
X178250000Y-110400000D03*
%TO.P,L2,2*%
%TO.N,Net-(C8-Pad1)*%
X183750000Y-110400000D03*
%TD*%
%TO.P,L3,2*%
%TO.N,Net-(C6-Pad1)*%
X183750000Y-96500000D03*
%TO.P,L3,1*%
%TO.N,Net-(C3-Pad2)*%
X178250000Y-96500000D03*
%TD*%
%TO.P,L4,1*%
%TO.N,Net-(C4-Pad2)*%
X178250000Y-103500000D03*
%TO.P,L4,2*%
%TO.N,Net-(C7-Pad2)*%
X183750000Y-103500000D03*
%TD*%
%TO.P,R1,2*%
%TO.N,GND*%
%TA.AperFunction,SMDPad,CuDef*%
G36*
G01*
X186925000Y-117575000D02*
X186925000Y-117025000D01*
G75*
G02*
X187125000Y-116825000I200000J0D01*
G01*
X187525000Y-116825000D01*
G75*
G02*
X187725000Y-117025000I0J-200000D01*
G01*
X187725000Y-117575000D01*
G75*
G02*
X187525000Y-117775000I-200000J0D01*
G01*
X187125000Y-117775000D01*
G75*
G02*
X186925000Y-117575000I0J200000D01*
G01*
G37*
%TD.AperFunction*%
%TO.P,R1,1*%
%TO.N,Net-(R1-Pad1)*%
%TA.AperFunction,SMDPad,CuDef*%
G36*
G01*
X185275000Y-117575000D02*
X185275000Y-117025000D01*
G75*
G02*
X185475000Y-116825000I200000J0D01*
G01*
X185875000Y-116825000D01*
G75*
G02*
X186075000Y-117025000I0J-200000D01*
G01*
X186075000Y-117575000D01*
G75*
G02*
X185875000Y-117775000I-200000J0D01*
G01*
X185475000Y-117775000D01*
G75*
G02*
X185275000Y-117575000I0J200000D01*
G01*
G37*
%TD.AperFunction*%
%TD*%
%TO.P,R2,1*%
%TO.N,Net-(C18-Pad1)*%
%TA.AperFunction,SMDPad,CuDef*%
G36*
G01*
X182275000Y-117575000D02*
X182275000Y-117025000D01*
G75*
G02*
X182475000Y-116825000I200000J0D01*
G01*
X182875000Y-116825000D01*
G75*
G02*
X183075000Y-117025000I0J-200000D01*
G01*
X183075000Y-117575000D01*
G75*
G02*
X182875000Y-117775000I-200000J0D01*
G01*
X182475000Y-117775000D01*
G75*
G02*
X182275000Y-117575000I0J200000D01*
G01*
G37*
%TD.AperFunction*%
%TO.P,R2,2*%
%TO.N,Net-(R1-Pad1)*%
%TA.AperFunction,SMDPad,CuDef*%
G36*
G01*
X183925000Y-117575000D02*
X183925000Y-117025000D01*
G75*
G02*
X184125000Y-116825000I200000J0D01*
G01*
X184525000Y-116825000D01*
G75*
G02*
X184725000Y-117025000I0J-200000D01*
G01*
X184725000Y-117575000D01*
G75*
G02*
X184525000Y-117775000I-200000J0D01*
G01*
X184125000Y-117775000D01*
G75*
G02*
X183925000Y-117575000I0J200000D01*
G01*
G37*
%TD.AperFunction*%
%TD*%
%TO.P,R15,1*%
%TO.N,tas_fault*%
%TA.AperFunction,SMDPad,CuDef*%
G36*
G01*
X163355000Y-96725000D02*
X162805000Y-96725000D01*
G75*
G02*
X162605000Y-96525000I0J200000D01*
G01*
X162605000Y-96125000D01*
G75*
G02*
X162805000Y-95925000I200000J0D01*
G01*
X163355000Y-95925000D01*
G75*
G02*
X163555000Y-96125000I0J-200000D01*
G01*
X163555000Y-96525000D01*
G75*
G02*
X163355000Y-96725000I-200000J0D01*
G01*
G37*
%TD.AperFunction*%
%TO.P,R15,2*%
%TO.N,+3V3*%
%TA.AperFunction,SMDPad,CuDef*%
G36*
G01*
X163355000Y-95075000D02*
X162805000Y-95075000D01*
G75*
G02*
X162605000Y-94875000I0J200000D01*
G01*
X162605000Y-94475000D01*
G75*
G02*
X162805000Y-94275000I200000J0D01*
G01*
X163355000Y-94275000D01*
G75*
G02*
X163555000Y-94475000I0J-200000D01*
G01*
X163555000Y-94875000D01*
G75*
G02*
X163355000Y-95075000I-200000J0D01*
G01*
G37*
%TD.AperFunction*%
%TD*%
%TO.P,R23,2*%
%TO.N,tas_pdn*%
%TA.AperFunction,SMDPad,CuDef*%
G36*
G01*
X163375000Y-104075000D02*
X162825000Y-104075000D01*
G75*
G02*
X162625000Y-103875000I0J200000D01*
G01*
X162625000Y-103475000D01*
G75*
G02*
X162825000Y-103275000I200000J0D01*
G01*
X163375000Y-103275000D01*
G75*
G02*
X163575000Y-103475000I0J-200000D01*
G01*
X163575000Y-103875000D01*
G75*
G02*
X163375000Y-104075000I-200000J0D01*
G01*
G37*
%TD.AperFunction*%
%TO.P,R23,1*%
%TO.N,GND*%
%TA.AperFunction,SMDPad,CuDef*%
G36*
G01*
X163375000Y-105725000D02*
X162825000Y-105725000D01*
G75*
G02*
X162625000Y-105525000I0J200000D01*
G01*
X162625000Y-105125000D01*
G75*
G02*
X162825000Y-104925000I200000J0D01*
G01*
X163375000Y-104925000D01*
G75*
G02*
X163575000Y-105125000I0J-200000D01*
G01*
X163575000Y-105525000D01*
G75*
G02*
X163375000Y-105725000I-200000J0D01*
G01*
G37*
%TD.AperFunction*%
%TD*%
D14*
%TO.P,U1,1*%
%TO.N,GND*%
X166150000Y-95775000D03*
%TO.P,U1,2*%
%TO.N,+3V3*%
X166150000Y-96425000D03*
%TO.P,U1,3*%
%TO.N,tas_fault*%
X166150000Y-97075000D03*
%TO.P,U1,4*%
%TO.N,Net-(C21-Pad2)*%
X166150000Y-97725000D03*
%TO.P,U1,5*%
%TO.N,GND*%
X166150000Y-98375000D03*
%TO.P,U1,6*%
%TO.N,i2s1_ws*%
X166150000Y-99025000D03*
%TO.P,U1,7*%
%TO.N,i2s1_ck*%
X166150000Y-99675000D03*
%TO.P,U1,8*%
%TO.N,i2s1_sd*%
X166150000Y-100325000D03*
%TO.P,U1,9*%
%TO.N,N/C*%
X166150000Y-100975000D03*
%TO.P,U1,10*%
%TO.N,i2c_sda*%
X166150000Y-101625000D03*
%TO.P,U1,11*%
%TO.N,i2c_scl*%
X166150000Y-102275000D03*
%TO.P,U1,12*%
%TO.N,tas_pdn*%
X166150000Y-102925000D03*
%TO.P,U1,13*%
%TO.N,Net-(C22-Pad2)*%
X166150000Y-103575000D03*
%TO.P,U1,14*%
%TO.N,GND*%
X166150000Y-104225000D03*
%TO.P,U1,15*%
%TO.N,vin*%
X171850000Y-104225000D03*
%TO.P,U1,16*%
X171850000Y-103575000D03*
%TO.P,U1,17*%
%TO.N,Net-(C2-Pad2)*%
X171850000Y-102925000D03*
%TO.P,U1,18*%
%TO.N,Net-(C2-Pad1)*%
X171850000Y-102275000D03*
%TO.P,U1,19*%
%TO.N,GND*%
X171850000Y-101625000D03*
%TO.P,U1,20*%
%TO.N,Net-(C4-Pad2)*%
X171850000Y-100975000D03*
%TO.P,U1,21*%
%TO.N,Net-(C4-Pad1)*%
X171850000Y-100325000D03*
%TO.P,U1,22*%
%TO.N,Net-(C3-Pad1)*%
X171850000Y-99675000D03*
%TO.P,U1,23*%
%TO.N,Net-(C3-Pad2)*%
X171850000Y-99025000D03*
%TO.P,U1,24*%
%TO.N,GND*%
X171850000Y-98375000D03*
%TO.P,U1,25*%
%TO.N,Net-(C1-Pad1)*%
X171850000Y-97725000D03*
%TO.P,U1,26*%
%TO.N,Net-(C1-Pad2)*%
X171850000Y-97075000D03*
%TO.P,U1,27*%
%TO.N,vin*%
X171850000Y-96425000D03*
%TO.P,U1,28*%
X171850000Y-95775000D03*
D15*
%TO.P,U1,29*%
%TO.N,GND*%
X169000000Y-100000000D03*
D16*
X167700000Y-95550000D03*
X169000000Y-95550000D03*
X170300000Y-95550000D03*
X170300000Y-97330000D03*
X169000000Y-97330000D03*
X167700000Y-97330000D03*
X170300000Y-99110000D03*
X169000000Y-99110000D03*
X167700000Y-99110000D03*
X170300000Y-100890000D03*
X169000000Y-100890000D03*
X167700000Y-100890000D03*
X170300000Y-102670000D03*
X169000000Y-102670000D03*
X167700000Y-102670000D03*
X170300000Y-104450000D03*
X169000000Y-104450000D03*
X167700000Y-104450000D03*
%TD*%
D17*
%TO.P,U2,1*%
%TO.N,Net-(C17-Pad2)*%
X184050000Y-121100000D03*
%TO.P,U2,2*%
%TO.N,vin*%
X185000000Y-121100000D03*
%TO.P,U2,3*%
%TO.N,N/C*%
X185950000Y-121100000D03*
%TO.P,U2,4*%
%TO.N,Net-(R1-Pad1)*%
X185950000Y-118900000D03*
%TO.P,U2,6*%
%TO.N,Net-(C17-Pad1)*%
X184050000Y-118900000D03*
%TO.P,U2,5*%
%TO.N,GND*%
X185000000Y-118900000D03*
%TD*%
D18*
%TO.P,U3,1*%
%TO.N,GND*%
X157000000Y-118050000D03*
%TO.P,U3,2*%
%TO.N,+3V3*%
X157000000Y-119950000D03*
%TO.P,U3,3*%
%TO.N,+5V*%
X159000000Y-119000000D03*
%TD*%
D19*
%TO.P,J5,1*%
%TO.N,GND*%
X191500000Y-101000000D03*
%TO.P,J5,2*%
%TO.N,vin*%
%TA.AperFunction,ComponentPad*%
G36*
G01*
X199000000Y-100000000D02*
X199000000Y-102000000D01*
G75*
G02*
X198250000Y-102750000I-750000J0D01*
G01*
X196750000Y-102750000D01*
G75*
G02*
X196000000Y-102000000I0J750000D01*
G01*
X196000000Y-100000000D01*
G75*
G02*
X196750000Y-99250000I750000J0D01*
G01*
X198250000Y-99250000D01*
G75*
G02*
X199000000Y-100000000I0J-750000D01*
G01*
G37*
%TD.AperFunction*%
%TO.P,J5,3*%
%TO.N,N/C*%
%TA.AperFunction,ComponentPad*%
G36*
G01*
X196250000Y-95425000D02*
X196250000Y-97175000D01*
G75*
G02*
X195375000Y-98050000I-875000J0D01*
G01*
X193625000Y-98050000D01*
G75*
G02*
X192750000Y-97175000I0J875000D01*
G01*
X192750000Y-95425000D01*
G75*
G02*
X193625000Y-94550000I875000J0D01*
G01*
X195375000Y-94550000D01*
G75*
G02*
X196250000Y-95425000I0J-875000D01*
G01*
G37*
%TD.AperFunction*%
%TD*%
D20*
%TO.P,LS2,2*%
%TO.N,Net-(C5-Pad2)*%
X196000000Y-85000000D03*
D21*
%TO.P,LS2,1*%
%TO.N,Net-(C6-Pad1)*%
X196000000Y-90000000D03*
%TD*%
%TO.P,LS1,1*%
%TO.N,Net-(C8-Pad1)*%
X195500000Y-115000000D03*
D20*
%TO.P,LS1,2*%
%TO.N,Net-(C7-Pad2)*%
X195500000Y-110000000D03*
%TD*%
D22*
%TO.P,J1,1*%
%TO.N,GND*%
X154100000Y-111430000D03*
D23*
%TO.P,J1,2*%
%TO.N,+5V*%
X154100000Y-108890000D03*
%TO.P,J1,3*%
%TO.N,i2c_scl*%
X154100000Y-106350000D03*
%TO.P,J1,4*%
%TO.N,i2c_sda*%
X154100000Y-103810000D03*
%TO.P,J1,5*%
%TO.N,i2s1_sd*%
X154100000Y-101270000D03*
%TO.P,J1,6*%
%TO.N,i2s1_ws*%
X154100000Y-98730000D03*
%TO.P,J1,7*%
%TO.N,i2s1_ck*%
X154100000Y-96190000D03*
%TO.P,J1,8*%
%TO.N,adc_vin*%
X154100000Y-93650000D03*
%TO.P,J1,9*%
%TO.N,tas_pdn*%
X154100000Y-91110000D03*
%TO.P,J1,10*%
%TO.N,tas_fault*%
X154100000Y-88570000D03*
%TD*%
%TO.P,R3,1*%
%TO.N,vin*%
%TA.AperFunction,SMDPad,CuDef*%
G36*
G01*
X163725000Y-89225000D02*
X163725000Y-89775000D01*
G75*
G02*
X163525000Y-89975000I-200000J0D01*
G01*
X163125000Y-89975000D01*
G75*
G02*
X162925000Y-89775000I0J200000D01*
G01*
X162925000Y-89225000D01*
G75*
G02*
X163125000Y-89025000I200000J0D01*
G01*
X163525000Y-89025000D01*
G75*
G02*
X163725000Y-89225000I0J-200000D01*
G01*
G37*
%TD.AperFunction*%
%TO.P,R3,2*%
%TO.N,adc_vin*%
%TA.AperFunction,SMDPad,CuDef*%
G36*
G01*
X162075000Y-89225000D02*
X162075000Y-89775000D01*
G75*
G02*
X161875000Y-89975000I-200000J0D01*
G01*
X161475000Y-89975000D01*
G75*
G02*
X161275000Y-89775000I0J200000D01*
G01*
X161275000Y-89225000D01*
G75*
G02*
X161475000Y-89025000I200000J0D01*
G01*
X161875000Y-89025000D01*
G75*
G02*
X162075000Y-89225000I0J-200000D01*
G01*
G37*
%TD.AperFunction*%
%TD*%
%TO.P,R4,2*%
%TO.N,GND*%
%TA.AperFunction,SMDPad,CuDef*%
G36*
G01*
X162925000Y-91275000D02*
X162925000Y-90725000D01*
G75*
G02*
X163125000Y-90525000I200000J0D01*
G01*
X163525000Y-90525000D01*
G75*
G02*
X163725000Y-90725000I0J-200000D01*
G01*
X163725000Y-91275000D01*
G75*
G02*
X163525000Y-91475000I-200000J0D01*
G01*
X163125000Y-91475000D01*
G75*
G02*
X162925000Y-91275000I0J200000D01*
G01*
G37*
%TD.AperFunction*%
%TO.P,R4,1*%
%TO.N,adc_vin*%
%TA.AperFunction,SMDPad,CuDef*%
G36*
G01*
X161275000Y-91275000D02*
X161275000Y-90725000D01*
G75*
G02*
X161475000Y-90525000I200000J0D01*
G01*
X161875000Y-90525000D01*
G75*
G02*
X162075000Y-90725000I0J-200000D01*
G01*
X162075000Y-91275000D01*
G75*
G02*
X161875000Y-91475000I-200000J0D01*
G01*
X161475000Y-91475000D01*
G75*
G02*
X161275000Y-91275000I0J200000D01*
G01*
G37*
%TD.AperFunction*%
%TD*%
%TO.P,C15,1*%
%TO.N,+5V*%
%TA.AperFunction,SMDPad,CuDef*%
G36*
G01*
X160225000Y-117550000D02*
X161175000Y-117550000D01*
G75*
G02*
X161425000Y-117800000I0J-250000D01*
G01*
X161425000Y-118300000D01*
G75*
G02*
X161175000Y-118550000I-250000J0D01*
G01*
X160225000Y-118550000D01*
G75*
G02*
X159975000Y-118300000I0J250000D01*
G01*
X159975000Y-117800000D01*
G75*
G02*
X160225000Y-117550000I250000J0D01*
G01*
G37*
%TD.AperFunction*%
%TO.P,C15,2*%
%TO.N,GND*%
%TA.AperFunction,SMDPad,CuDef*%
G36*
G01*
X160225000Y-119450000D02*
X161175000Y-119450000D01*
G75*
G02*
X161425000Y-119700000I0J-250000D01*
G01*
X161425000Y-120200000D01*
G75*
G02*
X161175000Y-120450000I-250000J0D01*
G01*
X160225000Y-120450000D01*
G75*
G02*
X159975000Y-120200000I0J250000D01*
G01*
X159975000Y-119700000D01*
G75*
G02*
X160225000Y-119450000I250000J0D01*
G01*
G37*
%TD.AperFunction*%
%TD*%
D24*
%TO.N,GND*%
X164580000Y-93660000D03*
X164580000Y-106320000D03*
X189000000Y-119050000D03*
X177500000Y-123250000D03*
X174000000Y-121900000D03*
X155300000Y-117100000D03*
X163100000Y-106320000D03*
X162000000Y-97890000D03*
X168199982Y-87200000D03*
X176249992Y-93440000D03*
X176000000Y-95200000D03*
X176250000Y-106550000D03*
X176030000Y-104800000D03*
X186960000Y-107790001D03*
X186960000Y-92200000D03*
X160700000Y-120900000D03*
X164200000Y-91000000D03*
X185000000Y-119969998D03*
X188200000Y-117300000D03*
X176000000Y-121900000D03*
X168000012Y-112800000D03*
X163000000Y-87200000D03*
X163000000Y-112800000D03*
%TO.N,vin*%
X169800000Y-87200000D03*
X172150000Y-93450000D03*
X172390000Y-95200000D03*
X172370000Y-104800000D03*
X172160000Y-106550000D03*
X171600000Y-95200000D03*
X171570000Y-104800000D03*
X166200000Y-89500000D03*
X189000000Y-120950000D03*
X185000000Y-122100000D03*
X170000000Y-112800000D03*
X175000000Y-112800000D03*
X175000000Y-87200000D03*
%TO.N,+3V3*%
X163080000Y-93670000D03*
X155300000Y-120900000D03*
%TD*%
D25*
%TO.N,Net-(C1-Pad2)*%
X174805000Y-96230000D02*
X175775000Y-97200000D01*
X173710000Y-96230000D02*
X174805000Y-96230000D01*
X172865000Y-97075000D02*
X173710000Y-96230000D01*
X171850000Y-97075000D02*
X172865000Y-97075000D01*
D26*
X178250000Y-93130000D02*
X178250000Y-89600000D01*
X176900000Y-94480000D02*
X178250000Y-93130000D01*
X176900000Y-96075000D02*
X176900000Y-94480000D01*
X175775000Y-97200000D02*
X176900000Y-96075000D01*
D27*
%TO.N,Net-(C1-Pad1)*%
X173700000Y-97725000D02*
X174225000Y-97200000D01*
X171850000Y-97725000D02*
X173700000Y-97725000D01*
D25*
%TO.N,Net-(C2-Pad2)*%
X174795000Y-103780000D02*
X175775000Y-102800000D01*
X173690000Y-103780000D02*
X174795000Y-103780000D01*
X172835000Y-102925000D02*
X173690000Y-103780000D01*
X171850000Y-102925000D02*
X172835000Y-102925000D01*
D26*
X178250000Y-106860000D02*
X178250000Y-110400000D01*
X176920000Y-105530000D02*
X178250000Y-106860000D01*
X176920000Y-103945000D02*
X176920000Y-105530000D01*
X175775000Y-102800000D02*
X176920000Y-103945000D01*
D27*
%TO.N,Net-(C2-Pad1)*%
X173775000Y-102800000D02*
X174225000Y-102800000D01*
X173250000Y-102275000D02*
X173775000Y-102800000D01*
X171850000Y-102275000D02*
X173250000Y-102275000D01*
%TO.N,Net-(C3-Pad1)*%
X173750000Y-99675000D02*
X174225000Y-99200000D01*
X171850000Y-99675000D02*
X173750000Y-99675000D01*
D26*
%TO.N,Net-(C3-Pad2)*%
X178250000Y-96725000D02*
X175775000Y-99200000D01*
X178250000Y-96500000D02*
X178250000Y-96725000D01*
D25*
X174835000Y-98260000D02*
X175775000Y-99200000D01*
X173600000Y-98260000D02*
X174835000Y-98260000D01*
X172835000Y-99025000D02*
X173600000Y-98260000D01*
X171850000Y-99025000D02*
X172835000Y-99025000D01*
D26*
%TO.N,Net-(C4-Pad2)*%
X178250000Y-103275000D02*
X175775000Y-100800000D01*
X178250000Y-103500000D02*
X178250000Y-103275000D01*
D25*
X174815000Y-101760000D02*
X175775000Y-100800000D01*
X173660000Y-101760000D02*
X174815000Y-101760000D01*
X172875000Y-100975000D02*
X173660000Y-101760000D01*
X171850000Y-100975000D02*
X172875000Y-100975000D01*
D27*
%TO.N,Net-(C4-Pad1)*%
X173750000Y-100325000D02*
X174225000Y-100800000D01*
X171850000Y-100325000D02*
X173750000Y-100325000D01*
%TO.N,GND*%
X169425000Y-100000000D02*
X169000000Y-100000000D01*
X171050000Y-98375000D02*
X169425000Y-100000000D01*
X171850000Y-98375000D02*
X171050000Y-98375000D01*
X170625000Y-101625000D02*
X169000000Y-100000000D01*
X171850000Y-101625000D02*
X170625000Y-101625000D01*
X167375000Y-98375000D02*
X169000000Y-100000000D01*
X166150000Y-98375000D02*
X167375000Y-98375000D01*
X169000000Y-102175000D02*
X169000000Y-100890000D01*
X166950000Y-104225000D02*
X169000000Y-102175000D01*
X166150000Y-104225000D02*
X166950000Y-104225000D01*
X169000000Y-97825000D02*
X169000000Y-100000000D01*
X166950000Y-95775000D02*
X169000000Y-97825000D01*
X166150000Y-95775000D02*
X166950000Y-95775000D01*
X191450000Y-100950000D02*
X191500000Y-101000000D01*
D26*
X188000000Y-100950000D02*
X191450000Y-100950000D01*
D27*
X163100000Y-105325000D02*
X163100000Y-106320000D01*
X164580000Y-105275000D02*
X164580000Y-106320000D01*
X164580000Y-94725000D02*
X164580000Y-93660000D01*
X163045000Y-97890000D02*
X162000000Y-97890000D01*
D26*
X165525000Y-87200000D02*
X168199982Y-87200000D01*
X174975000Y-95200000D02*
X176000000Y-95200000D01*
X174975000Y-93625000D02*
X175150000Y-93450000D01*
X174975000Y-95200000D02*
X174975000Y-93625000D01*
X175160000Y-93440000D02*
X175150000Y-93450000D01*
X176249992Y-93440000D02*
X175160000Y-93440000D01*
X176030000Y-104800000D02*
X174975000Y-104800000D01*
X176250000Y-106550000D02*
X175150000Y-106550000D01*
X174975000Y-106375000D02*
X175150000Y-106550000D01*
X174975000Y-104800000D02*
X174975000Y-106375000D01*
X186550000Y-92200000D02*
X185800000Y-91450000D01*
X186550000Y-92200000D02*
X185800000Y-92950000D01*
X186960000Y-92200000D02*
X186550000Y-92200000D01*
X186540001Y-107790001D02*
X185800000Y-107050000D01*
X186960000Y-107790001D02*
X186540001Y-107790001D01*
X186559999Y-107790001D02*
X185800000Y-108550000D01*
X186960000Y-107790001D02*
X186559999Y-107790001D01*
D27*
X163325000Y-91000000D02*
X164200000Y-91000000D01*
D26*
X155300000Y-117100000D02*
X155300000Y-118050000D01*
X157000000Y-118050000D02*
X155300000Y-118050000D01*
X160700000Y-119875000D02*
X160700000Y-120800000D01*
X187800000Y-119050000D02*
X189000000Y-119050000D01*
X185000000Y-118900000D02*
X185000000Y-119969998D01*
D27*
X187325000Y-117300000D02*
X188200000Y-117300000D01*
D26*
X178250000Y-123250000D02*
X177500000Y-123250000D01*
X176000000Y-120950000D02*
X176000000Y-121900000D01*
X174000000Y-120950000D02*
X174000000Y-121900000D01*
X165525000Y-112800000D02*
X168000012Y-112800000D01*
X165525000Y-87200000D02*
X163000000Y-87200000D01*
X165525000Y-112800000D02*
X163000000Y-112800000D01*
D27*
%TO.N,vin*%
X171850000Y-96425000D02*
X171850000Y-95775000D01*
X171850000Y-103575000D02*
X171850000Y-104225000D01*
X188125001Y-98924999D02*
X188000000Y-99050000D01*
D25*
X171850000Y-95450000D02*
X171600000Y-95200000D01*
X171850000Y-95775000D02*
X171850000Y-95450000D01*
X171850000Y-95740000D02*
X172390000Y-95200000D01*
X171850000Y-95775000D02*
X171850000Y-95740000D01*
X173425000Y-95200000D02*
X172390000Y-95200000D01*
X172390000Y-95200000D02*
X171600000Y-95200000D01*
X171850000Y-104520000D02*
X171570000Y-104800000D01*
X171850000Y-104225000D02*
X171850000Y-104520000D01*
X171850000Y-104280000D02*
X172370000Y-104800000D01*
X171850000Y-104225000D02*
X171850000Y-104280000D01*
X171570000Y-104800000D02*
X172370000Y-104800000D01*
X173425000Y-104800000D02*
X172370000Y-104800000D01*
X173250000Y-106550000D02*
X172160000Y-106550000D01*
X173250000Y-104975000D02*
X173425000Y-104800000D01*
X173250000Y-106550000D02*
X173250000Y-104975000D01*
X172160000Y-105390000D02*
X171570000Y-104800000D01*
X172160000Y-106550000D02*
X172160000Y-105390000D01*
X172160000Y-105010000D02*
X172370000Y-104800000D01*
X172160000Y-106550000D02*
X172160000Y-105010000D01*
X172150000Y-94960000D02*
X172390000Y-95200000D01*
X172150000Y-93450000D02*
X172150000Y-94960000D01*
X172150000Y-94650000D02*
X171600000Y-95200000D01*
X172150000Y-93450000D02*
X172150000Y-94650000D01*
X173425000Y-93625000D02*
X173250000Y-93450000D01*
X173425000Y-95200000D02*
X173425000Y-93625000D01*
X172150000Y-93450000D02*
X173250000Y-93450000D01*
D26*
X173250000Y-112025000D02*
X172475000Y-112800000D01*
X173250000Y-106550000D02*
X173250000Y-112025000D01*
X173250000Y-87975000D02*
X172475000Y-87200000D01*
X173250000Y-93450000D02*
X173250000Y-87975000D01*
X172475000Y-87200000D02*
X169800000Y-87200000D01*
D27*
X163325000Y-89500000D02*
X166200000Y-89500000D01*
D26*
X185000000Y-121100000D02*
X185000000Y-122100000D01*
X187800000Y-120950000D02*
X189000000Y-120950000D01*
D27*
X187550000Y-120950000D02*
X187800000Y-120950000D01*
D26*
X187550000Y-121050000D02*
X187550000Y-120950000D01*
X186500000Y-122100000D02*
X187550000Y-121050000D01*
X185000000Y-122100000D02*
X186500000Y-122100000D01*
X172475000Y-112800000D02*
X170000000Y-112800000D01*
X172475000Y-112800000D02*
X175000000Y-112800000D01*
X172475000Y-87200000D02*
X175000000Y-87200000D01*
X189550000Y-98700000D02*
X195200000Y-98700000D01*
X189200000Y-99050000D02*
X189550000Y-98700000D01*
X195200000Y-98700000D02*
X197500000Y-101000000D01*
X188000000Y-99050000D02*
X189200000Y-99050000D01*
%TO.N,+5V*%
X159750000Y-119000000D02*
X160700000Y-118050000D01*
X159000000Y-119000000D02*
X159750000Y-119000000D01*
X160700000Y-113700000D02*
X160700000Y-118050000D01*
X155890000Y-108890000D02*
X160700000Y-113700000D01*
X154100000Y-108890000D02*
X155890000Y-108890000D01*
X166350000Y-121050000D02*
X172000000Y-121050000D01*
X163350000Y-118050000D02*
X166350000Y-121050000D01*
X160700000Y-118050000D02*
X163350000Y-118050000D01*
D27*
%TO.N,+3V3*%
X164730000Y-96425000D02*
X164580000Y-96275000D01*
X166150000Y-96425000D02*
X164730000Y-96425000D01*
X163080000Y-94675000D02*
X163080000Y-93670000D01*
X163080000Y-94775000D02*
X164580000Y-96275000D01*
X163080000Y-94675000D02*
X163080000Y-94775000D01*
D26*
X155300000Y-119950000D02*
X155300000Y-120900000D01*
X157000000Y-119950000D02*
X155300000Y-119950000D01*
%TO.N,Net-(C17-Pad2)*%
X183725000Y-120775000D02*
X184050000Y-121100000D01*
X182400000Y-120775000D02*
X183725000Y-120775000D01*
X181260000Y-120775000D02*
X180485000Y-120000000D01*
X182400000Y-120775000D02*
X181260000Y-120775000D01*
X180350000Y-120135000D02*
X180485000Y-120000000D01*
X180350000Y-123250000D02*
X180350000Y-120135000D01*
%TO.N,Net-(C17-Pad1)*%
X183725000Y-119225000D02*
X182400000Y-119225000D01*
X184050000Y-118900000D02*
X183725000Y-119225000D01*
%TO.N,Net-(C18-Pad1)*%
X174000000Y-119050000D02*
X176000000Y-119050000D01*
X172100000Y-119050000D02*
X172000000Y-118950000D01*
X174000000Y-119050000D02*
X172100000Y-119050000D01*
X176950000Y-120000000D02*
X176000000Y-119050000D01*
X178115000Y-120000000D02*
X176950000Y-120000000D01*
D27*
X174800000Y-117300000D02*
X174000000Y-118100000D01*
X174000000Y-118100000D02*
X174000000Y-119050000D01*
X182675000Y-117300000D02*
X174800000Y-117300000D01*
%TO.N,Net-(C21-Pad2)*%
X164760000Y-97725000D02*
X164595000Y-97890000D01*
X166150000Y-97725000D02*
X164760000Y-97725000D01*
%TO.N,Net-(C22-Pad2)*%
X164730000Y-103575000D02*
X164580000Y-103725000D01*
X166150000Y-103575000D02*
X164730000Y-103575000D01*
%TO.N,Net-(R1-Pad1)*%
X185950000Y-117575000D02*
X185675000Y-117300000D01*
X185950000Y-118900000D02*
X185950000Y-117575000D01*
X184325000Y-117300000D02*
X185675000Y-117300000D01*
%TO.N,tas_fault*%
X163830000Y-97075000D02*
X163080000Y-96325000D01*
X166150000Y-97075000D02*
X163830000Y-97075000D01*
X155770000Y-88570000D02*
X154100000Y-88570000D01*
X158300000Y-91100000D02*
X155770000Y-88570000D01*
X158300000Y-93950000D02*
X158300000Y-91100000D01*
X160675000Y-96325000D02*
X158300000Y-93950000D01*
X163080000Y-96325000D02*
X160675000Y-96325000D01*
%TO.N,tas_pdn*%
X163850000Y-102925000D02*
X163100000Y-103675000D01*
X166150000Y-102925000D02*
X163850000Y-102925000D01*
X159175000Y-107600000D02*
X163100000Y-103675000D01*
X153421000Y-107600000D02*
X159175000Y-107600000D01*
X152300000Y-106479000D02*
X153421000Y-107600000D01*
X152300000Y-92910000D02*
X152300000Y-106479000D01*
X154100000Y-91110000D02*
X152300000Y-92910000D01*
%TO.N,i2c_sda*%
X157790000Y-103810000D02*
X154100000Y-103810000D01*
X159975000Y-101625000D02*
X157790000Y-103810000D01*
X166150000Y-101625000D02*
X159975000Y-101625000D01*
%TO.N,i2c_scl*%
X157850000Y-106350000D02*
X154100000Y-106350000D01*
X161925000Y-102275000D02*
X157850000Y-106350000D01*
X166150000Y-102275000D02*
X161925000Y-102275000D01*
D26*
%TO.N,Net-(C5-Pad2)*%
X183800000Y-89550000D02*
X183750000Y-89600000D01*
X185800000Y-89550000D02*
X183800000Y-89550000D01*
X191450000Y-89550000D02*
X196000000Y-85000000D01*
X185800000Y-89550000D02*
X191450000Y-89550000D01*
%TO.N,Net-(C6-Pad1)*%
X185400000Y-94850000D02*
X183750000Y-96500000D01*
X185800000Y-94850000D02*
X185400000Y-94850000D01*
X191150000Y-94850000D02*
X196000000Y-90000000D01*
X185800000Y-94850000D02*
X191150000Y-94850000D01*
%TO.N,Net-(C7-Pad2)*%
X184150000Y-103500000D02*
X185800000Y-105150000D01*
X183750000Y-103500000D02*
X184150000Y-103500000D01*
X190650000Y-105150000D02*
X195500000Y-110000000D01*
X185800000Y-105150000D02*
X190650000Y-105150000D01*
D27*
%TO.N,Net-(C8-Pad1)*%
X183800000Y-110450000D02*
X183750000Y-110400000D01*
D26*
X185750000Y-110400000D02*
X185800000Y-110450000D01*
X183750000Y-110400000D02*
X185750000Y-110400000D01*
X190950000Y-110450000D02*
X195500000Y-115000000D01*
X185800000Y-110450000D02*
X190950000Y-110450000D01*
D27*
%TO.N,i2s1_ws*%
X162025000Y-99025000D02*
X166150000Y-99025000D01*
X161730000Y-98730000D02*
X162025000Y-99025000D01*
X154100000Y-98730000D02*
X161730000Y-98730000D01*
%TO.N,i2s1_ck*%
X152800000Y-97490000D02*
X154100000Y-96190000D01*
X152800000Y-99234501D02*
X152800000Y-97490000D01*
X153565499Y-100000000D02*
X152800000Y-99234501D01*
X154650000Y-100000000D02*
X153565499Y-100000000D01*
X154975000Y-99675000D02*
X154650000Y-100000000D01*
X166150000Y-99675000D02*
X154975000Y-99675000D01*
%TO.N,i2s1_sd*%
X158630000Y-101270000D02*
X154100000Y-101270000D01*
X159575000Y-100325000D02*
X158630000Y-101270000D01*
X166150000Y-100325000D02*
X159575000Y-100325000D01*
%TO.N,adc_vin*%
X161675000Y-89500000D02*
X161675000Y-91000000D01*
X155400000Y-90605499D02*
X155400000Y-92350000D01*
X154634501Y-89840000D02*
X155400000Y-90605499D01*
X152740000Y-89040000D02*
X153540000Y-89840000D01*
X155400000Y-92350000D02*
X154100000Y-93650000D01*
X152740000Y-88000000D02*
X152740000Y-89040000D01*
X156410000Y-87210000D02*
X153530000Y-87210000D01*
X153540000Y-89840000D02*
X154634501Y-89840000D01*
X158700000Y-89500000D02*
X156410000Y-87210000D01*
X153530000Y-87210000D02*
X152740000Y-88000000D01*
X161675000Y-89500000D02*
X158700000Y-89500000D01*
%TD*%
M02*
