%TF.GenerationSoftware,KiCad,Pcbnew,5.1.9-73d0e3b20d~88~ubuntu20.04.1*%
%TF.CreationDate,2021-06-05T19:46:01+02:00*%
%TF.ProjectId,pooky,706f6f6b-792e-46b6-9963-61645f706362,v1.00*%
%TF.SameCoordinates,Original*%
%TF.FileFunction,Legend,Top*%
%TF.FilePolarity,Positive*%
%FSLAX46Y46*%
G04 Gerber Fmt 4.6, Leading zero omitted, Abs format (unit mm)*
G04 Created by KiCad (PCBNEW 5.1.9-73d0e3b20d~88~ubuntu20.04.1) date 2021-06-05 19:46:01*
%MOMM*%
%LPD*%
G01*
G04 APERTURE LIST*
%ADD10C,0.500000*%
%ADD11C,0.120000*%
%ADD12C,0.150000*%
G04 APERTURE END LIST*
D10*
X189142857Y-110761904D02*
X189142857Y-109238095D01*
X188238095Y-114892857D02*
X189761904Y-114892857D01*
X189000000Y-115654761D02*
X189000000Y-114130952D01*
X188738095Y-85142857D02*
X190261904Y-85142857D01*
X189500000Y-85904761D02*
X189500000Y-84380952D01*
X189642857Y-90761904D02*
X189642857Y-89238095D01*
X166238095Y-78154761D02*
X166238095Y-76154761D01*
X167000000Y-76154761D01*
X167190476Y-76250000D01*
X167285714Y-76345238D01*
X167380952Y-76535714D01*
X167380952Y-76821428D01*
X167285714Y-77011904D01*
X167190476Y-77107142D01*
X167000000Y-77202380D01*
X166238095Y-77202380D01*
X168523809Y-78154761D02*
X168333333Y-78059523D01*
X168238095Y-77964285D01*
X168142857Y-77773809D01*
X168142857Y-77202380D01*
X168238095Y-77011904D01*
X168333333Y-76916666D01*
X168523809Y-76821428D01*
X168809523Y-76821428D01*
X169000000Y-76916666D01*
X169095238Y-77011904D01*
X169190476Y-77202380D01*
X169190476Y-77773809D01*
X169095238Y-77964285D01*
X169000000Y-78059523D01*
X168809523Y-78154761D01*
X168523809Y-78154761D01*
X170333333Y-78154761D02*
X170142857Y-78059523D01*
X170047619Y-77964285D01*
X169952380Y-77773809D01*
X169952380Y-77202380D01*
X170047619Y-77011904D01*
X170142857Y-76916666D01*
X170333333Y-76821428D01*
X170619047Y-76821428D01*
X170809523Y-76916666D01*
X170904761Y-77011904D01*
X171000000Y-77202380D01*
X171000000Y-77773809D01*
X170904761Y-77964285D01*
X170809523Y-78059523D01*
X170619047Y-78154761D01*
X170333333Y-78154761D01*
X171857142Y-78154761D02*
X171857142Y-76154761D01*
X172047619Y-77392857D02*
X172619047Y-78154761D01*
X172619047Y-76821428D02*
X171857142Y-77583333D01*
X173285714Y-76821428D02*
X173761904Y-78154761D01*
X174238095Y-76821428D02*
X173761904Y-78154761D01*
X173571428Y-78630952D01*
X173476190Y-78726190D01*
X173285714Y-78821428D01*
X176333333Y-76821428D02*
X176809523Y-78154761D01*
X177285714Y-76821428D01*
X179095238Y-78154761D02*
X177952380Y-78154761D01*
X178523809Y-78154761D02*
X178523809Y-76154761D01*
X178333333Y-76440476D01*
X178142857Y-76630952D01*
X177952380Y-76726190D01*
X179952380Y-77964285D02*
X180047619Y-78059523D01*
X179952380Y-78154761D01*
X179857142Y-78059523D01*
X179952380Y-77964285D01*
X179952380Y-78154761D01*
X181285714Y-76154761D02*
X181476190Y-76154761D01*
X181666666Y-76250000D01*
X181761904Y-76345238D01*
X181857142Y-76535714D01*
X181952380Y-76916666D01*
X181952380Y-77392857D01*
X181857142Y-77773809D01*
X181761904Y-77964285D01*
X181666666Y-78059523D01*
X181476190Y-78154761D01*
X181285714Y-78154761D01*
X181095238Y-78059523D01*
X181000000Y-77964285D01*
X180904761Y-77773809D01*
X180809523Y-77392857D01*
X180809523Y-76916666D01*
X180904761Y-76535714D01*
X181000000Y-76345238D01*
X181095238Y-76250000D01*
X181285714Y-76154761D01*
X183190476Y-76154761D02*
X183380952Y-76154761D01*
X183571428Y-76250000D01*
X183666666Y-76345238D01*
X183761904Y-76535714D01*
X183857142Y-76916666D01*
X183857142Y-77392857D01*
X183761904Y-77773809D01*
X183666666Y-77964285D01*
X183571428Y-78059523D01*
X183380952Y-78154761D01*
X183190476Y-78154761D01*
X183000000Y-78059523D01*
X182904761Y-77964285D01*
X182809523Y-77773809D01*
X182714285Y-77392857D01*
X182714285Y-76916666D01*
X182809523Y-76535714D01*
X182904761Y-76345238D01*
X183000000Y-76250000D01*
X183190476Y-76154761D01*
X166333333Y-80321428D02*
X166714285Y-81654761D01*
X167095238Y-80702380D01*
X167476190Y-81654761D01*
X167857142Y-80321428D01*
X168428571Y-80321428D02*
X168809523Y-81654761D01*
X169190476Y-80702380D01*
X169571428Y-81654761D01*
X169952380Y-80321428D01*
X170523809Y-80321428D02*
X170904761Y-81654761D01*
X171285714Y-80702380D01*
X171666666Y-81654761D01*
X172047619Y-80321428D01*
X172809523Y-81464285D02*
X172904761Y-81559523D01*
X172809523Y-81654761D01*
X172714285Y-81559523D01*
X172809523Y-81464285D01*
X172809523Y-81654761D01*
X173666666Y-79845238D02*
X173761904Y-79750000D01*
X173952380Y-79654761D01*
X174428571Y-79654761D01*
X174619047Y-79750000D01*
X174714285Y-79845238D01*
X174809523Y-80035714D01*
X174809523Y-80226190D01*
X174714285Y-80511904D01*
X173571428Y-81654761D01*
X174809523Y-81654761D01*
X175666666Y-80892857D02*
X177190476Y-80892857D01*
X178523809Y-79654761D02*
X178714285Y-79654761D01*
X178904761Y-79750000D01*
X179000000Y-79845238D01*
X179095238Y-80035714D01*
X179190476Y-80416666D01*
X179190476Y-80892857D01*
X179095238Y-81273809D01*
X179000000Y-81464285D01*
X178904761Y-81559523D01*
X178714285Y-81654761D01*
X178523809Y-81654761D01*
X178333333Y-81559523D01*
X178238095Y-81464285D01*
X178142857Y-81273809D01*
X178047619Y-80892857D01*
X178047619Y-80416666D01*
X178142857Y-80035714D01*
X178238095Y-79845238D01*
X178333333Y-79750000D01*
X178523809Y-79654761D01*
X180047619Y-81464285D02*
X180142857Y-81559523D01*
X180047619Y-81654761D01*
X179952380Y-81559523D01*
X180047619Y-81464285D01*
X180047619Y-81654761D01*
X181857142Y-81654761D02*
X181857142Y-79654761D01*
X181857142Y-81559523D02*
X181666666Y-81654761D01*
X181285714Y-81654761D01*
X181095238Y-81559523D01*
X181000000Y-81464285D01*
X180904761Y-81273809D01*
X180904761Y-80702380D01*
X181000000Y-80511904D01*
X181095238Y-80416666D01*
X181285714Y-80321428D01*
X181666666Y-80321428D01*
X181857142Y-80416666D01*
X182809523Y-81654761D02*
X182809523Y-79654761D01*
X183000000Y-80892857D02*
X183571428Y-81654761D01*
X183571428Y-80321428D02*
X182809523Y-81083333D01*
D11*
%TO.C,L5*%
X177146000Y-117846000D02*
X181454000Y-117846000D01*
X181454000Y-122154000D02*
X177146000Y-122154000D01*
%TO.C,C1*%
X174859420Y-97710000D02*
X175140580Y-97710000D01*
X174859420Y-96690000D02*
X175140580Y-96690000D01*
%TO.C,C2*%
X174859420Y-103310000D02*
X175140580Y-103310000D01*
X174859420Y-102290000D02*
X175140580Y-102290000D01*
%TO.C,C3*%
X174859420Y-98690000D02*
X175140580Y-98690000D01*
X174859420Y-99710000D02*
X175140580Y-99710000D01*
%TO.C,C4*%
X174859420Y-101310000D02*
X175140580Y-101310000D01*
X174859420Y-100290000D02*
X175140580Y-100290000D01*
%TO.C,C5*%
X186535000Y-90761252D02*
X186535000Y-90238748D01*
X185065000Y-90761252D02*
X185065000Y-90238748D01*
%TO.C,C6*%
X186535000Y-94161252D02*
X186535000Y-93638748D01*
X185065000Y-94161252D02*
X185065000Y-93638748D01*
%TO.C,C7*%
X185065000Y-106361252D02*
X185065000Y-105838748D01*
X186535000Y-106361252D02*
X186535000Y-105838748D01*
%TO.C,C8*%
X185065000Y-109761252D02*
X185065000Y-109238748D01*
X186535000Y-109761252D02*
X186535000Y-109238748D01*
%TO.C,C9*%
X174059420Y-94690000D02*
X174340580Y-94690000D01*
X174059420Y-95710000D02*
X174340580Y-95710000D01*
%TO.C,C10*%
X174059420Y-104290000D02*
X174340580Y-104290000D01*
X174059420Y-105310000D02*
X174340580Y-105310000D01*
%TO.C,C11*%
X173938748Y-92715000D02*
X174461252Y-92715000D01*
X173938748Y-94185000D02*
X174461252Y-94185000D01*
%TO.C,C12*%
X173938748Y-105815000D02*
X174461252Y-105815000D01*
X173938748Y-107285000D02*
X174461252Y-107285000D01*
%TO.C,C13*%
X188735000Y-99738748D02*
X188735000Y-100261252D01*
X187265000Y-99738748D02*
X187265000Y-100261252D01*
%TO.C,C14*%
X188535000Y-120261252D02*
X188535000Y-119738748D01*
X187065000Y-120261252D02*
X187065000Y-119738748D01*
%TO.C,C16*%
X156035000Y-119261252D02*
X156035000Y-118738748D01*
X154565000Y-119261252D02*
X154565000Y-118738748D01*
%TO.C,C17*%
X181890000Y-119859420D02*
X181890000Y-120140580D01*
X182910000Y-119859420D02*
X182910000Y-120140580D01*
%TO.C,C18*%
X173265000Y-119738748D02*
X173265000Y-120261252D01*
X174735000Y-119738748D02*
X174735000Y-120261252D01*
%TO.C,C19*%
X176735000Y-119738748D02*
X176735000Y-120261252D01*
X175265000Y-119738748D02*
X175265000Y-120261252D01*
%TO.C,C20*%
X164070000Y-95359420D02*
X164070000Y-95640580D01*
X165090000Y-95359420D02*
X165090000Y-95640580D01*
%TO.C,C21*%
X163679420Y-97380000D02*
X163960580Y-97380000D01*
X163679420Y-98400000D02*
X163960580Y-98400000D01*
%TO.C,C22*%
X164070000Y-104640580D02*
X164070000Y-104359420D01*
X165090000Y-104640580D02*
X165090000Y-104359420D01*
%TO.C,C24*%
X164740000Y-82940000D02*
X164740000Y-85990000D01*
X164740000Y-91460000D02*
X164740000Y-88410000D01*
X172195563Y-91460000D02*
X164740000Y-91460000D01*
X172195563Y-82940000D02*
X164740000Y-82940000D01*
X173260000Y-84004437D02*
X173260000Y-85990000D01*
X173260000Y-90395563D02*
X173260000Y-88410000D01*
X173260000Y-90395563D02*
X172195563Y-91460000D01*
X173260000Y-84004437D02*
X172195563Y-82940000D01*
X174500000Y-89410000D02*
X173500000Y-89410000D01*
X174000000Y-89910000D02*
X174000000Y-88910000D01*
%TO.C,C36*%
X174000000Y-115510000D02*
X174000000Y-114510000D01*
X174500000Y-115010000D02*
X173500000Y-115010000D01*
X173260000Y-109604437D02*
X172195563Y-108540000D01*
X173260000Y-115995563D02*
X172195563Y-117060000D01*
X173260000Y-115995563D02*
X173260000Y-114010000D01*
X173260000Y-109604437D02*
X173260000Y-111590000D01*
X172195563Y-108540000D02*
X164740000Y-108540000D01*
X172195563Y-117060000D02*
X164740000Y-117060000D01*
X164740000Y-117060000D02*
X164740000Y-114010000D01*
X164740000Y-108540000D02*
X164740000Y-111590000D01*
%TO.C,D1*%
X180800000Y-124100000D02*
X178250000Y-124100000D01*
X180800000Y-122400000D02*
X178250000Y-122400000D01*
X180800000Y-124100000D02*
X180800000Y-122400000D01*
%TO.C,D2*%
X171150000Y-121500000D02*
X172850000Y-121500000D01*
X172850000Y-121500000D02*
X172850000Y-118950000D01*
X171150000Y-121500000D02*
X171150000Y-118950000D01*
%TO.C,L1*%
X184300000Y-86400000D02*
X184300000Y-88100000D01*
X177700000Y-86400000D02*
X184300000Y-86400000D01*
X177700000Y-88100000D02*
X177700000Y-86400000D01*
X177700000Y-92800000D02*
X177700000Y-91100000D01*
X184300000Y-92800000D02*
X177700000Y-92800000D01*
X184300000Y-91100000D02*
X184300000Y-92800000D01*
%TO.C,L2*%
X184300000Y-111900000D02*
X184300000Y-113600000D01*
X184300000Y-113600000D02*
X177700000Y-113600000D01*
X177700000Y-113600000D02*
X177700000Y-111900000D01*
X177700000Y-108900000D02*
X177700000Y-107200000D01*
X177700000Y-107200000D02*
X184300000Y-107200000D01*
X184300000Y-107200000D02*
X184300000Y-108900000D01*
%TO.C,L3*%
X184300000Y-93300000D02*
X184300000Y-95000000D01*
X177700000Y-93300000D02*
X184300000Y-93300000D01*
X177700000Y-95000000D02*
X177700000Y-93300000D01*
X177700000Y-99700000D02*
X177700000Y-98000000D01*
X184300000Y-99700000D02*
X177700000Y-99700000D01*
X184300000Y-98000000D02*
X184300000Y-99700000D01*
%TO.C,L4*%
X184300000Y-105000000D02*
X184300000Y-106700000D01*
X184300000Y-106700000D02*
X177700000Y-106700000D01*
X177700000Y-106700000D02*
X177700000Y-105000000D01*
X177700000Y-102000000D02*
X177700000Y-100300000D01*
X177700000Y-100300000D02*
X184300000Y-100300000D01*
X184300000Y-100300000D02*
X184300000Y-102000000D01*
%TO.C,R1*%
X186262742Y-117822500D02*
X186737258Y-117822500D01*
X186262742Y-116777500D02*
X186737258Y-116777500D01*
%TO.C,R2*%
X183262742Y-116777500D02*
X183737258Y-116777500D01*
X183262742Y-117822500D02*
X183737258Y-117822500D01*
%TO.C,R15*%
X162557500Y-95737258D02*
X162557500Y-95262742D01*
X163602500Y-95737258D02*
X163602500Y-95262742D01*
%TO.C,R23*%
X163622500Y-104737258D02*
X163622500Y-104262742D01*
X162577500Y-104737258D02*
X162577500Y-104262742D01*
D12*
%TO.C,U1*%
X166675000Y-95025000D02*
X166675000Y-95250000D01*
X171325000Y-95025000D02*
X171325000Y-95350000D01*
X171325000Y-105025800D02*
X171325000Y-104700800D01*
X166675000Y-105025800D02*
X166675000Y-104700800D01*
X166675000Y-95025000D02*
X171325000Y-95025000D01*
X166675000Y-105025800D02*
X171325000Y-105025800D01*
X166675000Y-95250000D02*
X165600000Y-95250000D01*
D11*
%TO.C,U2*%
X186610000Y-120900000D02*
X186610000Y-119100000D01*
X183390000Y-119100000D02*
X183390000Y-121550000D01*
%TO.C,U3*%
X158760000Y-120580000D02*
X158760000Y-119650000D01*
X158760000Y-117420000D02*
X158760000Y-118350000D01*
X158760000Y-117420000D02*
X156600000Y-117420000D01*
X158760000Y-120580000D02*
X157300000Y-120580000D01*
%TO.C,J5*%
X190400000Y-104750000D02*
X190400000Y-105800000D01*
X191450000Y-105800000D02*
X190400000Y-105800000D01*
X196500000Y-96400000D02*
X205300000Y-96400000D01*
X205300000Y-96400000D02*
X205300000Y-105600000D01*
X190600000Y-99100000D02*
X190600000Y-96400000D01*
X190600000Y-96400000D02*
X192500000Y-96400000D01*
X205300000Y-105600000D02*
X190600000Y-105600000D01*
X190600000Y-105600000D02*
X190600000Y-103000000D01*
%TO.C,LS2*%
X193900000Y-90000000D02*
G75*
G03*
X193900000Y-90000000I-900000J0D01*
G01*
X197680000Y-85000000D02*
G75*
G03*
X197680000Y-85000000I-1680000J0D01*
G01*
X193900000Y-85000000D02*
G75*
G03*
X193900000Y-85000000I-900000J0D01*
G01*
X198500000Y-92560000D02*
X198500000Y-82440000D01*
X190940000Y-92560000D02*
X190940000Y-82440000D01*
X200060000Y-92560000D02*
X200060000Y-82440000D01*
X190940000Y-92560000D02*
X200060000Y-92560000D01*
X190940000Y-82440000D02*
X200060000Y-82440000D01*
X194931000Y-83725000D02*
X195024000Y-83819000D01*
X197216000Y-86010000D02*
X197274000Y-86069000D01*
X194725000Y-83930000D02*
X194784000Y-83989000D01*
X196976000Y-86180000D02*
X197069000Y-86274000D01*
X198560000Y-92800000D02*
X200300000Y-92800000D01*
X200300000Y-92800000D02*
X200300000Y-91300000D01*
X197680450Y-89970617D02*
G75*
G02*
X197484000Y-90789000I-1680450J-29383D01*
G01*
X196789088Y-91483953D02*
G75*
G02*
X195211000Y-91484000I-789088J1483953D01*
G01*
X194516047Y-90789088D02*
G75*
G02*
X194516000Y-89211000I1483953J789088D01*
G01*
X195210912Y-88516047D02*
G75*
G02*
X196789000Y-88516000I789088J-1483953D01*
G01*
X197483352Y-89211288D02*
G75*
G02*
X197680000Y-90000000I-1483352J-788712D01*
G01*
%TO.C,LS1*%
X199800000Y-117800000D02*
X199800000Y-116300000D01*
X198060000Y-117800000D02*
X199800000Y-117800000D01*
X196476000Y-111180000D02*
X196569000Y-111274000D01*
X194225000Y-108930000D02*
X194284000Y-108989000D01*
X196716000Y-111010000D02*
X196774000Y-111069000D01*
X194431000Y-108725000D02*
X194524000Y-108819000D01*
X190440000Y-107440000D02*
X199560000Y-107440000D01*
X190440000Y-117560000D02*
X199560000Y-117560000D01*
X199560000Y-117560000D02*
X199560000Y-107440000D01*
X190440000Y-117560000D02*
X190440000Y-107440000D01*
X198000000Y-117560000D02*
X198000000Y-107440000D01*
X193400000Y-110000000D02*
G75*
G03*
X193400000Y-110000000I-900000J0D01*
G01*
X197180000Y-110000000D02*
G75*
G03*
X197180000Y-110000000I-1680000J0D01*
G01*
X193400000Y-115000000D02*
G75*
G03*
X193400000Y-115000000I-900000J0D01*
G01*
X196983352Y-114211288D02*
G75*
G02*
X197180000Y-115000000I-1483352J-788712D01*
G01*
X194710912Y-113516047D02*
G75*
G02*
X196289000Y-113516000I789088J-1483953D01*
G01*
X194016047Y-115789088D02*
G75*
G02*
X194016000Y-114211000I1483953J789088D01*
G01*
X196289088Y-116483953D02*
G75*
G02*
X194711000Y-116484000I-789088J1483953D01*
G01*
X197180450Y-114970617D02*
G75*
G02*
X196984000Y-115789000I-1680450J-29383D01*
G01*
%TO.C,J1*%
X152660000Y-112760000D02*
X152660000Y-87240000D01*
X152660000Y-87240000D02*
X150000000Y-87240000D01*
X150000000Y-87240000D02*
X150000000Y-112760000D01*
X150000000Y-112760000D02*
X152660000Y-112760000D01*
X150000000Y-111810000D02*
X144000000Y-111810000D01*
X144000000Y-111810000D02*
X144000000Y-111050000D01*
X144000000Y-111050000D02*
X150000000Y-111050000D01*
X150000000Y-111750000D02*
X144000000Y-111750000D01*
X150000000Y-111630000D02*
X144000000Y-111630000D01*
X150000000Y-111510000D02*
X144000000Y-111510000D01*
X150000000Y-111390000D02*
X144000000Y-111390000D01*
X150000000Y-111270000D02*
X144000000Y-111270000D01*
X150000000Y-111150000D02*
X144000000Y-111150000D01*
X152990000Y-111810000D02*
X152660000Y-111810000D01*
X152990000Y-111050000D02*
X152660000Y-111050000D01*
X152660000Y-110160000D02*
X150000000Y-110160000D01*
X150000000Y-109270000D02*
X144000000Y-109270000D01*
X144000000Y-109270000D02*
X144000000Y-108510000D01*
X144000000Y-108510000D02*
X150000000Y-108510000D01*
X153057071Y-109270000D02*
X152660000Y-109270000D01*
X153057071Y-108510000D02*
X152660000Y-108510000D01*
X152660000Y-107620000D02*
X150000000Y-107620000D01*
X150000000Y-106730000D02*
X144000000Y-106730000D01*
X144000000Y-106730000D02*
X144000000Y-105970000D01*
X144000000Y-105970000D02*
X150000000Y-105970000D01*
X153057071Y-106730000D02*
X152660000Y-106730000D01*
X153057071Y-105970000D02*
X152660000Y-105970000D01*
X152660000Y-105080000D02*
X150000000Y-105080000D01*
X150000000Y-104190000D02*
X144000000Y-104190000D01*
X144000000Y-104190000D02*
X144000000Y-103430000D01*
X144000000Y-103430000D02*
X150000000Y-103430000D01*
X153057071Y-104190000D02*
X152660000Y-104190000D01*
X153057071Y-103430000D02*
X152660000Y-103430000D01*
X152660000Y-102540000D02*
X150000000Y-102540000D01*
X150000000Y-101650000D02*
X144000000Y-101650000D01*
X144000000Y-101650000D02*
X144000000Y-100890000D01*
X144000000Y-100890000D02*
X150000000Y-100890000D01*
X153057071Y-101650000D02*
X152660000Y-101650000D01*
X153057071Y-100890000D02*
X152660000Y-100890000D01*
X152660000Y-100000000D02*
X150000000Y-100000000D01*
X150000000Y-99110000D02*
X144000000Y-99110000D01*
X144000000Y-99110000D02*
X144000000Y-98350000D01*
X144000000Y-98350000D02*
X150000000Y-98350000D01*
X153057071Y-99110000D02*
X152660000Y-99110000D01*
X153057071Y-98350000D02*
X152660000Y-98350000D01*
X152660000Y-97460000D02*
X150000000Y-97460000D01*
X150000000Y-96570000D02*
X144000000Y-96570000D01*
X144000000Y-96570000D02*
X144000000Y-95810000D01*
X144000000Y-95810000D02*
X150000000Y-95810000D01*
X153057071Y-96570000D02*
X152660000Y-96570000D01*
X153057071Y-95810000D02*
X152660000Y-95810000D01*
X152660000Y-94920000D02*
X150000000Y-94920000D01*
X150000000Y-94030000D02*
X144000000Y-94030000D01*
X144000000Y-94030000D02*
X144000000Y-93270000D01*
X144000000Y-93270000D02*
X150000000Y-93270000D01*
X153057071Y-94030000D02*
X152660000Y-94030000D01*
X153057071Y-93270000D02*
X152660000Y-93270000D01*
X152660000Y-92380000D02*
X150000000Y-92380000D01*
X150000000Y-91490000D02*
X144000000Y-91490000D01*
X144000000Y-91490000D02*
X144000000Y-90730000D01*
X144000000Y-90730000D02*
X150000000Y-90730000D01*
X153057071Y-91490000D02*
X152660000Y-91490000D01*
X153057071Y-90730000D02*
X152660000Y-90730000D01*
X152660000Y-89840000D02*
X150000000Y-89840000D01*
X150000000Y-88950000D02*
X144000000Y-88950000D01*
X144000000Y-88950000D02*
X144000000Y-88190000D01*
X144000000Y-88190000D02*
X150000000Y-88190000D01*
X153057071Y-88950000D02*
X152660000Y-88950000D01*
X153057071Y-88190000D02*
X152660000Y-88190000D01*
X155370000Y-111430000D02*
X155370000Y-112700000D01*
X155370000Y-112700000D02*
X154100000Y-112700000D01*
%TO.C,R3*%
X162737258Y-90022500D02*
X162262742Y-90022500D01*
X162737258Y-88977500D02*
X162262742Y-88977500D01*
%TO.C,R4*%
X162262742Y-91522500D02*
X162737258Y-91522500D01*
X162262742Y-90477500D02*
X162737258Y-90477500D01*
%TO.C,C15*%
X159965000Y-118738748D02*
X159965000Y-119261252D01*
X161435000Y-118738748D02*
X161435000Y-119261252D01*
%TO.C,L5*%
D12*
X179133333Y-117552380D02*
X178657142Y-117552380D01*
X178657142Y-116552380D01*
X179942857Y-116552380D02*
X179466666Y-116552380D01*
X179419047Y-117028571D01*
X179466666Y-116980952D01*
X179561904Y-116933333D01*
X179800000Y-116933333D01*
X179895238Y-116980952D01*
X179942857Y-117028571D01*
X179990476Y-117123809D01*
X179990476Y-117361904D01*
X179942857Y-117457142D01*
X179895238Y-117504761D01*
X179800000Y-117552380D01*
X179561904Y-117552380D01*
X179466666Y-117504761D01*
X179419047Y-117457142D01*
%TO.C,C1*%
X177277142Y-97366666D02*
X177324761Y-97414285D01*
X177372380Y-97557142D01*
X177372380Y-97652380D01*
X177324761Y-97795238D01*
X177229523Y-97890476D01*
X177134285Y-97938095D01*
X176943809Y-97985714D01*
X176800952Y-97985714D01*
X176610476Y-97938095D01*
X176515238Y-97890476D01*
X176420000Y-97795238D01*
X176372380Y-97652380D01*
X176372380Y-97557142D01*
X176420000Y-97414285D01*
X176467619Y-97366666D01*
X177372380Y-96414285D02*
X177372380Y-96985714D01*
X177372380Y-96700000D02*
X176372380Y-96700000D01*
X176515238Y-96795238D01*
X176610476Y-96890476D01*
X176658095Y-96985714D01*
%TO.C,C2*%
X177257142Y-102966666D02*
X177304761Y-103014285D01*
X177352380Y-103157142D01*
X177352380Y-103252380D01*
X177304761Y-103395238D01*
X177209523Y-103490476D01*
X177114285Y-103538095D01*
X176923809Y-103585714D01*
X176780952Y-103585714D01*
X176590476Y-103538095D01*
X176495238Y-103490476D01*
X176400000Y-103395238D01*
X176352380Y-103252380D01*
X176352380Y-103157142D01*
X176400000Y-103014285D01*
X176447619Y-102966666D01*
X176447619Y-102585714D02*
X176400000Y-102538095D01*
X176352380Y-102442857D01*
X176352380Y-102204761D01*
X176400000Y-102109523D01*
X176447619Y-102061904D01*
X176542857Y-102014285D01*
X176638095Y-102014285D01*
X176780952Y-102061904D01*
X177352380Y-102633333D01*
X177352380Y-102014285D01*
%TO.C,C3*%
X177287142Y-99356666D02*
X177334761Y-99404285D01*
X177382380Y-99547142D01*
X177382380Y-99642380D01*
X177334761Y-99785238D01*
X177239523Y-99880476D01*
X177144285Y-99928095D01*
X176953809Y-99975714D01*
X176810952Y-99975714D01*
X176620476Y-99928095D01*
X176525238Y-99880476D01*
X176430000Y-99785238D01*
X176382380Y-99642380D01*
X176382380Y-99547142D01*
X176430000Y-99404285D01*
X176477619Y-99356666D01*
X176382380Y-99023333D02*
X176382380Y-98404285D01*
X176763333Y-98737619D01*
X176763333Y-98594761D01*
X176810952Y-98499523D01*
X176858571Y-98451904D01*
X176953809Y-98404285D01*
X177191904Y-98404285D01*
X177287142Y-98451904D01*
X177334761Y-98499523D01*
X177382380Y-98594761D01*
X177382380Y-98880476D01*
X177334761Y-98975714D01*
X177287142Y-99023333D01*
%TO.C,C4*%
X177267142Y-100966666D02*
X177314761Y-101014285D01*
X177362380Y-101157142D01*
X177362380Y-101252380D01*
X177314761Y-101395238D01*
X177219523Y-101490476D01*
X177124285Y-101538095D01*
X176933809Y-101585714D01*
X176790952Y-101585714D01*
X176600476Y-101538095D01*
X176505238Y-101490476D01*
X176410000Y-101395238D01*
X176362380Y-101252380D01*
X176362380Y-101157142D01*
X176410000Y-101014285D01*
X176457619Y-100966666D01*
X176695714Y-100109523D02*
X177362380Y-100109523D01*
X176314761Y-100347619D02*
X177029047Y-100585714D01*
X177029047Y-99966666D01*
%TO.C,C5*%
X188117142Y-90626666D02*
X188164761Y-90674285D01*
X188212380Y-90817142D01*
X188212380Y-90912380D01*
X188164761Y-91055238D01*
X188069523Y-91150476D01*
X187974285Y-91198095D01*
X187783809Y-91245714D01*
X187640952Y-91245714D01*
X187450476Y-91198095D01*
X187355238Y-91150476D01*
X187260000Y-91055238D01*
X187212380Y-90912380D01*
X187212380Y-90817142D01*
X187260000Y-90674285D01*
X187307619Y-90626666D01*
X187212380Y-89721904D02*
X187212380Y-90198095D01*
X187688571Y-90245714D01*
X187640952Y-90198095D01*
X187593333Y-90102857D01*
X187593333Y-89864761D01*
X187640952Y-89769523D01*
X187688571Y-89721904D01*
X187783809Y-89674285D01*
X188021904Y-89674285D01*
X188117142Y-89721904D01*
X188164761Y-89769523D01*
X188212380Y-89864761D01*
X188212380Y-90102857D01*
X188164761Y-90198095D01*
X188117142Y-90245714D01*
%TO.C,C6*%
X187917142Y-94246666D02*
X187964761Y-94294285D01*
X188012380Y-94437142D01*
X188012380Y-94532380D01*
X187964761Y-94675238D01*
X187869523Y-94770476D01*
X187774285Y-94818095D01*
X187583809Y-94865714D01*
X187440952Y-94865714D01*
X187250476Y-94818095D01*
X187155238Y-94770476D01*
X187060000Y-94675238D01*
X187012380Y-94532380D01*
X187012380Y-94437142D01*
X187060000Y-94294285D01*
X187107619Y-94246666D01*
X187012380Y-93389523D02*
X187012380Y-93580000D01*
X187060000Y-93675238D01*
X187107619Y-93722857D01*
X187250476Y-93818095D01*
X187440952Y-93865714D01*
X187821904Y-93865714D01*
X187917142Y-93818095D01*
X187964761Y-93770476D01*
X188012380Y-93675238D01*
X188012380Y-93484761D01*
X187964761Y-93389523D01*
X187917142Y-93341904D01*
X187821904Y-93294285D01*
X187583809Y-93294285D01*
X187488571Y-93341904D01*
X187440952Y-93389523D01*
X187393333Y-93484761D01*
X187393333Y-93675238D01*
X187440952Y-93770476D01*
X187488571Y-93818095D01*
X187583809Y-93865714D01*
%TO.C,C7*%
X188157142Y-106456666D02*
X188204761Y-106504285D01*
X188252380Y-106647142D01*
X188252380Y-106742380D01*
X188204761Y-106885238D01*
X188109523Y-106980476D01*
X188014285Y-107028095D01*
X187823809Y-107075714D01*
X187680952Y-107075714D01*
X187490476Y-107028095D01*
X187395238Y-106980476D01*
X187300000Y-106885238D01*
X187252380Y-106742380D01*
X187252380Y-106647142D01*
X187300000Y-106504285D01*
X187347619Y-106456666D01*
X187252380Y-106123333D02*
X187252380Y-105456666D01*
X188252380Y-105885238D01*
%TO.C,C8*%
X187987142Y-109646666D02*
X188034761Y-109694285D01*
X188082380Y-109837142D01*
X188082380Y-109932380D01*
X188034761Y-110075238D01*
X187939523Y-110170476D01*
X187844285Y-110218095D01*
X187653809Y-110265714D01*
X187510952Y-110265714D01*
X187320476Y-110218095D01*
X187225238Y-110170476D01*
X187130000Y-110075238D01*
X187082380Y-109932380D01*
X187082380Y-109837142D01*
X187130000Y-109694285D01*
X187177619Y-109646666D01*
X187510952Y-109075238D02*
X187463333Y-109170476D01*
X187415714Y-109218095D01*
X187320476Y-109265714D01*
X187272857Y-109265714D01*
X187177619Y-109218095D01*
X187130000Y-109170476D01*
X187082380Y-109075238D01*
X187082380Y-108884761D01*
X187130000Y-108789523D01*
X187177619Y-108741904D01*
X187272857Y-108694285D01*
X187320476Y-108694285D01*
X187415714Y-108741904D01*
X187463333Y-108789523D01*
X187510952Y-108884761D01*
X187510952Y-109075238D01*
X187558571Y-109170476D01*
X187606190Y-109218095D01*
X187701428Y-109265714D01*
X187891904Y-109265714D01*
X187987142Y-109218095D01*
X188034761Y-109170476D01*
X188082380Y-109075238D01*
X188082380Y-108884761D01*
X188034761Y-108789523D01*
X187987142Y-108741904D01*
X187891904Y-108694285D01*
X187701428Y-108694285D01*
X187606190Y-108741904D01*
X187558571Y-108789523D01*
X187510952Y-108884761D01*
%TO.C,C9*%
X171303333Y-94597142D02*
X171255714Y-94644761D01*
X171112857Y-94692380D01*
X171017619Y-94692380D01*
X170874761Y-94644761D01*
X170779523Y-94549523D01*
X170731904Y-94454285D01*
X170684285Y-94263809D01*
X170684285Y-94120952D01*
X170731904Y-93930476D01*
X170779523Y-93835238D01*
X170874761Y-93740000D01*
X171017619Y-93692380D01*
X171112857Y-93692380D01*
X171255714Y-93740000D01*
X171303333Y-93787619D01*
X171779523Y-94692380D02*
X171970000Y-94692380D01*
X172065238Y-94644761D01*
X172112857Y-94597142D01*
X172208095Y-94454285D01*
X172255714Y-94263809D01*
X172255714Y-93882857D01*
X172208095Y-93787619D01*
X172160476Y-93740000D01*
X172065238Y-93692380D01*
X171874761Y-93692380D01*
X171779523Y-93740000D01*
X171731904Y-93787619D01*
X171684285Y-93882857D01*
X171684285Y-94120952D01*
X171731904Y-94216190D01*
X171779523Y-94263809D01*
X171874761Y-94311428D01*
X172065238Y-94311428D01*
X172160476Y-94263809D01*
X172208095Y-94216190D01*
X172255714Y-94120952D01*
%TO.C,C10*%
X170417142Y-106237142D02*
X170369523Y-106284761D01*
X170226666Y-106332380D01*
X170131428Y-106332380D01*
X169988571Y-106284761D01*
X169893333Y-106189523D01*
X169845714Y-106094285D01*
X169798095Y-105903809D01*
X169798095Y-105760952D01*
X169845714Y-105570476D01*
X169893333Y-105475238D01*
X169988571Y-105380000D01*
X170131428Y-105332380D01*
X170226666Y-105332380D01*
X170369523Y-105380000D01*
X170417142Y-105427619D01*
X171369523Y-106332380D02*
X170798095Y-106332380D01*
X171083809Y-106332380D02*
X171083809Y-105332380D01*
X170988571Y-105475238D01*
X170893333Y-105570476D01*
X170798095Y-105618095D01*
X171988571Y-105332380D02*
X172083809Y-105332380D01*
X172179047Y-105380000D01*
X172226666Y-105427619D01*
X172274285Y-105522857D01*
X172321904Y-105713333D01*
X172321904Y-105951428D01*
X172274285Y-106141904D01*
X172226666Y-106237142D01*
X172179047Y-106284761D01*
X172083809Y-106332380D01*
X171988571Y-106332380D01*
X171893333Y-106284761D01*
X171845714Y-106237142D01*
X171798095Y-106141904D01*
X171750476Y-105951428D01*
X171750476Y-105713333D01*
X171798095Y-105522857D01*
X171845714Y-105427619D01*
X171893333Y-105380000D01*
X171988571Y-105332380D01*
%TO.C,C11*%
X173567142Y-92207142D02*
X173519523Y-92254761D01*
X173376666Y-92302380D01*
X173281428Y-92302380D01*
X173138571Y-92254761D01*
X173043333Y-92159523D01*
X172995714Y-92064285D01*
X172948095Y-91873809D01*
X172948095Y-91730952D01*
X172995714Y-91540476D01*
X173043333Y-91445238D01*
X173138571Y-91350000D01*
X173281428Y-91302380D01*
X173376666Y-91302380D01*
X173519523Y-91350000D01*
X173567142Y-91397619D01*
X174519523Y-92302380D02*
X173948095Y-92302380D01*
X174233809Y-92302380D02*
X174233809Y-91302380D01*
X174138571Y-91445238D01*
X174043333Y-91540476D01*
X173948095Y-91588095D01*
X175471904Y-92302380D02*
X174900476Y-92302380D01*
X175186190Y-92302380D02*
X175186190Y-91302380D01*
X175090952Y-91445238D01*
X174995714Y-91540476D01*
X174900476Y-91588095D01*
%TO.C,C12*%
X173567142Y-108597142D02*
X173519523Y-108644761D01*
X173376666Y-108692380D01*
X173281428Y-108692380D01*
X173138571Y-108644761D01*
X173043333Y-108549523D01*
X172995714Y-108454285D01*
X172948095Y-108263809D01*
X172948095Y-108120952D01*
X172995714Y-107930476D01*
X173043333Y-107835238D01*
X173138571Y-107740000D01*
X173281428Y-107692380D01*
X173376666Y-107692380D01*
X173519523Y-107740000D01*
X173567142Y-107787619D01*
X174519523Y-108692380D02*
X173948095Y-108692380D01*
X174233809Y-108692380D02*
X174233809Y-107692380D01*
X174138571Y-107835238D01*
X174043333Y-107930476D01*
X173948095Y-107978095D01*
X174900476Y-107787619D02*
X174948095Y-107740000D01*
X175043333Y-107692380D01*
X175281428Y-107692380D01*
X175376666Y-107740000D01*
X175424285Y-107787619D01*
X175471904Y-107882857D01*
X175471904Y-107978095D01*
X175424285Y-108120952D01*
X174852857Y-108692380D01*
X175471904Y-108692380D01*
%TO.C,C13*%
X188357142Y-103742857D02*
X188404761Y-103790476D01*
X188452380Y-103933333D01*
X188452380Y-104028571D01*
X188404761Y-104171428D01*
X188309523Y-104266666D01*
X188214285Y-104314285D01*
X188023809Y-104361904D01*
X187880952Y-104361904D01*
X187690476Y-104314285D01*
X187595238Y-104266666D01*
X187500000Y-104171428D01*
X187452380Y-104028571D01*
X187452380Y-103933333D01*
X187500000Y-103790476D01*
X187547619Y-103742857D01*
X188452380Y-102790476D02*
X188452380Y-103361904D01*
X188452380Y-103076190D02*
X187452380Y-103076190D01*
X187595238Y-103171428D01*
X187690476Y-103266666D01*
X187738095Y-103361904D01*
X187452380Y-102457142D02*
X187452380Y-101838095D01*
X187833333Y-102171428D01*
X187833333Y-102028571D01*
X187880952Y-101933333D01*
X187928571Y-101885714D01*
X188023809Y-101838095D01*
X188261904Y-101838095D01*
X188357142Y-101885714D01*
X188404761Y-101933333D01*
X188452380Y-102028571D01*
X188452380Y-102314285D01*
X188404761Y-102409523D01*
X188357142Y-102457142D01*
%TO.C,C14*%
X190057142Y-120642857D02*
X190104761Y-120690476D01*
X190152380Y-120833333D01*
X190152380Y-120928571D01*
X190104761Y-121071428D01*
X190009523Y-121166666D01*
X189914285Y-121214285D01*
X189723809Y-121261904D01*
X189580952Y-121261904D01*
X189390476Y-121214285D01*
X189295238Y-121166666D01*
X189200000Y-121071428D01*
X189152380Y-120928571D01*
X189152380Y-120833333D01*
X189200000Y-120690476D01*
X189247619Y-120642857D01*
X190152380Y-119690476D02*
X190152380Y-120261904D01*
X190152380Y-119976190D02*
X189152380Y-119976190D01*
X189295238Y-120071428D01*
X189390476Y-120166666D01*
X189438095Y-120261904D01*
X189485714Y-118833333D02*
X190152380Y-118833333D01*
X189104761Y-119071428D02*
X189819047Y-119309523D01*
X189819047Y-118690476D01*
%TO.C,C16*%
X153977142Y-119642857D02*
X154024761Y-119690476D01*
X154072380Y-119833333D01*
X154072380Y-119928571D01*
X154024761Y-120071428D01*
X153929523Y-120166666D01*
X153834285Y-120214285D01*
X153643809Y-120261904D01*
X153500952Y-120261904D01*
X153310476Y-120214285D01*
X153215238Y-120166666D01*
X153120000Y-120071428D01*
X153072380Y-119928571D01*
X153072380Y-119833333D01*
X153120000Y-119690476D01*
X153167619Y-119642857D01*
X154072380Y-118690476D02*
X154072380Y-119261904D01*
X154072380Y-118976190D02*
X153072380Y-118976190D01*
X153215238Y-119071428D01*
X153310476Y-119166666D01*
X153358095Y-119261904D01*
X153072380Y-117833333D02*
X153072380Y-118023809D01*
X153120000Y-118119047D01*
X153167619Y-118166666D01*
X153310476Y-118261904D01*
X153500952Y-118309523D01*
X153881904Y-118309523D01*
X153977142Y-118261904D01*
X154024761Y-118214285D01*
X154072380Y-118119047D01*
X154072380Y-117928571D01*
X154024761Y-117833333D01*
X153977142Y-117785714D01*
X153881904Y-117738095D01*
X153643809Y-117738095D01*
X153548571Y-117785714D01*
X153500952Y-117833333D01*
X153453333Y-117928571D01*
X153453333Y-118119047D01*
X153500952Y-118214285D01*
X153548571Y-118261904D01*
X153643809Y-118309523D01*
%TO.C,C17*%
X182757142Y-123542857D02*
X182804761Y-123590476D01*
X182852380Y-123733333D01*
X182852380Y-123828571D01*
X182804761Y-123971428D01*
X182709523Y-124066666D01*
X182614285Y-124114285D01*
X182423809Y-124161904D01*
X182280952Y-124161904D01*
X182090476Y-124114285D01*
X181995238Y-124066666D01*
X181900000Y-123971428D01*
X181852380Y-123828571D01*
X181852380Y-123733333D01*
X181900000Y-123590476D01*
X181947619Y-123542857D01*
X182852380Y-122590476D02*
X182852380Y-123161904D01*
X182852380Y-122876190D02*
X181852380Y-122876190D01*
X181995238Y-122971428D01*
X182090476Y-123066666D01*
X182138095Y-123161904D01*
X181852380Y-122257142D02*
X181852380Y-121590476D01*
X182852380Y-122019047D01*
%TO.C,C18*%
X173357142Y-123007142D02*
X173309523Y-123054761D01*
X173166666Y-123102380D01*
X173071428Y-123102380D01*
X172928571Y-123054761D01*
X172833333Y-122959523D01*
X172785714Y-122864285D01*
X172738095Y-122673809D01*
X172738095Y-122530952D01*
X172785714Y-122340476D01*
X172833333Y-122245238D01*
X172928571Y-122150000D01*
X173071428Y-122102380D01*
X173166666Y-122102380D01*
X173309523Y-122150000D01*
X173357142Y-122197619D01*
X174309523Y-123102380D02*
X173738095Y-123102380D01*
X174023809Y-123102380D02*
X174023809Y-122102380D01*
X173928571Y-122245238D01*
X173833333Y-122340476D01*
X173738095Y-122388095D01*
X174880952Y-122530952D02*
X174785714Y-122483333D01*
X174738095Y-122435714D01*
X174690476Y-122340476D01*
X174690476Y-122292857D01*
X174738095Y-122197619D01*
X174785714Y-122150000D01*
X174880952Y-122102380D01*
X175071428Y-122102380D01*
X175166666Y-122150000D01*
X175214285Y-122197619D01*
X175261904Y-122292857D01*
X175261904Y-122340476D01*
X175214285Y-122435714D01*
X175166666Y-122483333D01*
X175071428Y-122530952D01*
X174880952Y-122530952D01*
X174785714Y-122578571D01*
X174738095Y-122626190D01*
X174690476Y-122721428D01*
X174690476Y-122911904D01*
X174738095Y-123007142D01*
X174785714Y-123054761D01*
X174880952Y-123102380D01*
X175071428Y-123102380D01*
X175166666Y-123054761D01*
X175214285Y-123007142D01*
X175261904Y-122911904D01*
X175261904Y-122721428D01*
X175214285Y-122626190D01*
X175166666Y-122578571D01*
X175071428Y-122530952D01*
%TO.C,C19*%
X175357142Y-117507142D02*
X175309523Y-117554761D01*
X175166666Y-117602380D01*
X175071428Y-117602380D01*
X174928571Y-117554761D01*
X174833333Y-117459523D01*
X174785714Y-117364285D01*
X174738095Y-117173809D01*
X174738095Y-117030952D01*
X174785714Y-116840476D01*
X174833333Y-116745238D01*
X174928571Y-116650000D01*
X175071428Y-116602380D01*
X175166666Y-116602380D01*
X175309523Y-116650000D01*
X175357142Y-116697619D01*
X176309523Y-117602380D02*
X175738095Y-117602380D01*
X176023809Y-117602380D02*
X176023809Y-116602380D01*
X175928571Y-116745238D01*
X175833333Y-116840476D01*
X175738095Y-116888095D01*
X176785714Y-117602380D02*
X176976190Y-117602380D01*
X177071428Y-117554761D01*
X177119047Y-117507142D01*
X177214285Y-117364285D01*
X177261904Y-117173809D01*
X177261904Y-116792857D01*
X177214285Y-116697619D01*
X177166666Y-116650000D01*
X177071428Y-116602380D01*
X176880952Y-116602380D01*
X176785714Y-116650000D01*
X176738095Y-116697619D01*
X176690476Y-116792857D01*
X176690476Y-117030952D01*
X176738095Y-117126190D01*
X176785714Y-117173809D01*
X176880952Y-117221428D01*
X177071428Y-117221428D01*
X177166666Y-117173809D01*
X177214285Y-117126190D01*
X177261904Y-117030952D01*
%TO.C,C20*%
X163947142Y-93277142D02*
X163899523Y-93324761D01*
X163756666Y-93372380D01*
X163661428Y-93372380D01*
X163518571Y-93324761D01*
X163423333Y-93229523D01*
X163375714Y-93134285D01*
X163328095Y-92943809D01*
X163328095Y-92800952D01*
X163375714Y-92610476D01*
X163423333Y-92515238D01*
X163518571Y-92420000D01*
X163661428Y-92372380D01*
X163756666Y-92372380D01*
X163899523Y-92420000D01*
X163947142Y-92467619D01*
X164328095Y-92467619D02*
X164375714Y-92420000D01*
X164470952Y-92372380D01*
X164709047Y-92372380D01*
X164804285Y-92420000D01*
X164851904Y-92467619D01*
X164899523Y-92562857D01*
X164899523Y-92658095D01*
X164851904Y-92800952D01*
X164280476Y-93372380D01*
X164899523Y-93372380D01*
X165518571Y-92372380D02*
X165613809Y-92372380D01*
X165709047Y-92420000D01*
X165756666Y-92467619D01*
X165804285Y-92562857D01*
X165851904Y-92753333D01*
X165851904Y-92991428D01*
X165804285Y-93181904D01*
X165756666Y-93277142D01*
X165709047Y-93324761D01*
X165613809Y-93372380D01*
X165518571Y-93372380D01*
X165423333Y-93324761D01*
X165375714Y-93277142D01*
X165328095Y-93181904D01*
X165280476Y-92991428D01*
X165280476Y-92753333D01*
X165328095Y-92562857D01*
X165375714Y-92467619D01*
X165423333Y-92420000D01*
X165518571Y-92372380D01*
%TO.C,C21*%
X163177142Y-99667142D02*
X163129523Y-99714761D01*
X162986666Y-99762380D01*
X162891428Y-99762380D01*
X162748571Y-99714761D01*
X162653333Y-99619523D01*
X162605714Y-99524285D01*
X162558095Y-99333809D01*
X162558095Y-99190952D01*
X162605714Y-99000476D01*
X162653333Y-98905238D01*
X162748571Y-98810000D01*
X162891428Y-98762380D01*
X162986666Y-98762380D01*
X163129523Y-98810000D01*
X163177142Y-98857619D01*
X163558095Y-98857619D02*
X163605714Y-98810000D01*
X163700952Y-98762380D01*
X163939047Y-98762380D01*
X164034285Y-98810000D01*
X164081904Y-98857619D01*
X164129523Y-98952857D01*
X164129523Y-99048095D01*
X164081904Y-99190952D01*
X163510476Y-99762380D01*
X164129523Y-99762380D01*
X165081904Y-99762380D02*
X164510476Y-99762380D01*
X164796190Y-99762380D02*
X164796190Y-98762380D01*
X164700952Y-98905238D01*
X164605714Y-99000476D01*
X164510476Y-99048095D01*
%TO.C,C22*%
X164957142Y-102242857D02*
X165004761Y-102290476D01*
X165052380Y-102433333D01*
X165052380Y-102528571D01*
X165004761Y-102671428D01*
X164909523Y-102766666D01*
X164814285Y-102814285D01*
X164623809Y-102861904D01*
X164480952Y-102861904D01*
X164290476Y-102814285D01*
X164195238Y-102766666D01*
X164100000Y-102671428D01*
X164052380Y-102528571D01*
X164052380Y-102433333D01*
X164100000Y-102290476D01*
X164147619Y-102242857D01*
X164147619Y-101861904D02*
X164100000Y-101814285D01*
X164052380Y-101719047D01*
X164052380Y-101480952D01*
X164100000Y-101385714D01*
X164147619Y-101338095D01*
X164242857Y-101290476D01*
X164338095Y-101290476D01*
X164480952Y-101338095D01*
X165052380Y-101909523D01*
X165052380Y-101290476D01*
X164147619Y-100909523D02*
X164100000Y-100861904D01*
X164052380Y-100766666D01*
X164052380Y-100528571D01*
X164100000Y-100433333D01*
X164147619Y-100385714D01*
X164242857Y-100338095D01*
X164338095Y-100338095D01*
X164480952Y-100385714D01*
X165052380Y-100957142D01*
X165052380Y-100338095D01*
%TO.C,C24*%
X162357142Y-85607142D02*
X162309523Y-85654761D01*
X162166666Y-85702380D01*
X162071428Y-85702380D01*
X161928571Y-85654761D01*
X161833333Y-85559523D01*
X161785714Y-85464285D01*
X161738095Y-85273809D01*
X161738095Y-85130952D01*
X161785714Y-84940476D01*
X161833333Y-84845238D01*
X161928571Y-84750000D01*
X162071428Y-84702380D01*
X162166666Y-84702380D01*
X162309523Y-84750000D01*
X162357142Y-84797619D01*
X162738095Y-84797619D02*
X162785714Y-84750000D01*
X162880952Y-84702380D01*
X163119047Y-84702380D01*
X163214285Y-84750000D01*
X163261904Y-84797619D01*
X163309523Y-84892857D01*
X163309523Y-84988095D01*
X163261904Y-85130952D01*
X162690476Y-85702380D01*
X163309523Y-85702380D01*
X164166666Y-85035714D02*
X164166666Y-85702380D01*
X163928571Y-84654761D02*
X163690476Y-85369047D01*
X164309523Y-85369047D01*
%TO.C,C36*%
X162357142Y-111107142D02*
X162309523Y-111154761D01*
X162166666Y-111202380D01*
X162071428Y-111202380D01*
X161928571Y-111154761D01*
X161833333Y-111059523D01*
X161785714Y-110964285D01*
X161738095Y-110773809D01*
X161738095Y-110630952D01*
X161785714Y-110440476D01*
X161833333Y-110345238D01*
X161928571Y-110250000D01*
X162071428Y-110202380D01*
X162166666Y-110202380D01*
X162309523Y-110250000D01*
X162357142Y-110297619D01*
X162690476Y-110202380D02*
X163309523Y-110202380D01*
X162976190Y-110583333D01*
X163119047Y-110583333D01*
X163214285Y-110630952D01*
X163261904Y-110678571D01*
X163309523Y-110773809D01*
X163309523Y-111011904D01*
X163261904Y-111107142D01*
X163214285Y-111154761D01*
X163119047Y-111202380D01*
X162833333Y-111202380D01*
X162738095Y-111154761D01*
X162690476Y-111107142D01*
X164166666Y-110202380D02*
X163976190Y-110202380D01*
X163880952Y-110250000D01*
X163833333Y-110297619D01*
X163738095Y-110440476D01*
X163690476Y-110630952D01*
X163690476Y-111011904D01*
X163738095Y-111107142D01*
X163785714Y-111154761D01*
X163880952Y-111202380D01*
X164071428Y-111202380D01*
X164166666Y-111154761D01*
X164214285Y-111107142D01*
X164261904Y-111011904D01*
X164261904Y-110773809D01*
X164214285Y-110678571D01*
X164166666Y-110630952D01*
X164071428Y-110583333D01*
X163880952Y-110583333D01*
X163785714Y-110630952D01*
X163738095Y-110678571D01*
X163690476Y-110773809D01*
%TO.C,D1*%
X176061904Y-123692380D02*
X176061904Y-122692380D01*
X176300000Y-122692380D01*
X176442857Y-122740000D01*
X176538095Y-122835238D01*
X176585714Y-122930476D01*
X176633333Y-123120952D01*
X176633333Y-123263809D01*
X176585714Y-123454285D01*
X176538095Y-123549523D01*
X176442857Y-123644761D01*
X176300000Y-123692380D01*
X176061904Y-123692380D01*
X177585714Y-123692380D02*
X177014285Y-123692380D01*
X177300000Y-123692380D02*
X177300000Y-122692380D01*
X177204761Y-122835238D01*
X177109523Y-122930476D01*
X177014285Y-122978095D01*
%TO.C,D2*%
X170902380Y-120738095D02*
X169902380Y-120738095D01*
X169902380Y-120500000D01*
X169950000Y-120357142D01*
X170045238Y-120261904D01*
X170140476Y-120214285D01*
X170330952Y-120166666D01*
X170473809Y-120166666D01*
X170664285Y-120214285D01*
X170759523Y-120261904D01*
X170854761Y-120357142D01*
X170902380Y-120500000D01*
X170902380Y-120738095D01*
X169997619Y-119785714D02*
X169950000Y-119738095D01*
X169902380Y-119642857D01*
X169902380Y-119404761D01*
X169950000Y-119309523D01*
X169997619Y-119261904D01*
X170092857Y-119214285D01*
X170188095Y-119214285D01*
X170330952Y-119261904D01*
X170902380Y-119833333D01*
X170902380Y-119214285D01*
%TO.C,L1*%
X186102380Y-87366666D02*
X186102380Y-87842857D01*
X185102380Y-87842857D01*
X186102380Y-86509523D02*
X186102380Y-87080952D01*
X186102380Y-86795238D02*
X185102380Y-86795238D01*
X185245238Y-86890476D01*
X185340476Y-86985714D01*
X185388095Y-87080952D01*
%TO.C,L2*%
X186102380Y-112766666D02*
X186102380Y-113242857D01*
X185102380Y-113242857D01*
X185197619Y-112480952D02*
X185150000Y-112433333D01*
X185102380Y-112338095D01*
X185102380Y-112100000D01*
X185150000Y-112004761D01*
X185197619Y-111957142D01*
X185292857Y-111909523D01*
X185388095Y-111909523D01*
X185530952Y-111957142D01*
X186102380Y-112528571D01*
X186102380Y-111909523D01*
%TO.C,L3*%
X186152380Y-98516666D02*
X186152380Y-98992857D01*
X185152380Y-98992857D01*
X185152380Y-98278571D02*
X185152380Y-97659523D01*
X185533333Y-97992857D01*
X185533333Y-97850000D01*
X185580952Y-97754761D01*
X185628571Y-97707142D01*
X185723809Y-97659523D01*
X185961904Y-97659523D01*
X186057142Y-97707142D01*
X186104761Y-97754761D01*
X186152380Y-97850000D01*
X186152380Y-98135714D01*
X186104761Y-98230952D01*
X186057142Y-98278571D01*
%TO.C,L4*%
X186102380Y-101916666D02*
X186102380Y-102392857D01*
X185102380Y-102392857D01*
X185435714Y-101154761D02*
X186102380Y-101154761D01*
X185054761Y-101392857D02*
X185769047Y-101630952D01*
X185769047Y-101011904D01*
%TO.C,R1*%
X186333333Y-116452380D02*
X186000000Y-115976190D01*
X185761904Y-116452380D02*
X185761904Y-115452380D01*
X186142857Y-115452380D01*
X186238095Y-115500000D01*
X186285714Y-115547619D01*
X186333333Y-115642857D01*
X186333333Y-115785714D01*
X186285714Y-115880952D01*
X186238095Y-115928571D01*
X186142857Y-115976190D01*
X185761904Y-115976190D01*
X187285714Y-116452380D02*
X186714285Y-116452380D01*
X187000000Y-116452380D02*
X187000000Y-115452380D01*
X186904761Y-115595238D01*
X186809523Y-115690476D01*
X186714285Y-115738095D01*
%TO.C,R2*%
X183333333Y-116452380D02*
X183000000Y-115976190D01*
X182761904Y-116452380D02*
X182761904Y-115452380D01*
X183142857Y-115452380D01*
X183238095Y-115500000D01*
X183285714Y-115547619D01*
X183333333Y-115642857D01*
X183333333Y-115785714D01*
X183285714Y-115880952D01*
X183238095Y-115928571D01*
X183142857Y-115976190D01*
X182761904Y-115976190D01*
X183714285Y-115547619D02*
X183761904Y-115500000D01*
X183857142Y-115452380D01*
X184095238Y-115452380D01*
X184190476Y-115500000D01*
X184238095Y-115547619D01*
X184285714Y-115642857D01*
X184285714Y-115738095D01*
X184238095Y-115880952D01*
X183666666Y-116452380D01*
X184285714Y-116452380D01*
%TO.C,R15*%
X160277142Y-95952380D02*
X159943809Y-95476190D01*
X159705714Y-95952380D02*
X159705714Y-94952380D01*
X160086666Y-94952380D01*
X160181904Y-95000000D01*
X160229523Y-95047619D01*
X160277142Y-95142857D01*
X160277142Y-95285714D01*
X160229523Y-95380952D01*
X160181904Y-95428571D01*
X160086666Y-95476190D01*
X159705714Y-95476190D01*
X161229523Y-95952380D02*
X160658095Y-95952380D01*
X160943809Y-95952380D02*
X160943809Y-94952380D01*
X160848571Y-95095238D01*
X160753333Y-95190476D01*
X160658095Y-95238095D01*
X162134285Y-94952380D02*
X161658095Y-94952380D01*
X161610476Y-95428571D01*
X161658095Y-95380952D01*
X161753333Y-95333333D01*
X161991428Y-95333333D01*
X162086666Y-95380952D01*
X162134285Y-95428571D01*
X162181904Y-95523809D01*
X162181904Y-95761904D01*
X162134285Y-95857142D01*
X162086666Y-95904761D01*
X161991428Y-95952380D01*
X161753333Y-95952380D01*
X161658095Y-95904761D01*
X161610476Y-95857142D01*
%TO.C,R23*%
X163552380Y-102242857D02*
X163076190Y-102576190D01*
X163552380Y-102814285D02*
X162552380Y-102814285D01*
X162552380Y-102433333D01*
X162600000Y-102338095D01*
X162647619Y-102290476D01*
X162742857Y-102242857D01*
X162885714Y-102242857D01*
X162980952Y-102290476D01*
X163028571Y-102338095D01*
X163076190Y-102433333D01*
X163076190Y-102814285D01*
X162647619Y-101861904D02*
X162600000Y-101814285D01*
X162552380Y-101719047D01*
X162552380Y-101480952D01*
X162600000Y-101385714D01*
X162647619Y-101338095D01*
X162742857Y-101290476D01*
X162838095Y-101290476D01*
X162980952Y-101338095D01*
X163552380Y-101909523D01*
X163552380Y-101290476D01*
X162552380Y-100957142D02*
X162552380Y-100338095D01*
X162933333Y-100671428D01*
X162933333Y-100528571D01*
X162980952Y-100433333D01*
X163028571Y-100385714D01*
X163123809Y-100338095D01*
X163361904Y-100338095D01*
X163457142Y-100385714D01*
X163504761Y-100433333D01*
X163552380Y-100528571D01*
X163552380Y-100814285D01*
X163504761Y-100909523D01*
X163457142Y-100957142D01*
%TO.C,U1*%
X168238095Y-93552380D02*
X168238095Y-94361904D01*
X168285714Y-94457142D01*
X168333333Y-94504761D01*
X168428571Y-94552380D01*
X168619047Y-94552380D01*
X168714285Y-94504761D01*
X168761904Y-94457142D01*
X168809523Y-94361904D01*
X168809523Y-93552380D01*
X169809523Y-94552380D02*
X169238095Y-94552380D01*
X169523809Y-94552380D02*
X169523809Y-93552380D01*
X169428571Y-93695238D01*
X169333333Y-93790476D01*
X169238095Y-93838095D01*
%TO.C,U2*%
X184238095Y-122252380D02*
X184238095Y-123061904D01*
X184285714Y-123157142D01*
X184333333Y-123204761D01*
X184428571Y-123252380D01*
X184619047Y-123252380D01*
X184714285Y-123204761D01*
X184761904Y-123157142D01*
X184809523Y-123061904D01*
X184809523Y-122252380D01*
X185238095Y-122347619D02*
X185285714Y-122300000D01*
X185380952Y-122252380D01*
X185619047Y-122252380D01*
X185714285Y-122300000D01*
X185761904Y-122347619D01*
X185809523Y-122442857D01*
X185809523Y-122538095D01*
X185761904Y-122680952D01*
X185190476Y-123252380D01*
X185809523Y-123252380D01*
%TO.C,U3*%
X157238095Y-115952380D02*
X157238095Y-116761904D01*
X157285714Y-116857142D01*
X157333333Y-116904761D01*
X157428571Y-116952380D01*
X157619047Y-116952380D01*
X157714285Y-116904761D01*
X157761904Y-116857142D01*
X157809523Y-116761904D01*
X157809523Y-115952380D01*
X158190476Y-115952380D02*
X158809523Y-115952380D01*
X158476190Y-116333333D01*
X158619047Y-116333333D01*
X158714285Y-116380952D01*
X158761904Y-116428571D01*
X158809523Y-116523809D01*
X158809523Y-116761904D01*
X158761904Y-116857142D01*
X158714285Y-116904761D01*
X158619047Y-116952380D01*
X158333333Y-116952380D01*
X158238095Y-116904761D01*
X158190476Y-116857142D01*
%TO.C,J5*%
X197836666Y-94742380D02*
X197836666Y-95456666D01*
X197789047Y-95599523D01*
X197693809Y-95694761D01*
X197550952Y-95742380D01*
X197455714Y-95742380D01*
X198789047Y-94742380D02*
X198312857Y-94742380D01*
X198265238Y-95218571D01*
X198312857Y-95170952D01*
X198408095Y-95123333D01*
X198646190Y-95123333D01*
X198741428Y-95170952D01*
X198789047Y-95218571D01*
X198836666Y-95313809D01*
X198836666Y-95551904D01*
X198789047Y-95647142D01*
X198741428Y-95694761D01*
X198646190Y-95742380D01*
X198408095Y-95742380D01*
X198312857Y-95694761D01*
X198265238Y-95647142D01*
%TO.C,LS2*%
X196452380Y-81142857D02*
X196452380Y-81619047D01*
X195452380Y-81619047D01*
X196404761Y-80857142D02*
X196452380Y-80714285D01*
X196452380Y-80476190D01*
X196404761Y-80380952D01*
X196357142Y-80333333D01*
X196261904Y-80285714D01*
X196166666Y-80285714D01*
X196071428Y-80333333D01*
X196023809Y-80380952D01*
X195976190Y-80476190D01*
X195928571Y-80666666D01*
X195880952Y-80761904D01*
X195833333Y-80809523D01*
X195738095Y-80857142D01*
X195642857Y-80857142D01*
X195547619Y-80809523D01*
X195500000Y-80761904D01*
X195452380Y-80666666D01*
X195452380Y-80428571D01*
X195500000Y-80285714D01*
X195547619Y-79904761D02*
X195500000Y-79857142D01*
X195452380Y-79761904D01*
X195452380Y-79523809D01*
X195500000Y-79428571D01*
X195547619Y-79380952D01*
X195642857Y-79333333D01*
X195738095Y-79333333D01*
X195880952Y-79380952D01*
X196452380Y-79952380D01*
X196452380Y-79333333D01*
%TO.C,LS1*%
X195952380Y-119892857D02*
X195952380Y-120369047D01*
X194952380Y-120369047D01*
X195904761Y-119607142D02*
X195952380Y-119464285D01*
X195952380Y-119226190D01*
X195904761Y-119130952D01*
X195857142Y-119083333D01*
X195761904Y-119035714D01*
X195666666Y-119035714D01*
X195571428Y-119083333D01*
X195523809Y-119130952D01*
X195476190Y-119226190D01*
X195428571Y-119416666D01*
X195380952Y-119511904D01*
X195333333Y-119559523D01*
X195238095Y-119607142D01*
X195142857Y-119607142D01*
X195047619Y-119559523D01*
X195000000Y-119511904D01*
X194952380Y-119416666D01*
X194952380Y-119178571D01*
X195000000Y-119035714D01*
X195952380Y-118083333D02*
X195952380Y-118654761D01*
X195952380Y-118369047D02*
X194952380Y-118369047D01*
X195095238Y-118464285D01*
X195190476Y-118559523D01*
X195238095Y-118654761D01*
%TO.C,J1*%
X152666666Y-113452380D02*
X152666666Y-114166666D01*
X152619047Y-114309523D01*
X152523809Y-114404761D01*
X152380952Y-114452380D01*
X152285714Y-114452380D01*
X153666666Y-114452380D02*
X153095238Y-114452380D01*
X153380952Y-114452380D02*
X153380952Y-113452380D01*
X153285714Y-113595238D01*
X153190476Y-113690476D01*
X153095238Y-113738095D01*
%TO.C,R3*%
X159863333Y-89952380D02*
X159530000Y-89476190D01*
X159291904Y-89952380D02*
X159291904Y-88952380D01*
X159672857Y-88952380D01*
X159768095Y-89000000D01*
X159815714Y-89047619D01*
X159863333Y-89142857D01*
X159863333Y-89285714D01*
X159815714Y-89380952D01*
X159768095Y-89428571D01*
X159672857Y-89476190D01*
X159291904Y-89476190D01*
X160196666Y-88952380D02*
X160815714Y-88952380D01*
X160482380Y-89333333D01*
X160625238Y-89333333D01*
X160720476Y-89380952D01*
X160768095Y-89428571D01*
X160815714Y-89523809D01*
X160815714Y-89761904D01*
X160768095Y-89857142D01*
X160720476Y-89904761D01*
X160625238Y-89952380D01*
X160339523Y-89952380D01*
X160244285Y-89904761D01*
X160196666Y-89857142D01*
%TO.C,R4*%
X159873333Y-91452380D02*
X159540000Y-90976190D01*
X159301904Y-91452380D02*
X159301904Y-90452380D01*
X159682857Y-90452380D01*
X159778095Y-90500000D01*
X159825714Y-90547619D01*
X159873333Y-90642857D01*
X159873333Y-90785714D01*
X159825714Y-90880952D01*
X159778095Y-90928571D01*
X159682857Y-90976190D01*
X159301904Y-90976190D01*
X160730476Y-90785714D02*
X160730476Y-91452380D01*
X160492380Y-90404761D02*
X160254285Y-91119047D01*
X160873333Y-91119047D01*
%TO.C,C15*%
X162737142Y-119642857D02*
X162784761Y-119690476D01*
X162832380Y-119833333D01*
X162832380Y-119928571D01*
X162784761Y-120071428D01*
X162689523Y-120166666D01*
X162594285Y-120214285D01*
X162403809Y-120261904D01*
X162260952Y-120261904D01*
X162070476Y-120214285D01*
X161975238Y-120166666D01*
X161880000Y-120071428D01*
X161832380Y-119928571D01*
X161832380Y-119833333D01*
X161880000Y-119690476D01*
X161927619Y-119642857D01*
X162832380Y-118690476D02*
X162832380Y-119261904D01*
X162832380Y-118976190D02*
X161832380Y-118976190D01*
X161975238Y-119071428D01*
X162070476Y-119166666D01*
X162118095Y-119261904D01*
X161832380Y-117785714D02*
X161832380Y-118261904D01*
X162308571Y-118309523D01*
X162260952Y-118261904D01*
X162213333Y-118166666D01*
X162213333Y-117928571D01*
X162260952Y-117833333D01*
X162308571Y-117785714D01*
X162403809Y-117738095D01*
X162641904Y-117738095D01*
X162737142Y-117785714D01*
X162784761Y-117833333D01*
X162832380Y-117928571D01*
X162832380Y-118166666D01*
X162784761Y-118261904D01*
X162737142Y-118309523D01*
%TD*%
M02*
